<svg id="Layer_1" data-name="Layer 1" xmlns="http://www.w3.org/2000/svg" viewBox="0 0 1361.74 884.82"><defs><style>.cls-1{fill:#262626;}.cls-2{fill:#0d6890;}.cls-3{fill:#391c02;}.cls-4{fill:#a36706;}.cls-5{fill:#a38106;}.cls-6{fill:#806305;}.cls-7{fill:#fff;}.cls-8{fill:#b9a286;}.cls-9{fill:#d59908;}.cls-10{opacity:0.47;}.cls-11{opacity:0.72;}.cls-12{fill:#563403;}.cls-13{fill:#16a78a;}.cls-14{opacity:0.58;}.cls-15{fill:#fca0ce;}.cls-16{fill:#ef85ff;}.cls-17{fill:#fa0e8f;}.cls-18{fill:#fca376;}.cls-19{opacity:0.7;}.cls-20{fill:#83daff;}.cls-21{fill:#64bcff;}</style></defs><rect class="cls-1" x="431.68" y="769.15" width="57.81" height="62.18"/><path class="cls-1" d="M679.19,887.78c0,22.59-34.53,28.36-73.09,28.36s-63.26-35.22-63.26-57.82,21.43-29.45,60-29.45S679.19,865.19,679.19,887.78Z" transform="translate(-78.43 -80.45)"/><rect class="cls-1" x="748.59" y="834.66" width="57.81" height="62.18" transform="translate(136.78 -233.45) rotate(13.03)"/><path class="cls-1" d="M916.83,898.81c-5.09,22-40,19.85-77.6,11.15s-53.7-48.58-48.6-70.59,27.52-23.86,65.09-15.17S921.92,876.8,916.83,898.81Z" transform="translate(-78.43 -80.45)"/><path class="cls-2" d="M684.75,405.5a1361,1361,0,0,0,158.68,198c9.22,9.52,18.71,19.1,24.81,30.86,5.24,10.11,7.74,21.4,9.93,32.58,13.31,67.89,17.18,92.95,11.55,161.9-48.43-3.57-98.82,24.3-147.26,20.73-8.3-61.47,14.93-114.25-10-171-18.29-41.67-58.64-70.56-76.76-112.3q9.31,145.57,11.08,291.5L506,851.21q13.62-42.59,26.42-85.43c9.37-31.36,18.46-63,21.76-95.58,3.23-31.81.88-63.92,2.58-95.84,3-56.82,18.78-112.09,34.44-166.78,28.41,14,64.23,11.49,90.45-6.25Z" transform="translate(-78.43 -80.45)"/><path class="cls-3" d="M835.54,326.19h0a12.61,12.61,0,0,0-14.87,17.72h0c6.14,12.3-9,24.15-19.47,15.22h0a12.62,12.62,0,0,0-20.8,10.15h0c.6,13.72-18.07,18.38-24,6h0a12.61,12.61,0,0,0-23.12.81h0c-5,12.78-24,9.44-24.35-4.3h0a12.61,12.61,0,0,0-21.45-8.66h0c-9.8,9.63-25.75-1.13-20.49-13.82h0a12.61,12.61,0,0,0-16.07-16.64h0c-12.87,4.81-23.07-11.51-13.1-21h0a12.62,12.62,0,0,0-7.92-21.74h0c-13.71-.83-16.39-19.89-3.44-24.47h0a12.61,12.61,0,0,0,1.61-23.07h0c-12.19-6.35-6.88-24.84,6.82-23.77h0a12.61,12.61,0,0,0,10.86-20.42h0c-8.56-10.76,3.81-25.5,15.88-18.94h0A12.61,12.61,0,0,0,679.88,165h0c-3.44-13.31,13.86-21.74,22.22-10.84h0a12.62,12.62,0,0,0,22.45-5.6h0c2.27-13.55,21.49-14.22,24.7-.86h0a12.62,12.62,0,0,0,22.79,4h0c7.58-11.46,25.42-4.25,22.92,9.26h0a12.62,12.62,0,0,0,19.18,12.94h0c11.59-7.39,25,6.45,17.17,17.78h0a12.62,12.62,0,0,0,12.26,19.62h0c13.59-2,20.17,16,8.46,23.23h0a12.61,12.61,0,0,0,3.22,22.9h0c13.24,3.68,11.9,22.87-1.73,24.66h0a12.61,12.61,0,0,0-6.37,22.24h0C857.75,313.1,848.72,330.09,835.54,326.19Z" transform="translate(-78.43 -80.45)"/><path class="cls-3" d="M608.17,334.79h0a12.61,12.61,0,0,0-14.87,17.72h0c6.13,12.3-9,24.14-19.48,15.22h0A12.61,12.61,0,0,0,553,377.87h0c.6,13.73-18.07,18.39-24,6h0a12.61,12.61,0,0,0-23.12.81h0c-5,12.79-24,9.45-24.34-4.29h0a12.61,12.61,0,0,0-21.45-8.66h0c-9.8,9.63-25.76-1.13-20.5-13.83h0a12.61,12.61,0,0,0-16.07-16.64h0c-12.87,4.82-23.07-11.5-13.1-21h0a12.61,12.61,0,0,0-7.91-21.74h0c-13.72-.84-16.4-19.89-3.45-24.48h0A12.61,12.61,0,0,0,400.72,251h0c-12.19-6.34-6.89-24.84,6.81-23.76h0a12.62,12.62,0,0,0,10.86-20.43h0c-8.56-10.75,3.81-25.49,15.89-18.93h0a12.62,12.62,0,0,0,18.23-14.25h0c-3.44-13.3,13.85-21.74,22.22-10.83h0a12.61,12.61,0,0,0,22.44-5.6h0c2.27-13.55,21.5-14.23,24.71-.87h0a12.61,12.61,0,0,0,22.78,4h0c7.58-11.46,25.42-4.25,22.92,9.26h0a12.61,12.61,0,0,0,19.18,12.93h0c11.59-7.38,25,6.46,17.17,17.79h0a12.61,12.61,0,0,0,12.26,19.61h0c13.59-2,20.18,16.05,8.46,23.23h0a12.62,12.62,0,0,0,3.22,22.91h0c13.24,3.67,11.9,22.87-1.72,24.66h0A12.62,12.62,0,0,0,619.77,313h0C630.38,321.7,621.34,338.69,608.17,334.79Z" transform="translate(-78.43 -80.45)"/><g id="outline"><circle class="cls-4" cx="549.35" cy="140.54" r="41.52"/><path class="cls-5" d="M789.35,148.18C777,178.11,711.24,198.55,614.26,225c-88,24-184.73-1.48-186.61-41.75-1.14-24.54,87.47-59.47,175.1-76.85C703.8,86.39,794.94,134.63,789.35,148.18Z" transform="translate(-78.43 -80.45)"/><path class="cls-6" d="M694.85,129.52c0,27-34.22,45.32-75.93,48.89-62.3,5.32-105.3-12.88-75.93-48.89,17.85-21.88,14.75-45.09,75.93-48.88C660.74,78.05,694.85,102.53,694.85,129.52Z" transform="translate(-78.43 -80.45)"/><text x="-78.43" y="-80.45"/><path class="cls-7" d="M643.55,246.44a30,30,0,0,0,5.78-3.33l45.6-31" transform="translate(-78.43 -80.45)"/><path class="cls-8" d="M643.94,247.88c4.61-1.87,8.64-5.17,12.72-7.95l12.94-8.81,26.08-17.75c1.59-1.08.09-3.68-1.51-2.59L668.5,228.25l-12.74,8.67-6.36,4.33a35,35,0,0,1-6.25,3.74c-1.77.72-1,3.62.79,2.89Z" transform="translate(-78.43 -80.45)"/><path class="cls-9" d="M680.59,217.91a50.79,50.79,0,0,0,6.79,5.36,1.51,1.51,0,0,0,2.25-1.3,31.91,31.91,0,0,0-.39-4.57c-.11-.74-.26-1.48-.43-2.21a9.7,9.7,0,0,1-.51-1.82l-.39.66.13-.12-.66.38c-.24-.06-.32-.07-.24,0a4.92,4.92,0,0,1,.45.28,8.59,8.59,0,0,1,.76.59c.54.47,1.06,1,1.6,1.44,1,.86,2.48,2.21,3.89,1.88,2-.46,1.48-2.52,1.08-3.91a33.68,33.68,0,0,0-1.77-4.73l-2,2,5.13,2.47a1.52,1.52,0,0,0,2.2-.9,9,9,0,0,0-.76-6.24l-2,2,2.43,1.66c1.6,1.09,3.1-1.51,1.52-2.59l-2.44-1.66c-1.32-.91-2.68.81-2,2.05a5.64,5.64,0,0,1,.46,3.93l2.2-.89-5.13-2.47a1.51,1.51,0,0,0-2.05,2.05,26.56,26.56,0,0,1,1.05,2.68c.15.44.29.89.42,1.34.05.2.11.4.16.6s.08.3.11.45.05.2,0,0l.38-.66-.12.15.66-.38-.22.07h.8c-1.25-.18-2.46-1.77-3.37-2.55-1.08-.93-2.73-2.36-4.24-1.48-1.78,1-.53,3.42-.21,4.91a26.88,26.88,0,0,1,.61,5.51l2.26-1.29a46.92,46.92,0,0,1-6.18-4.89c-1.4-1.32-3.53.79-2.12,2.12Z" transform="translate(-78.43 -80.45)"/><text x="-78.43" y="-80.45"/><text x="-78.43" y="-80.45"/><text x="-78.43" y="-80.45"/><text x="-78.43" y="-80.45"/></g><g id="face"><g class="cls-10"><path d="M609.83,239.61c.79-5.55,6.42-10.05,12.06-9.16a1.15,1.15,0,0,0,1.38-.79,1.13,1.13,0,0,0-.78-1.38c-6.75-1.06-13.85,3.86-14.83,10.73a1.16,1.16,0,0,0,.78,1.38,1.14,1.14,0,0,0,1.39-.78Z" transform="translate(-78.43 -80.45)"/></g><g class="cls-10"><path d="M641.9,225.89a26.3,26.3,0,0,1,14.63-2.53,1.14,1.14,0,0,0,1.13-1.12,1.16,1.16,0,0,0-1.13-1.13A28.44,28.44,0,0,0,640.77,224c-1.3.64-.16,2.58,1.13,1.94Z" transform="translate(-78.43 -80.45)"/></g><g class="cls-11"><path class="cls-12" d="M634.07,241a6.13,6.13,0,0,0,8-7.07,1.13,1.13,0,0,0-1.38-.79,1.16,1.16,0,0,0-.79,1.38c0,.09,0,.3,0,.1l0,.3c0,.2,0,.4,0,.6s0,.3,0,.09l-.06.3c0,.19-.09.39-.15.58s-.07.18-.11.28c.09-.22,0,0,0,.09a3.29,3.29,0,0,1-.29.52,2.2,2.2,0,0,1-.17.25c.13-.18,0,.05-.07.09s-.3.31-.46.46l-.11.09c.08-.06.09-.06,0,0l-.25.18a3.92,3.92,0,0,1-.53.29l-.14.07c.1,0,.11,0,0,0l-.28.1-.6.15-.15,0c.12,0,.13,0,0,0l-.3,0c-.21,0-.41,0-.61,0l-.21,0-.2,0a5,5,0,0,1-.63-.18,1.13,1.13,0,1,0-.6,2.17Z" transform="translate(-78.43 -80.45)"/></g><path class="cls-13" d="M650.7,229.67c-.35.23.3.62.73.46s.38-.6,0-.83a1.74,1.74,0,0,0-1.4-.14c-.43.17-.62.57-.35.85s1.44.28,1.64-.14-.63-.87-1.26-.68" transform="translate(-78.43 -80.45)"/><path d="M649.18,227.08a4.72,4.72,0,0,0-.66.52,3.19,3.19,0,0,0-.8,1.36,3.24,3.24,0,0,0,0,1.72c0,.06.28.68.31.73l0,0a3.18,3.18,0,0,0,.51.65,2.74,2.74,0,0,0,.77.58,4.64,4.64,0,0,0,.89.37,6.71,6.71,0,0,0,.9.12h.12a3.71,3.71,0,0,0,1-.15,4.54,4.54,0,0,0,.82-.36c.11-.07.26-.2.34-.26a3,3,0,0,0,.35-.27,3.43,3.43,0,0,0,.86-1.47,2.5,2.5,0,0,0,.13-1,3.53,3.53,0,0,0-.47-1.67,6.55,6.55,0,0,0-.51-.68.76.76,0,0,0-.09-.09,4,4,0,0,0-.8-.6,6.37,6.37,0,0,0-1-.4,6.62,6.62,0,0,0-1-.15l-.32,0a7.07,7.07,0,0,0-1,.13,4.63,4.63,0,0,0-1,.38,3.69,3.69,0,0,0-.82.6l-.09.08,0,.05-.47.6,0,0a2.15,2.15,0,0,0-.2.45,1.84,1.84,0,0,0-.18.45v0l-.11.8v.05a3.35,3.35,0,0,0,.12.89,3.42,3.42,0,0,0,.85,1.49,3.22,3.22,0,0,0,.74.58l.09,0c.25.12.52.23.78.33a1.41,1.41,0,0,0,.22.06,4.91,4.91,0,0,0,1.22.12,8.42,8.42,0,0,0,1-.14l.21-.06a3.9,3.9,0,0,0,1.6-.95,3.41,3.41,0,0,0,.85-1.47,3.35,3.35,0,0,0,0-1.75,2.64,2.64,0,0,0-.38-.88,3.87,3.87,0,0,0-1.23-1.22,4.76,4.76,0,0,0-.92-.41,1.61,1.61,0,0,0-.29-.09c-.31-.05-.61-.1-.92-.12h-.15a4,4,0,0,0-1.08.16,2.27,2.27,0,0,0-1,.53,2.31,2.31,0,0,0-.77.84,2.28,2.28,0,0,0-.36,1.12,2.23,2.23,0,0,0,.06,1.2l.3.71a3.1,3.1,0,0,0,1.08,1.08l.71.3a3.1,3.1,0,0,0,1.6,0l.16,0-.8.1a1.28,1.28,0,0,1,.34,0l-.8-.11a1.89,1.89,0,0,1,.34.09l-.72-.3a1,1,0,0,1,.24.14l-.6-.47a1.36,1.36,0,0,1,.12.12l-.47-.61.06.1-.3-.71a.29.29,0,0,1,0,.09l-.1-.8v.08l.1-.8a.24.24,0,0,1,0,.08l.31-.72-.06.09.47-.61-.09.1.6-.47a.77.77,0,0,1-.18.1l.72-.31a1.4,1.4,0,0,1-.35.1l.79-.11a1.62,1.62,0,0,1-.44,0l.79.11a1.38,1.38,0,0,1-.29-.08l.72.3a.56.56,0,0,1-.17-.09l.61.47-.1-.1.47.6a.22.22,0,0,1,0-.08l.3.71,0-.11.11.8v-.09l-.11.79,0-.11-.3.72a.54.54,0,0,1,.07-.13l-.47.61a.8.8,0,0,1,.13-.13l-.61.47.22-.13-.72.31a1.06,1.06,0,0,1,.35-.09l-.8.11a1.93,1.93,0,0,1,.48,0l-.8-.11a1.91,1.91,0,0,1,.41.11l-.71-.3.22.13-.61-.47.13.12L649,231a.35.35,0,0,1,.07.12l-.3-.72,0,.11-.11-.8v.11l.11-.8,0,.09.3-.72a.36.36,0,0,1,0,.09l.47-.61-.09.09.61-.47-.13.07.72-.3-.16,0,.79-.11h-.18l.79.11-.22-.06.72.3-.15-.08.61.47a.6.6,0,0,1-.08-.08l.47.6,0,0,.31.71a0,0,0,0,1,0,0l.1.79v-.05l-.1.8a0,0,0,0,1,0,0l-.3.71s0,0,0,0l-.47.61,0,0-.6.47h0a2.31,2.31,0,0,0,.84-.77,2.2,2.2,0,0,0,.54-1,2.23,2.23,0,0,0,0-1.2,2.11,2.11,0,0,0-.35-1.11l-.47-.61a3,3,0,0,0-1.32-.77l-.8-.11a3,3,0,0,0-1.52.41Z" transform="translate(-78.43 -80.45)"/><path class="cls-13" d="M619.56,238.43c-.34.24.3.65.72.48s.38-.63,0-.87a1.55,1.55,0,0,0-1.38-.14c-.43.17-.61.59-.35.88s1.43.3,1.63-.14-.63-.92-1.25-.72" transform="translate(-78.43 -80.45)"/><path d="M618.05,235.84a4.81,4.81,0,0,0-.67.52,3,3,0,0,0-.79,1.36,3.14,3.14,0,0,0,0,1.72,3.31,3.31,0,0,0,.85,1.43,3.27,3.27,0,0,0,.75.58,4.38,4.38,0,0,0,.9.37,5.55,5.55,0,0,0,.9.12h.13a3.8,3.8,0,0,0,1.69-.45l.1-.06a3.73,3.73,0,0,0,.7-.54,4.89,4.89,0,0,0,.52-.68l0-.05c.08-.16.25-.56.31-.73a2.62,2.62,0,0,0,.12-1,3.45,3.45,0,0,0-.46-1.68.35.35,0,0,0,0-.08,3.69,3.69,0,0,0-.55-.7,4.34,4.34,0,0,0-1.74-1,2.8,2.8,0,0,0-.28-.06,7.14,7.14,0,0,0-1.07-.12,7.53,7.53,0,0,0-1,.13,4.36,4.36,0,0,0-1,.39,4.19,4.19,0,0,0-.82.59l-.08.08a5.22,5.22,0,0,0-.54.7,2.67,2.67,0,0,0-.37.89,3.5,3.5,0,0,0,0,1.79,2.43,2.43,0,0,0,.38.89,3.53,3.53,0,0,0,1.21,1.19.18.18,0,0,0,.07.05l0,0,.73.31.21.07a8.28,8.28,0,0,0,1,.13h.24a8.06,8.06,0,0,0,1-.13l.22-.07a4.61,4.61,0,0,0,.87-.38l0,0c.16-.11.47-.35.62-.48l.08-.07a4.74,4.74,0,0,0,.51-.67s0,0,0,0l.3-.72v0a3.32,3.32,0,0,0,0-1.77,2.82,2.82,0,0,0-.38-.89,4,4,0,0,0-1.22-1.22l-.24-.14a4.92,4.92,0,0,0-1-.37,4.27,4.27,0,0,0-2.16,0,2.2,2.2,0,0,0-1,.54,3.06,3.06,0,0,0-1.07,3.15l.3.72a2.89,2.89,0,0,0,1.07,1.07l.72.3a2.9,2.9,0,0,0,1.6,0l.16,0-.8.1h.31l-.8-.1a1,1,0,0,1,.33.09l-.71-.31.24.14-.61-.47a.93.93,0,0,1,.14.14l-.47-.61a.75.75,0,0,1,.07.12l-.3-.72a.3.3,0,0,1,0,.1l-.1-.8v.08l.1-.8a.3.3,0,0,1,0,.1l.3-.72,0,.09.46-.61-.1.1.61-.47a.77.77,0,0,1-.18.1l.72-.3a1.06,1.06,0,0,1-.35.09l.8-.11a2,2,0,0,1-.42,0l.79.1a1.53,1.53,0,0,1-.29-.07l.72.3-.16-.1.6.47-.1-.09.47.6-.06-.1.3.71,0-.11.11.8v-.11l-.11.79a.93.93,0,0,1,0-.13l-.3.72a.47.47,0,0,1,.07-.12l-.47.6a.93.93,0,0,1,.14-.14l-.6.47a.72.72,0,0,1,.19-.11l-.72.3a1.07,1.07,0,0,1,.34-.09l-.79.1a2.16,2.16,0,0,1,.44,0l-.8-.1a1.44,1.44,0,0,1,.42.11l-.71-.3a1.19,1.19,0,0,1,.22.12l-.61-.47.13.13-.47-.61a.64.64,0,0,1,.08.14l-.3-.72a.5.5,0,0,1,0,.13l-.11-.8a.21.21,0,0,1,0,.11l.11-.8a.2.2,0,0,1,0,.11l.31-.72a.56.56,0,0,1-.05.08l.47-.6-.09.08.61-.47a.67.67,0,0,1-.14.09l.72-.31-.14,0,.8-.11H620l.8.11a.76.76,0,0,1-.2-.06l.72.31-.16-.09.6.46-.08-.08.47.61,0-.06.31.72,0-.05.11.79v0l-.11.79s0,0,0,0l-.3.71,0,0-.47.6,0,0-.61.47h0a2.25,2.25,0,0,0,.84-.78,2.39,2.39,0,0,0,.54-1,3.37,3.37,0,0,0-.31-2.31l-.47-.61a3,3,0,0,0-1.32-.77l-.8-.1a2.88,2.88,0,0,0-1.51.41Z" transform="translate(-78.43 -80.45)"/><g class="cls-14"><path class="cls-13" d="M613.75,250.39c-.78.81.68,2.21,1.63,1.62a2,2,0,0,0,.09-2.93,2.62,2.62,0,0,0-3.14-.49,2.28,2.28,0,0,0-.79,3,2,2,0,1,0,.86-2.9" transform="translate(-78.43 -80.45)"/><path class="cls-15" d="M611.63,248.27a4,4,0,0,0-.59.77,4.49,4.49,0,0,0-.34.78l-.05.14a6.28,6.28,0,0,0-.12.87v.11a6.47,6.47,0,0,0,.11.87l0,.12a.5.5,0,0,0,0,.13,7.75,7.75,0,0,0,.33.79,1.64,1.64,0,0,0,.14.22,7.43,7.43,0,0,0,.6.76,6,6,0,0,0,.8.63l.22.13a6.19,6.19,0,0,0,.92.39,4.51,4.51,0,0,0,1,.16,1.13,1.13,0,0,0,.26,0,6.64,6.64,0,0,0,.88-.12l.11,0a7.07,7.07,0,0,0,.8-.33l.15-.09a4.77,4.77,0,0,0,1.42-1.41,1.35,1.35,0,0,0,.15-.26,5.68,5.68,0,0,0,.39-1,3.65,3.65,0,0,0,.1-.65,3.42,3.42,0,0,0,.07-.71,5.08,5.08,0,0,0-.07-.67,4.16,4.16,0,0,0-.12-.69,4.93,4.93,0,0,0-.24-.64c-.09-.21-.17-.42-.28-.62a2.2,2.2,0,0,0-.17-.25,7.6,7.6,0,0,0-.67-.83,8.67,8.67,0,0,0-.82-.65,3.13,3.13,0,0,0-.3-.2,8.77,8.77,0,0,0-1-.44l-.34-.11a1.83,1.83,0,0,0-.32-.07,8.51,8.51,0,0,0-1.13-.14h-.33a9.87,9.87,0,0,0-1.09.16,1.91,1.91,0,0,0-.34.1,7.28,7.28,0,0,0-1,.44,7.08,7.08,0,0,0-.83.61l-.27.24a8.35,8.35,0,0,0-.63.81,1.67,1.67,0,0,0-.18.28,7,7,0,0,0-.42,1,2,2,0,0,0-.1.32,9.17,9.17,0,0,0-.16,1.05,2.17,2.17,0,0,0,0,.36,7.35,7.35,0,0,0,.13,1.05,2,2,0,0,0,.08.33,8.7,8.7,0,0,0,.4,1,1.78,1.78,0,0,0,.17.27,7.55,7.55,0,0,0,.6.77,6.92,6.92,0,0,0,.8.63,5,5,0,0,0,1.12.53,2.39,2.39,0,0,0,.51.13,5.56,5.56,0,0,0,1.28.13,5.82,5.82,0,0,0,2.48-.68,5,5,0,0,0,1-.73l.18-.18a6.65,6.65,0,0,0,.61-.79,4.18,4.18,0,0,0,.5-1.17,5.35,5.35,0,0,0,.16-1,1.58,1.58,0,0,0,0-.31,7.38,7.38,0,0,0-.15-1.05,1.49,1.49,0,0,0-.09-.3,4.91,4.91,0,0,0-.59-1.22,5.91,5.91,0,0,0-.85-1,5.68,5.68,0,0,0-1.1-.79,5.3,5.3,0,0,0-1.27-.49,5,5,0,0,0-1.34-.13,7.53,7.53,0,0,0-1.06.16,8.09,8.09,0,0,0-1,.4,2.36,2.36,0,0,0-.85.78,2.27,2.27,0,0,0-.53,1,2.19,2.19,0,0,0-.06,1.19,2.28,2.28,0,0,0,.36,1.12,3.05,3.05,0,0,0,1.79,1.38l.8.1a3,3,0,0,0,1.51-.41l.1,0-.72.31a1.44,1.44,0,0,1,.42-.11l-.8.1a2.08,2.08,0,0,1,.43,0l-.8-.11a2.14,2.14,0,0,1,.55.15l-.71-.3a2.48,2.48,0,0,1,.54.32l-.6-.47a2.71,2.71,0,0,1,.41.42l-.47-.61a2.29,2.29,0,0,1,.3.5l-.3-.72a2.19,2.19,0,0,1,.14.5l-.11-.79a3.08,3.08,0,0,1,0,.43l.1-.8a1.8,1.8,0,0,1-.1.4l.3-.72a1.9,1.9,0,0,1-.23.39l.47-.61a1.57,1.57,0,0,1-.32.31l.61-.46a3.47,3.47,0,0,1-.46.27l.72-.31a2.41,2.41,0,0,1-.65.18l.8-.11a2.22,2.22,0,0,1-.63,0l.8.11a2.21,2.21,0,0,1-.56-.15l.72.31a2.22,2.22,0,0,1-.42-.25l.61.47a2,2,0,0,1-.29-.29l.47.61a2.71,2.71,0,0,1-.21-.37l.3.71a2,2,0,0,1-.14-.49l.11.8a2.08,2.08,0,0,1,0-.61l-.11.8a2.41,2.41,0,0,1,.16-.6l-.3.71a2.17,2.17,0,0,1,.31-.53l-.47.6a2.52,2.52,0,0,1,.4-.4l-.6.47a2.09,2.09,0,0,1,.46-.26l-.71.3a2.26,2.26,0,0,1,.58-.16l-.8.11a2.41,2.41,0,0,1,.71,0l-.8-.11a2.91,2.91,0,0,1,.7.19l-.72-.3a3.25,3.25,0,0,1,.57.33l-.61-.47a2.33,2.33,0,0,1,.42.41l-.47-.61a2.16,2.16,0,0,1,.29.51l-.3-.71a2.19,2.19,0,0,1,.16.57l-.11-.8a2.25,2.25,0,0,1,0,.58l.1-.8a1.82,1.82,0,0,1-.11.46l.3-.72a1.25,1.25,0,0,1-.21.35l.47-.6a1.67,1.67,0,0,1-.23.23l.61-.47-.23.14.72-.31a.9.9,0,0,1-.28.08l.8-.11a1.31,1.31,0,0,1-.28,0l.8.1a.9.9,0,0,1-.32-.09l.72.31a1.65,1.65,0,0,1-.36-.22l.61.47a1.66,1.66,0,0,1-.27-.26l.47.6a1.49,1.49,0,0,1-.18-.3l.3.72a1.22,1.22,0,0,1-.06-.26l.11.8a1.09,1.09,0,0,1,0-.18l-.1.8a1.08,1.08,0,0,1,.05-.21l-.3.71a.86.86,0,0,1,.1-.16l-.47.6.06-.06a3.19,3.19,0,0,0,.88-2.12,2.3,2.3,0,0,0-.26-1.16,2.25,2.25,0,0,0-.62-1,3,3,0,0,0-4.24,0Z" transform="translate(-78.43 -80.45)"/></g><g class="cls-14"><path class="cls-13" d="M656.07,241.6c-.77.81.69,2.21,1.64,1.62a2,2,0,0,0,.09-2.92,2.6,2.6,0,0,0-3.14-.49,2.26,2.26,0,0,0-.79,3,2,2,0,1,0,.85-2.9" transform="translate(-78.43 -80.45)"/><path class="cls-15" d="M654,239.48a5.42,5.42,0,0,0-.59.77,4.59,4.59,0,0,0-.34.79.57.57,0,0,0,0,.14,4.24,4.24,0,0,0-.12.87s0,.07,0,.1a5.06,5.06,0,0,0,.12.87.51.51,0,0,0,0,.13s0,.08,0,.13a7.67,7.67,0,0,0,.34.78,1.59,1.59,0,0,0,.13.22,5.64,5.64,0,0,0,.61.76,6.13,6.13,0,0,0,.79.64l.22.13a5.88,5.88,0,0,0,.93.39,5.74,5.74,0,0,0,1,.16h.26a8.47,8.47,0,0,0,.88-.12l.12,0a6.07,6.07,0,0,0,.79-.34l.15-.08a4.84,4.84,0,0,0,1.43-1.42l.15-.25a6.61,6.61,0,0,0,.38-1,4.9,4.9,0,0,0,.11-.65,5.88,5.88,0,0,0,.07-.71c0-.23,0-.45-.08-.67a5.22,5.22,0,0,0-.11-.69,5,5,0,0,0-.25-.64c-.09-.21-.17-.43-.28-.63l-.17-.24a5.94,5.94,0,0,0-.67-.83,7.31,7.31,0,0,0-.82-.65,1.57,1.57,0,0,0-.3-.2,8,8,0,0,0-1-.44,3.4,3.4,0,0,0-.34-.12l-.32-.07a8.5,8.5,0,0,0-1.13-.13,1.82,1.82,0,0,0-.33,0,8.16,8.16,0,0,0-1.09.15l-.34.11a8.7,8.7,0,0,0-1,.43,6.18,6.18,0,0,0-.83.62,2,2,0,0,0-.26.24,8,8,0,0,0-.64.8c-.06.1-.13.19-.18.29a8.5,8.5,0,0,0-.42,1,3,3,0,0,0-.1.32,7.38,7.38,0,0,0-.15,1.05,2.17,2.17,0,0,0,0,.36,7.35,7.35,0,0,0,.13,1.05,3,3,0,0,0,.08.32,8.09,8.09,0,0,0,.4,1c0,.09.11.18.17.27a6.34,6.34,0,0,0,.61.76,5.33,5.33,0,0,0,.79.63,4.41,4.41,0,0,0,1.12.53,2.35,2.35,0,0,0,.52.14,6,6,0,0,0,1.28.12,5.67,5.67,0,0,0,2.47-.67,6,6,0,0,0,1-.73,1.62,1.62,0,0,0,.18-.19,7.46,7.46,0,0,0,.61-.78,4.33,4.33,0,0,0,.51-1.17,6.21,6.21,0,0,0,.15-1,1.63,1.63,0,0,0,0-.31,7.7,7.7,0,0,0-.14-1.06,2.47,2.47,0,0,0-.1-.29,5.26,5.26,0,0,0-.58-1.22,5.6,5.6,0,0,0-.86-1,5.92,5.92,0,0,0-1.1-.79,5.12,5.12,0,0,0-1.27-.48,5,5,0,0,0-1.34-.13,5.45,5.45,0,0,0-1.05.16,6.37,6.37,0,0,0-1,.4,2.23,2.23,0,0,0-.84.77,2.2,2.2,0,0,0-.54,1,2.33,2.33,0,0,0-.05,1.2,2.2,2.2,0,0,0,.35,1.11,3,3,0,0,0,1.8,1.38l.79.11a3,3,0,0,0,1.52-.41l.09,0-.72.3a2.17,2.17,0,0,1,.42-.11l-.8.11h.43l-.8-.11a2.23,2.23,0,0,1,.56.16l-.72-.31a2.77,2.77,0,0,1,.55.33l-.61-.47a3.25,3.25,0,0,1,.42.41l-.47-.6a2.43,2.43,0,0,1,.29.49l-.3-.71a2.19,2.19,0,0,1,.14.5l-.11-.8a1.55,1.55,0,0,1,0,.43l.11-.8a1.82,1.82,0,0,1-.11.4l.3-.71a1.48,1.48,0,0,1-.23.38l.47-.6a2.27,2.27,0,0,1-.31.31l.6-.47a1.92,1.92,0,0,1-.46.27l.72-.3a2.91,2.91,0,0,1-.64.18l.79-.11a2.57,2.57,0,0,1-.62,0l.79.11a2.64,2.64,0,0,1-.55-.15l.71.3a1.76,1.76,0,0,1-.42-.24l.61.47a2.65,2.65,0,0,1-.29-.29l.47.6a2.22,2.22,0,0,1-.21-.37l.3.72a2.75,2.75,0,0,1-.14-.49l.11.8a2.15,2.15,0,0,1,0-.62l-.11.8a3.13,3.13,0,0,1,.16-.6l-.3.72a2.9,2.9,0,0,1,.31-.54l-.47.61a2.59,2.59,0,0,1,.41-.4l-.61.47a2.2,2.2,0,0,1,.47-.27l-.72.3a2.91,2.91,0,0,1,.58-.15l-.8.11a2.81,2.81,0,0,1,.71,0l-.79-.11a2.73,2.73,0,0,1,.69.2l-.72-.31a2.59,2.59,0,0,1,.58.34l-.61-.47a2.27,2.27,0,0,1,.41.41l-.47-.61a2.62,2.62,0,0,1,.3.51l-.3-.72a3,3,0,0,1,.15.57l-.11-.79a2.25,2.25,0,0,1,0,.58l.11-.8a1.76,1.76,0,0,1-.12.45l.3-.72a1.58,1.58,0,0,1-.2.36l.46-.61a1,1,0,0,1-.23.23l.61-.47a1.09,1.09,0,0,1-.23.14l.72-.3a1.29,1.29,0,0,1-.28.08l.8-.11a.89.89,0,0,1-.28,0l.8.11a1.92,1.92,0,0,1-.32-.09l.72.3a1.62,1.62,0,0,1-.36-.21l.61.47a1.33,1.33,0,0,1-.26-.27l.47.61a1,1,0,0,1-.18-.31l.3.72a1,1,0,0,1-.07-.25l.11.8a.54.54,0,0,1,0-.18l-.11.79a.83.83,0,0,1,.06-.21l-.31.72a1,1,0,0,1,.11-.17l-.47.61.05-.06a3.15,3.15,0,0,0,.88-2.13,2.19,2.19,0,0,0-.26-1.15,2.28,2.28,0,0,0-.62-1,3,3,0,0,0-4.24,0Z" transform="translate(-78.43 -80.45)"/></g><path class="cls-16" d="M630.74,249a3.87,3.87,0,0,1,.85-1.85,2.59,2.59,0,0,1,1.41-1.21,3.84,3.84,0,0,1,1.92.45.5.5,0,0,0,.34,0,.53.53,0,0,0,.25-.2c.4-.47.73-1,1.14-1.47a2.68,2.68,0,0,1,1.57-.94,3.3,3.3,0,0,1,.94.05,25.72,25.72,0,0,1,3.35.75,3.15,3.15,0,0,1-1.4,1.37,27.29,27.29,0,0,1-5.9,3.11,27,27,0,0,1-2.68.69,3.39,3.39,0,0,1-1.48.11c.12.63.79,1,1.39,1.18a12.59,12.59,0,0,0,6.5.46,4.63,4.63,0,0,0,1.46-.47,4.25,4.25,0,0,0,1.93-2.61,12.6,12.6,0,0,0,.35-3.3" transform="translate(-78.43 -80.45)"/><path class="cls-17" d="M631.87,249a3,3,0,0,1,.64-1.21c.18-.26.44-.73.79-.76s1,.37,1.4.47a1.66,1.66,0,0,0,1.74-.64c.53-.65,1.1-1.9,2.06-1.94a7.09,7.09,0,0,1,1.71.27c.68.14,1.34.31,2,.5l-.67-1.65c-.34.75-1.24,1.13-1.91,1.55-.85.53-1.72,1-2.61,1.51a14.67,14.67,0,0,1-2.77,1.1c-.52.15-1,.28-1.57.39a3.79,3.79,0,0,1-1.33.22,1.14,1.14,0,0,0-1.38,1.38c.44,1.65,2.4,2.13,3.86,2.42a14.31,14.31,0,0,0,5.3,0,5.09,5.09,0,0,0,3.69-2.49,10.21,10.21,0,0,0,1-5,1.13,1.13,0,0,0-2.25,0,8.78,8.78,0,0,1-.51,3.56,2.92,2.92,0,0,1-2.3,1.72,11.34,11.34,0,0,1-3.81.1,12.21,12.21,0,0,1-1.88-.44c-.26-.08-.84-.21-.91-.5L630.76,251a9.42,9.42,0,0,0,3.75-.51,17.58,17.58,0,0,0,3.45-1.33,34,34,0,0,0,3-1.72,6,6,0,0,0,2.53-2.24,1.15,1.15,0,0,0-.67-1.66c-.81-.23-1.62-.43-2.45-.59a6.93,6.93,0,0,0-2.44-.21,3.69,3.69,0,0,0-1.93,1.1,8,8,0,0,0-.7.84,3.17,3.17,0,0,1-.6.79l.57-.15a2.63,2.63,0,0,1-.8-.28,3.59,3.59,0,0,0-1.07-.23,2.73,2.73,0,0,0-1.92.75,5.82,5.82,0,0,0-1.85,3.46,1.13,1.13,0,0,0,1.12,1.13,1.16,1.16,0,0,0,1.13-1.13Z" transform="translate(-78.43 -80.45)"/><path class="cls-18" d="M607.52,247.86a1.13,1.13,0,0,0,0-2.25,1.13,1.13,0,0,0,0,2.25Z" transform="translate(-78.43 -80.45)"/><path class="cls-18" d="M610.84,248.72a1.13,1.13,0,0,0,0-2.25,1.13,1.13,0,0,0,0,2.25Z" transform="translate(-78.43 -80.45)"/><path class="cls-18" d="M608.47,251.76a1.13,1.13,0,0,0,0-2.25,1.13,1.13,0,0,0,0,2.25Z" transform="translate(-78.43 -80.45)"/><path class="cls-18" d="M614.07,250.62a1.13,1.13,0,0,0,0-2.25,1.13,1.13,0,0,0,0,2.25Z" transform="translate(-78.43 -80.45)"/><path class="cls-18" d="M619.2,249.57a1.13,1.13,0,0,0,0-2.25,1.13,1.13,0,0,0,0,2.25Z" transform="translate(-78.43 -80.45)"/><path class="cls-18" d="M618.63,252a1.13,1.13,0,0,0,0-2.25,1.13,1.13,0,0,0,0,2.25Z" transform="translate(-78.43 -80.45)"/><path class="cls-18" d="M624.32,250.52a1.13,1.13,0,0,0,0-2.25,1.13,1.13,0,0,0,0,2.25Z" transform="translate(-78.43 -80.45)"/><path class="cls-18" d="M654,241.69a1.13,1.13,0,0,0,0-2.25,1.13,1.13,0,0,0,0,2.25Z" transform="translate(-78.43 -80.45)"/><path class="cls-18" d="M656.69,238.09a1.13,1.13,0,0,0,0-2.25,1.13,1.13,0,0,0,0,2.25Z" transform="translate(-78.43 -80.45)"/><path class="cls-18" d="M659.92,239.61a1.13,1.13,0,0,0,0-2.25,1.13,1.13,0,0,0,0,2.25Z" transform="translate(-78.43 -80.45)"/><path class="cls-18" d="M661.25,235a1.13,1.13,0,0,0,0-2.25,1.13,1.13,0,0,0,0,2.25Z" transform="translate(-78.43 -80.45)"/><path class="cls-18" d="M658.21,233.72a1.13,1.13,0,0,0,0-2.25,1.13,1.13,0,0,0,0,2.25Z" transform="translate(-78.43 -80.45)"/><path class="cls-18" d="M663.05,231.35a1.13,1.13,0,0,0,0-2.25,1.13,1.13,0,0,0,0,2.25Z" transform="translate(-78.43 -80.45)"/></g><rect class="cls-4" x="540.56" y="179.38" width="17.57" height="21.44"/><path class="cls-4" d="M577.42,291.78,570.17,295c-17.11,7.58-33.88,43.23-33.88,96.56s42.35,78.53,58.76,69.54c21.89-12-28.06-70.34-19.2-109.69.74-3.29,1.61-6.49,2.58-9.6Z" transform="translate(-78.43 -80.45)"/><path class="cls-4" d="M689.86,303.69l7.86-.24c18.58-.61,46.53-26.41,64.94-74.06S750.26,144,731.84,146.1c-24.56,2.83,1.9,72.94-20,104.91-1.82,2.67-3.74,5.22-5.71,7.64Z" transform="translate(-78.43 -80.45)"/><path class="cls-8" d="M699.33,303.63c2.33-6.49,4.66-13,6.83-19.53q1.61-4.85,3.07-9.74a89,89,0,0,1,2.93-9l-.76,1.8a23.43,23.43,0,0,1,1.37-2.69c.22-.37.45-.73.69-1.09s.33-.46.5-.68c-.75.95-.87,1.13-.38.52,1.21-1.39,2.47-2.75,3.66-4.16a57.61,57.61,0,0,0,7.29-11.52h-13q12,17.08,24.94,33.44l5.31-12.8a26.94,26.94,0,0,0-13,4.41,62.44,62.44,0,0,0-9.18,7.84c-1.3,1.3-2.6,2.59-4,3.8l-1,.82-.66.53c1-.74,1.13-.87.51-.41s-1.4,1-2.14,1.4c-1.63,1-3.37,1.71-5,2.69a50.27,50.27,0,0,1-5,3.12l1.79-.76c-3.83,1.56-8.33,1.68-12.39,2.24l-1.79.75a5.76,5.76,0,0,0-2.1,1.94,7.14,7.14,0,0,0-1.61,4.54,9,9,0,0,0,1,3.79,7.41,7.41,0,0,0,4.48,3.44,15.52,15.52,0,0,0,7.23-.34,27.55,27.55,0,0,1,4.1-1.1l-2,.27c4.6-.55,9.14-.62,13.5-2.4a36.76,36.76,0,0,0,11.86-7.8c2.67-2.57,5-5.44,7.61-8.09.66-.67,1.34-1.34,2-2,.35-.32.71-.63,1.07-.94s1.8-1.28-.09,0A29.47,29.47,0,0,1,742,283l-1.79.76c.64-.27,1.28-.5,1.94-.71,3.73-1.19,6.52-5.27,5.24-9.23-1.22-3.74-5.23-6.52-9.23-5.24-6.74,2.16-12,6.67-16.74,11.81-2,2.19-4,4.43-6.13,6.44-.5.47-1,.93-1.55,1.37l-.64.52.86-.67a4.58,4.58,0,0,1-1,.71,24.4,24.4,0,0,1-4.09,2.2l1.8-.75a26.34,26.34,0,0,1-6.23,1.68l2-.27c-2.5.31-5,.36-7.49.75-1.89.29-3.61,1.14-5.49,1.45l2-.27a7.1,7.1,0,0,1-1.22,0l2,.27-.42-.06v14.46c4.93-.67,10-.92,14.57-3.17,1.88-.94,3.48-2.34,5.32-3.37s3.76-1.88,5.51-3.05a73.88,73.88,0,0,0,10.49-9.18c.7-.67,1.39-1.34,2.11-2,.39-.35.79-.7,1.19-1l.61-.51-.57.44a48.43,48.43,0,0,1,5.13-3l-1.79.75A19.08,19.08,0,0,1,742.6,283l-2,.27c.41-.05.81-.09,1.22-.12a7.64,7.64,0,0,0,6.85-4.61,7.11,7.11,0,0,0,.51-3.89,8.23,8.23,0,0,0-2.06-4.31q-1.51-1.9-3-3.82l-1.49-1.92c1.34,1.7-.24-.32-.6-.79-2-2.64-4-5.28-6-8q-5.87-7.87-11.49-15.92a7.78,7.78,0,0,0-6.48-3.72,7.45,7.45,0,0,0-6.48,3.72c-.92,1.83-1.84,3.66-2.88,5.43-.51.85-1,1.68-1.61,2.49-.17.24-.34.51-.54.74,0,0,1-1.26.5-.66-.38.42-.73.87-1.11,1.29-3.09,3.5-6,6.87-7.86,11.22A130,130,0,0,0,694,272.93c-1.29,4.19-2.67,8.35-4.1,12.49-1.63,4.75-3.33,9.49-5,14.22-1.33,3.7,1.49,8.37,5.23,9.23a7.69,7.69,0,0,0,9.23-5.24Z" transform="translate(-78.43 -80.45)"/><path class="cls-8" d="M710.32,251.58l-.05.39.27-2a12,12,0,0,1-.62,2.2l.75-1.79a20.45,20.45,0,0,1-2.61,4.32c-.84,1.14,1.17-1.49.08-.1l-.85,1.09c-.82,1.06-1.66,2.12-2.42,3.22a48,48,0,0,0-5.76,11.86c-1.35,3.92-2.49,7.92-3.71,11.88s-2.43,7.79-3.35,11.76c-.72,3.14.45,6.89,3.45,8.47,2.83,1.5,6.82,1.37,9.09-1.17a40,40,0,0,0,7-12c1.43-3.53,2.6-7.15,4.08-10.66l-.75,1.79c3.44-8.08,8.08-15.42,12.92-22.71l-11.78,1.52c.29.22,1.5,1,1.53,1.44,0-.1-1-1.46-.43-.51a11.21,11.21,0,0,1,.58,1.08l-.75-1.8a2.5,2.5,0,0,1,.19.76l-.27-2,0,.38.27-2-.12.33.75-1.79c1-1.65.75-.93.23-.36l-.81.9c-.44.5-.87,1-1.28,1.55-1.23,1.54-2.43,3.11-3.51,4.75a65.54,65.54,0,0,0-4.37,7.86c-2.81,5.88-5.06,12-7.59,18l.76-1.79c-.89,2.11-1.82,4.2-2.83,6.25a8,8,0,0,0-.76,5.78,7.51,7.51,0,0,0,13.71,1.79l10.07-16.95c1.57-2.64,3.12-5.31,4.74-7.93.79-1.27,1.6-2.53,2.48-3.75a8.44,8.44,0,0,1,.66-.91l-.63.8c.14-.17.28-.35.43-.52.52-.64,1.06-1.26,1.63-1.87,2.67-2.88,3.06-7.8,0-10.61-2.91-2.66-7.76-3.07-10.61,0-4.64,5-7.94,11-11.4,16.8L698.4,292.79l13,7.57c3.08-6.28,5.48-12.86,8.2-19.3l-.76,1.79A76.5,76.5,0,0,1,726.05,269c.34-.49.7-1,1.05-1.45.54-.73-1.12,1.38-.31.41l.64-.77a32,32,0,0,0,3.33-4c2.86-4.81-.07-10.92-4.08-14.08-1.95-1.54-3.76-2.4-6.3-2.06a7.52,7.52,0,0,0-5.48,3.58,162,162,0,0,0-10.31,17c-3,6.07-5.1,12.46-7.7,18.7l.76-1.79a40.15,40.15,0,0,1-2,4.07c-.34.59-.7,1.17-1.09,1.74-.11.17-.23.33-.35.5-.34.46-.16.23.55-.7a10.3,10.3,0,0,0-.81.94l12.54,7.3c1-4.52,2.48-8.94,3.84-13.36s2.59-9.06,4.39-13.4l-.76,1.79a40.08,40.08,0,0,1,2.62-5.09c.54-.88,1.11-1.74,1.72-2.58.29-.39,1.29-1.62-.19.23.29-.36.57-.73.85-1.1a42.79,42.79,0,0,0,3.88-5.39,20.77,20.77,0,0,0,2.45-7.93c.24-1.75-1-4.11-2.19-5.3a7.5,7.5,0,0,0-10.61,0,8.88,8.88,0,0,0-2.2,5.3Z" transform="translate(-78.43 -80.45)"/><path class="cls-8" d="M723.08,269.07c-.39-.29-1.32-1.09-.45-.28.24.23.46.48.69.72.78.81-.47-.59-.44-.59a7.66,7.66,0,0,1,.62,1l4.48-11a21.47,21.47,0,0,0-8.88,6,36.74,36.74,0,0,0-5.25,8.43,76.53,76.53,0,0,1-4.07,7.9c-1.67,2.69-3.55,5.24-5.43,7.8a6.9,6.9,0,0,0-.89,4.78,7.13,7.13,0,0,0,2.07,4.3c2.33,2.15,6.29,3.11,9.09,1.18a26.73,26.73,0,0,0,7-7.41c.72-1,1.43-2.09,2.19-3.11l.41-.55-.61.8a7.7,7.7,0,0,1,.57-.71c.48-.6,1-1.18,1.47-1.76,1.79-2.09,3.68-4.1,5.57-6.1l3.12-3.3,1.49-1.57.66-.7.49-.53c.48-.49.19-.27-.87.67l-3.78,1,.32,0-3.78-1c-1-.85-1.25-1.06-.8-.63.16.14.31.29.46.44s.49.51.73.76c.47.52,1.91,2.56.53.55L729,274.4l.11.34v-4L729,271l.76-1.79a4.62,4.62,0,0,1,1.63-1.74q-.34.23-.69.42c-.47.26-1,.48-1.47.7l1.79-.76a51.87,51.87,0,0,0-5.92,2.57,23.86,23.86,0,0,0-5,3.94,100,100,0,0,0-6.65,8.14,8.16,8.16,0,0,0-2.2,5.3,7.61,7.61,0,0,0,2.2,5.3,7.52,7.52,0,0,0,5.3,2.2c1.86-.08,4.1-.67,5.31-2.2,1.79-2.26,3.53-4.59,5.42-6.78.4-.46.8-.91,1.23-1.35a6.43,6.43,0,0,1,1.49-1.37c-.42.18-1.41,1-.39.32.28-.19.57-.38.87-.55a15.52,15.52,0,0,1,1.84-.88l-1.79.75c2.9-1.19,5.65-2.18,8.08-4.19a8.21,8.21,0,0,0,2.73-8.32,12.52,12.52,0,0,0-3-4.93,24,24,0,0,0-2-2.13c-2.77-2.53-6.57-3.49-10-1.6-2.28,1.27-4,3.65-5.8,5.53-3.12,3.3-6.3,6.57-9.17,10.11-1.69,2.09-3.28,4.23-4.79,6.45l-.66,1-.46.63c.79-1,.94-1.2.46-.6-.34.38-.67.77-1,1.14l-.58.52c1-.76,1.22-.92.58-.47l10.27,10.26a83.42,83.42,0,0,0,8.92-14.47,48.88,48.88,0,0,1,3.7-6.92c.79-1.16-.9,1.06-.35.44.22-.24.42-.49.64-.73a14.16,14.16,0,0,1,1.24-1.21c.21-.18,1-.79,0,0s-.07.08.19-.08a11.89,11.89,0,0,1,1.74-.89l-1.79.75.37-.14a7.81,7.81,0,0,0,4.86-4.35,7.38,7.38,0,0,0-.38-6.67,20.51,20.51,0,0,0-5.8-6.22c-1.45-1.09-4.12-1.21-5.78-.76a7.52,7.52,0,0,0-5.24,9.23,8.75,8.75,0,0,0,3.45,4.48Z" transform="translate(-78.43 -80.45)"/><path class="cls-8" d="M572.66,286.93l-2.39-.12,5.3,19.56.8-.37-2.51,1.06a15.68,15.68,0,0,1,3.36-.94L563.93,296l1.49,25.64c.44,7.4,1.4,15,.49,22.42l.37-2.79a25.94,25.94,0,0,1-1.68,6.56l1.06-2.5a18.84,18.84,0,0,1-2.22,3.87l1.64-2.13c-.23.3-.47.59-.72.88h14.85c-4.14-4.69-8.83-8.85-15-10.62-5.77-1.67-12-1.1-18-1.86l2.79.38a75.71,75.71,0,0,1-12.8-2.88l2.5,19.19c8-4.52,12.61-12.53,16.39-20.6,1.9-4.07,3.88-8.09,6-12a83.46,83.46,0,0,1,7-11.46l-1.64,2.13a22.18,22.18,0,0,1,3.48-3.57l-2.12,1.64a16.21,16.21,0,0,1,3.51-2.05l-2.51,1.06a14,14,0,0,1,3.11-.82l-2.79.38a11.93,11.93,0,0,1,2.39,0l-2.79-.37c.4.06.78.13,1.18.22l-6.28-15.42L534.6,335.87c-4.36,6.71,1.37,15.91,9.07,15.8a69.2,69.2,0,0,1,9.76.57l-2.8-.38A67.78,67.78,0,0,1,566.36,356c2.28.91,6.09.24,8.09-1.06a10.85,10.85,0,0,0,4.3-5c2.08-4.94.12-10.21-4.3-13.11-4.82-3.16-9.6-6.42-14.18-9.91l2.13,1.64a7.2,7.2,0,0,1-1-1l1.64,2.12a2.49,2.49,0,0,1-.31-.58l1.06,2.51-.08-.32.38,2.79,0-.34-.37,2.8a1.61,1.61,0,0,1,.17-.65l-1.06,2.5a2.65,2.65,0,0,1,.37-.57l-1.65,2.12c1.49-1.73,3.18-3.25,4.6-5a64.32,64.32,0,0,0,5.36-7.57,55.72,55.72,0,0,0,6-15.11l-19.19,2.51.17.39-1.06-2.51a10.56,10.56,0,0,1,.63,2.41l-.38-2.79a15.91,15.91,0,0,1-.07,3.38l.37-2.79c-.28,2-.82,4-1.27,6a58,58,0,0,0-1.23,8.29,48.42,48.42,0,0,0,1.3,14.83L569.72,329l-.33-.13,2.5,1.06a11.66,11.66,0,0,1-2.48-1.45l2.13,1.65a12.55,12.55,0,0,1-1.78-1.79l1.64,2.12A11.84,11.84,0,0,1,570,328l1.06,2.51a13.13,13.13,0,0,1-.53-1.72L552.93,339l8.25,7.86A10.59,10.59,0,0,0,572.65,349a10.05,10.05,0,0,0,4.2-3.24,11.15,11.15,0,0,0,2.25-6.36q.85-9.66,1-19.36h-21l1.77,23.9a11.21,11.21,0,0,0,3.08,7.43,10.51,10.51,0,0,0,14.85,0c1.8-2,3.28-4.67,3.07-7.43L580.07,320a11.19,11.19,0,0,0-3.08-7.43A10.5,10.5,0,0,0,559.07,320q-.12,9.69-1,19.36L576,332l-8.25-7.86c-3.26-3.1-8.77-4.19-12.72-1.64a10.92,10.92,0,0,0-4.83,11.86,21,21,0,0,0,13.91,14.9c3.41,1.3,7.76-.24,10.22-2.7a10.74,10.74,0,0,0,2.7-10.22c-.29-1.21-.51-2.43-.69-3.66l.37,2.79a39.81,39.81,0,0,1,0-10.23l-.38,2.79c.41-3,1.31-5.83,1.8-8.78a28.66,28.66,0,0,0,.63-6.4,22.38,22.38,0,0,0-2.28-8.73L574.84,302l-2.13-1.64a10.68,10.68,0,0,0-15.42,6.28,47.48,47.48,0,0,1-2.41,7.44l1.06-2.51a47.1,47.1,0,0,1-5.79,9.95l1.64-2.12c-1.54,2-3.33,3.69-5,5.56a12.82,12.82,0,0,0-3.53,10.51,12.47,12.47,0,0,0,4.28,7.93,178.39,178.39,0,0,0,16.3,11.55l8.09-19.19a74.59,74.59,0,0,0-28.27-5.06l9.07,15.8,29.06-44.62c3.62-5.57.11-13.92-6.28-15.43a22.33,22.33,0,0,0-17.12,2.88,35.42,35.42,0,0,0-10.68,11.44,203.37,203.37,0,0,0-11.27,21.43,55.11,55.11,0,0,1-5.74,10l1.64-2.13a23.68,23.68,0,0,1-4.13,4.18l2.12-1.64a22.54,22.54,0,0,1-2.18,1.41,10.57,10.57,0,0,0,2.51,19.19,76,76,0,0,0,12.81,2.88c2.95.4,5.89.77,8.87.91,2.09.1,4.18.13,6.27.37l-2.79-.37a18.72,18.72,0,0,1,4.29,1.07L557.61,357a16.92,16.92,0,0,1,3.44,2l-2.13-1.64a40.82,40.82,0,0,1,5.44,5.4c3.56,4,11.32,4.12,14.85,0A30.52,30.52,0,0,0,586,349.67a53.59,53.59,0,0,0,1.19-12.82c-.16-8.52-.91-17.06-1.41-25.57L584.93,296a10.61,10.61,0,0,0-4.14-8.25,8,8,0,0,0-3.57-1.88,10.57,10.57,0,0,0-5.58,0,24.47,24.47,0,0,0-6.67,2.37l-2.12,1.64a7.88,7.88,0,0,0-2.17,3.38,10.07,10.07,0,0,0-.53,6.84,10.93,10.93,0,0,0,10.12,7.71l2.39.12c5.49.29,10.74-5,10.5-10.5a10.74,10.74,0,0,0-10.5-10.5Z" transform="translate(-78.43 -80.45)"/><path class="cls-8" d="M578.05,294a2,2,0,0,0-.08-2.8,2.8,2.8,0,0,0-2.47-.52l-4.23.57a1.63,1.63,0,0,0-1.06.44,1.61,1.61,0,0,0-.41.86,1.49,1.49,0,0,0,1.08,1.65,12.19,12.19,0,0,0,2.83.21,7,7,0,0,0,1.5-.28c.39-.12.76-.27,1.15-.38l.28-.06c.18-.06-.29,0,0,0,.08,0,.32,0,.09,0s-.91-1.15-.82-.64.17.83.23,1.26c0,.16.05.23,0,0,0,.12,0,.25,0,.37l.06.62c0,.46.06.91.06,1.37a1.5,1.5,0,0,0,3,0,24.38,24.38,0,0,0-.28-3.19,9,9,0,0,0-.25-1.36,2,2,0,0,0-1.94-1.44,10.26,10.26,0,0,0-2.82.67,1.36,1.36,0,0,1-.35.07h-.08a5.93,5.93,0,0,1-.73,0c-.25,0-.49,0-.73-.07l-.17,0-.29,0-.4,2.95,3.1-.41,1.51-.21.31,0h.15c.14,0,.14,0,0,0a1,1,0,0,1-.53-.32,1.06,1.06,0,0,1,.12-1.38,1.5,1.5,0,0,0,2.12,2.12Z" transform="translate(-78.43 -80.45)"/><path class="cls-8" d="M573.86,285.06c12.19-.05,24-3.71,36.09-5.2a102,102,0,0,1,16.76-.69c5.66.23,11.29.94,16.9,1.64l40.73,5.08c3.39.42,7.63,1.61,7.93,4.74.2,2.15-1.69,3.91-2.94,5.73-2.68,3.93-2.57,8.88-2.35,13.52q1.15,24.44,3.3,48.82c.7,8,1.48,16.07.32,24s-4.48,15.9-10.83,21.42c-7.32,6.36-19.13,5.89-28.94,8-4.85,1.05-8.11-.94-13.09-1.09-7.87-.24-15.41,2.38-23.19,1.25-8.86-1.29-17.75-2.71-24.81-7.8-6.41-4.62-6.52-10-7.63-17.45-.83-5.49-4.23-11.15-3.75-16.67.59-6.87,3.16-13.45,4.58-20.21a123.21,123.21,0,0,0,2-17.14l1.33-20.19c.37-5.6.73-11.33-1-16.72s-5.94-10.44-11.86-11.83Z" transform="translate(-78.43 -80.45)"/><g class="cls-19"><path class="cls-20" d="M527.11,335.69c6.86,4.48,13.61,9.27,20.75,13.3a47.67,47.67,0,0,0,10.32,4.47c3.81,1.06,7.77,1.43,11.56,2.53,3.55,1,7,2.85,8.94,6.16a1.5,1.5,0,0,0,2.59-1.52c-3.83-6.69-11.8-7.85-18.67-9.22a42.2,42.2,0,0,1-11.27-4c-3.52-1.83-6.83-4-10.15-6.17l-12.55-8.19c-1.63-1.06-3.13,1.54-1.52,2.59Z" transform="translate(-78.43 -80.45)"/></g><g class="cls-19"><path class="cls-20" d="M522.31,342.63c1.27,3.55,4.23,5.81,7.65,7.14,4.08,1.59,8.55,1.49,12.73,2.67A57.76,57.76,0,0,1,548.9,355a40.42,40.42,0,0,0,6,1.59c2.23.54,3.49,1.75,5,3.39a21.87,21.87,0,0,0,4.56,3.74,22.19,22.19,0,0,0,12.78,3.23c1.92-.11,1.94-3.11,0-3a19.4,19.4,0,0,1-10.59-2.42,18.67,18.67,0,0,1-4.34-3.37c-1.36-1.4-2.57-2.88-4.39-3.71a27.74,27.74,0,0,0-5.39-1.4,33.17,33.17,0,0,1-5.77-2.25c-3.95-1.74-8.09-2-12.28-2.85-3.62-.71-7.95-2.29-9.32-6.09-.65-1.81-3.55-1-2.89.79Z" transform="translate(-78.43 -80.45)"/></g><g class="cls-19"><path class="cls-20" d="M604,324.75l15,.49c4.77.15,9.6.31,14.12,2s8.31,4.28,12.91,5.42a39,39,0,0,0,13.32.7,110.35,110.35,0,0,0,15.68-3.1c1.87-.47,1.08-3.36-.8-2.89-8.76,2.21-18.18,4.6-27.19,2.45-4.45-1.06-8.29-3.52-12.49-5.22-4.41-1.79-9.19-2.15-13.9-2.32-5.56-.2-11.13-.36-16.69-.54-1.94-.07-1.93,2.93,0,3Z" transform="translate(-78.43 -80.45)"/></g><g class="cls-19"><path class="cls-20" d="M601.88,318q8.13-.06,16.25,0c5.19,0,10.61-.3,15.68,1,4.75,1.24,9.14,3.6,14,4.62,5.05,1.06,10.23.57,15.28-.25A90.05,90.05,0,0,0,679.72,319c1.79-.66,1-3.56-.8-2.89a90.29,90.29,0,0,1-14.6,4.05c-5,.93-10.28,1.67-15.32.7-4.77-.91-9.11-3.21-13.75-4.53-4.93-1.39-10.09-1.24-15.15-1.28q-9.12-.09-18.22,0a1.5,1.5,0,0,0,0,3Z" transform="translate(-78.43 -80.45)"/></g><g class="cls-19"><path class="cls-20" d="M597.77,309.62c11.68-1.14,23.41-.51,35.08.37,11.34.85,22.8,2.16,34.18,1.74,5.46-.2,11.06-1.13,15.66-4.26,1.58-1.08.08-3.68-1.52-2.59-4,2.72-8.76,3.6-13.52,3.82a154.64,154.64,0,0,1-16.25-.35c-11.39-.67-22.75-1.91-34.16-2.26a152.47,152.47,0,0,0-19.47.53c-1.9.19-1.92,3.19,0,3Z" transform="translate(-78.43 -80.45)"/></g><g class="cls-19"><path class="cls-20" d="M598.29,299.3c10.37-.4,20.74-.7,31,1.24a129.16,129.16,0,0,0,15.15,2.19,109.2,109.2,0,0,0,15.56-.15c5.86-.43,11.71-1,17.56-1.54,1.91-.18,1.93-3.18,0-3-10.35.93-20.78,2.31-31.19,1.8a108.63,108.63,0,0,1-15.34-2,98.8,98.8,0,0,0-15.25-1.76c-5.83-.21-11.65,0-17.47.24-1.93.07-1.94,3.07,0,3Z" transform="translate(-78.43 -80.45)"/></g><g class="cls-19"><path class="cls-20" d="M594.43,290.39a99.41,99.41,0,0,1,32.26,2.12c2.65.62,5.27,1.36,7.86,2.19a69.16,69.16,0,0,0,7.51,2.43,23.22,23.22,0,0,0,8.06-.12c2.85-.41,5.68-.81,8.55-1.07a128,128,0,0,1,19.09-.28c1.93.11,1.92-2.89,0-3a127.32,127.32,0,0,0-17.14.12c-2.74.21-5.47.51-8.2.88s-5.55,1-8.35.75-5.28-1.45-7.84-2.31-5-1.57-7.61-2.21a103.45,103.45,0,0,0-16-2.63,101.06,101.06,0,0,0-18.16.13c-1.9.19-1.92,3.19,0,3Z" transform="translate(-78.43 -80.45)"/></g><g class="cls-19"><path class="cls-20" d="M593.79,286.33a80.37,80.37,0,0,1,31-1.46c5.21.78,10.19,2.36,15.32,3.51a52.32,52.32,0,0,0,15.74.94,146.46,146.46,0,0,0,17.67-2.86c1.89-.38,1.09-3.27-.79-2.89-10.44,2.14-21.23,4.29-31.82,1.92-5.13-1.15-10.11-2.73-15.32-3.51a83.74,83.74,0,0,0-15.42-.92A84.93,84.93,0,0,0,593,283.43c-1.87.46-1.08,3.36.8,2.9Z" transform="translate(-78.43 -80.45)"/></g><g class="cls-19"><path class="cls-20" d="M364.84,493.37a1.5,1.5,0,0,0,0-3,1.5,1.5,0,0,0,0,3Z" transform="translate(-78.43 -80.45)"/></g><g class="cls-19"><path class="cls-20" d="M534.6,328.24c3.31.43,5.4,4.27,7.59,6.41,3.21,3.16,7.75,4.79,11.8,6.58a259.48,259.48,0,0,0,27.4,10.29c1.84.57,2.63-2.32.8-2.9a250.68,250.68,0,0,1-28-10.56c-4-1.81-8.07-3.43-11.08-6.77-2.44-2.72-4.69-5.55-8.53-6.05-1.91-.24-1.89,2.76,0,3Z" transform="translate(-78.43 -80.45)"/></g><g class="cls-19"><path class="cls-20" d="M583.33,341.09l-25.19-10.91L552,327.5a51.81,51.81,0,0,1-5.61-2.59c-3.17-1.85-4.33-5.55-7.18-7.75a1.55,1.55,0,0,0-2.12,0,1.51,1.51,0,0,0,0,2.12c2.82,2.18,4.07,5.72,7.06,7.77a33.11,33.11,0,0,0,5.65,2.74l6.41,2.78,25.64,11.11c1.75.76,3.28-1.82,1.52-2.59Z" transform="translate(-78.43 -80.45)"/></g><g class="cls-19"><path class="cls-20" d="M541.63,312.53c3.23,1.56,5,4.82,7.21,7.51a16.54,16.54,0,0,0,9.95,5.87c4.24.91,8.4,1.56,12.4,3.35a38.24,38.24,0,0,1,10.58,7.06c1.4,1.33,3.53-.79,2.12-2.12a40.88,40.88,0,0,0-10.81-7.36,51.73,51.73,0,0,0-12.25-3.58,19.13,19.13,0,0,1-6.31-2,14.3,14.3,0,0,1-3.78-3.58c-2.25-2.85-4.21-6.08-7.6-7.71-1.73-.84-3.25,1.75-1.51,2.59Z" transform="translate(-78.43 -80.45)"/></g><g class="cls-19"><path class="cls-20" d="M546.79,304.59a46.12,46.12,0,0,1,18.64,11.32c2.41,2.42,4.62,5,8,6,2.71.79,6.26.54,8.25,2.85,1.26,1.46,3.37-.67,2.12-2.12-2.18-2.54-5.54-2.69-8.58-3.37-3.65-.83-5.71-3.54-8.28-6a49.54,49.54,0,0,0-19.37-11.52c-1.84-.59-2.63,2.31-.8,2.9Z" transform="translate(-78.43 -80.45)"/></g><g class="cls-19"><path class="cls-20" d="M552.14,294.31a40.77,40.77,0,0,0,7.55,5.91c2.54,1.54,5.4,2.72,7.59,4.78s3.59,4.39,6.41,5.53,5.9.93,8.84.66c1.91-.17,1.93-3.17,0-3-2.62.24-5.58.57-8-.56s-3.9-3.88-6-5.56a60,60,0,0,0-7.07-4.33,37.21,37.21,0,0,1-7.13-5.55c-1.38-1.36-3.5.76-2.12,2.12Z" transform="translate(-78.43 -80.45)"/></g><g class="cls-19"><path class="cls-20" d="M557.92,291.33A42.25,42.25,0,0,1,569.35,299a14.56,14.56,0,0,0,5.45,3.54,11.52,11.52,0,0,0,6.68.1,1.5,1.5,0,0,0-.8-2.89,8.62,8.62,0,0,1-5.75-.35c-1.93-.83-3.32-2.46-4.87-3.82a43.94,43.94,0,0,0-10.62-6.85c-1.75-.79-3.27,1.79-1.52,2.59Z" transform="translate(-78.43 -80.45)"/></g><g class="cls-19"><path class="cls-20" d="M565.84,288.14a37.07,37.07,0,0,1,8.48,5.45c2.53,2.18,5.29,5.67,9,3.78,1.72-.87.2-3.46-1.52-2.59-1.16.59-2.47-.6-3.24-1.34-1.11-1-2.22-2.08-3.41-3a40.52,40.52,0,0,0-7.82-4.86,1.55,1.55,0,0,0-2.05.54,1.51,1.51,0,0,0,.54,2.05Z" transform="translate(-78.43 -80.45)"/></g><g class="cls-19"><path class="cls-20" d="M688.39,289.45a2.32,2.32,0,0,1,2.5,2.73,6.38,6.38,0,0,1-1.29,2.2,8.38,8.38,0,0,0-1.22,2.56,24.17,24.17,0,0,0-.63,5.81,15.11,15.11,0,0,0,.94,6,1.56,1.56,0,0,0,1.85,1.05,1.51,1.51,0,0,0,1-1.85,14.66,14.66,0,0,1-.76-6.64,18.37,18.37,0,0,1,.41-3.4,7.64,7.64,0,0,1,1.42-2.65,5.69,5.69,0,0,0,.73-5.9,5.35,5.35,0,0,0-5-2.91c-1.93.08-1.94,3.08,0,3Z" transform="translate(-78.43 -80.45)"/></g><g class="cls-19"><path class="cls-20" d="M692.6,280.28c5.44,8.11,5.15,17.81,4.68,27.17-.1,1.93,2.9,1.92,3,0,.49-9.88.64-20.14-5.09-28.69-1.07-1.59-3.67-.09-2.59,1.52Z" transform="translate(-78.43 -80.45)"/></g><g class="cls-19"><path class="cls-20" d="M695.67,270c8.35,10.11,8.42,24,7.79,36.42-.1,1.93,2.9,1.92,3,0,.68-13.34.26-27.74-8.67-38.54-1.23-1.49-3.34.64-2.12,2.12Z" transform="translate(-78.43 -80.45)"/></g><g class="cls-19"><path class="cls-20" d="M698.93,260.5c6.25,4.26,8.72,11.84,9.91,19a201.62,201.62,0,0,1,2.28,25.37c.07,1.93,3.07,1.94,3,0a196.32,196.32,0,0,0-2.54-27.07c-1.39-7.67-4.48-15.32-11.13-19.85-1.6-1.09-3.1,1.5-1.52,2.59Z" transform="translate(-78.43 -80.45)"/></g><g class="cls-19"><path class="cls-20" d="M704,252.68,713,265c2.49,3.37,5.15,6.84,6.54,10.85,2.87,8.28-2.44,16.93,1,25.13.76,1.77,3.34.24,2.59-1.52-1.71-4-.68-8.63-.12-12.78s.67-8.37-.91-12.41-4.05-7.39-6.56-10.79l-9.08-12.31c-1.14-1.54-3.74,0-2.59,1.51Z" transform="translate(-78.43 -80.45)"/></g><g class="cls-19"><path class="cls-20" d="M709.69,246.18c4.44,1.29,7.4,4.32,9.68,8.23,1.23,2.1,2.41,4.23,3.61,6.35s2.65,4.38,3.72,6.68c2,4.39.57,9.18.18,13.76-.34,4,.17,8.11,2.94,11.16,1.3,1.43,3.42-.69,2.12-2.12-2.16-2.38-2.31-5.8-2.08-8.85.3-3.7,1.24-7.34.75-11.06-.51-3.92-2.88-7.28-4.79-10.65s-3.68-7.05-6.08-10.15a18,18,0,0,0-9.26-6.24,1.5,1.5,0,0,0-.79,2.89Z" transform="translate(-78.43 -80.45)"/></g><g class="cls-19"><path class="cls-20" d="M714.85,238.4l8.4,9.11c2.48,2.69,5,5.33,7.26,8.22a26.24,26.24,0,0,1,4.83,8.88c1,3.49.42,6.83-.32,10.31-.83,3.91-1.5,7.82.23,11.6.8,1.75,3.39.23,2.59-1.52-1.52-3.32-.36-7.16.34-10.54a22.16,22.16,0,0,0,.11-10.46c-1.83-6.8-7-12.15-11.6-17.18L717,236.28c-1.31-1.42-3.43.7-2.12,2.12Z" transform="translate(-78.43 -80.45)"/></g><g class="cls-19"><path class="cls-20" d="M742.26,268.45a72.42,72.42,0,0,1,1.81,13.27c.08,1.93,3.08,1.94,3,0a76,76,0,0,0-1.92-14.07c-.43-1.88-3.33-1.09-2.89.8Z" transform="translate(-78.43 -80.45)"/></g><path class="cls-2" d="M576.41,284.48c3.77,1.35,6.39,4.93,7.59,8.75s1.21,7.9,1.21,11.9l0,21.62c0,7.62,0,15.34-2.07,22.67-1.5,5.39-4.07,10.48-5.2,16-2.65,12.78,2.79,25.8,9.16,37.18a20.53,20.53,0,0,0,4.82,6.38,18.38,18.38,0,0,0,4.92,2.54c18,6.83,37.92,5.29,57.09,3.65,8.89-.76,18.38-1.76,25.28-7.43,6.23-5.13,9.2-13.18,11.32-21S694.13,371,693,363c-.64-4.48-2.14-8.8-2.7-13.29s-.21-8.77-.36-13.16c-.39-11.94-4.29-24.17-.72-35.57.76-2.44,1.86-4.79,2.26-7.32s0-5.37-1.9-7.12a9.8,9.8,0,0,0-5.06-2.08,44.57,44.57,0,0,0-10.82-.66,82.28,82.28,0,0,1,.62,42.6,3.52,3.52,0,0,1-1.1,2.1,3.56,3.56,0,0,1-1.53.51l-21.38,3.66a36.09,36.09,0,0,1-9.87.77c-5.53-.59-10.44-3.67-15.76-5.31a31,31,0,0,0-14.09-.94c-1.86.31-3.93.74-5.49-.32a5.53,5.53,0,0,1-1.61-2c-3.36-6-2.75-13.4-3.55-20.27a47.18,47.18,0,0,0-4.8-15.86c-1.2-2.38-2.7-4.74-5-6.12-3.78-2.29-8.61-1.32-12.91-.27-.82.2-1.62,1.51-.78,1.56Z" transform="translate(-78.43 -80.45)"/><path class="cls-21" d="M607.86,349.87a104.13,104.13,0,0,1,.55,35.74L628,385.2a168.91,168.91,0,0,1,20.5.41c4.3.43,8.6,1.2,12.93,1.05s8.8-1.34,12-4.3a5,5,0,0,0,1.47-2.11,5.94,5.94,0,0,0,.08-2.34l-2.68-28.66a6.49,6.49,0,0,0-1.3-4,6,6,0,0,0-2.88-1.43c-9.82-2.66-20.24-1.42-30.24.41s-20,4.26-30.19,3.93a1.61,1.61,0,0,0-.1,1.85Z" transform="translate(-78.43 -80.45)"/><path class="cls-7" d="M610.25,350.89v4.17a.38.38,0,0,0,.75,0v-4.17a.38.38,0,0,0-.75,0Z" transform="translate(-78.43 -80.45)"/><path class="cls-7" d="M611,358a4.2,4.2,0,0,0,.41,2.56.37.37,0,1,0,.64-.37,2.62,2.62,0,0,1-.19-.46,3.53,3.53,0,0,1-.13-.54v-.06c0-.05,0-.11,0-.16s0-.18,0-.28,0-.18,0-.27,0-.08,0-.12,0-.05,0-.08v0a.38.38,0,0,0-.26-.46.37.37,0,0,0-.46.26Z" transform="translate(-78.43 -80.45)"/><path class="cls-7" d="M611,365.67v4.17a.38.38,0,0,0,.75,0v-4.17a.38.38,0,0,0-.75,0Z" transform="translate(-78.43 -80.45)"/><path class="cls-7" d="M611,374v1.9a.38.38,0,0,0,.75,0V374a.38.38,0,0,0-.75,0Z" transform="translate(-78.43 -80.45)"/><path class="cls-7" d="M611,379.41a6.2,6.2,0,0,1-.33,3.22.38.38,0,0,0,.73.2,7,7,0,0,0,.32-3.62.37.37,0,0,0-.46-.26.39.39,0,0,0-.26.46Z" transform="translate(-78.43 -80.45)"/><path class="cls-7" d="M667.85,347.1v4.17a.38.38,0,0,0,.75,0V347.1a.38.38,0,0,0-.75,0Z" transform="translate(-78.43 -80.45)"/><path class="cls-7" d="M669,355.44v3.41a.38.38,0,0,0,.75,0v-3.41a.38.38,0,0,0-.75,0Z" transform="translate(-78.43 -80.45)"/><path class="cls-7" d="M669.35,362.64a11.76,11.76,0,0,0,.8,5,.39.39,0,0,0,.46.27.38.38,0,0,0,.27-.46,11.37,11.37,0,0,1-.78-4.82c0-.49-.72-.48-.75,0Z" transform="translate(-78.43 -80.45)"/><path class="cls-7" d="M670.88,371.73a7.89,7.89,0,0,0,.39,3.51.38.38,0,0,0,.46.26A.37.37,0,0,0,672,375a7.45,7.45,0,0,1-.36-3.31c0-.2-.19-.37-.37-.37a.39.39,0,0,0-.38.37Z" transform="translate(-78.43 -80.45)"/><path class="cls-7" d="M671.2,378.68a3.22,3.22,0,0,1-.54,3.06.39.39,0,0,0,0,.53.38.38,0,0,0,.53,0,4,4,0,0,0,.73-3.79.37.37,0,1,0-.72.2Z" transform="translate(-78.43 -80.45)"/><circle class="cls-7" cx="516.77" cy="252.09" r="4.36"/><circle class="cls-7" cx="604.04" cy="249.9" r="4.36"/><path class="cls-7" d="M746,846.78a53.13,53.13,0,0,0,14.78-.85,1.51,1.51,0,0,0,1-1.84A1.54,1.54,0,0,0,760,843a50.52,50.52,0,0,1-14,.74,1.51,1.51,0,0,0-1.5,1.5,1.53,1.53,0,0,0,1.5,1.5Z" transform="translate(-78.43 -80.45)"/><path class="cls-7" d="M767.76,844.71a27.07,27.07,0,0,0,13-2.54,1.52,1.52,0,0,0,.54-2,1.54,1.54,0,0,0-2.05-.54,24,24,0,0,1-11.54,2.13,1.5,1.5,0,0,0,0,3Z" transform="translate(-78.43 -80.45)"/><path class="cls-7" d="M788.87,841.91a33.54,33.54,0,0,0,12.67-1.44c1.84-.58,1.05-3.47-.8-2.89a31.16,31.16,0,0,1-11.87,1.33,1.52,1.52,0,0,0-1.5,1.5,1.54,1.54,0,0,0,1.5,1.5Z" transform="translate(-78.43 -80.45)"/><path class="cls-7" d="M807.85,838.11a33.22,33.22,0,0,0,9.54-2.11,1.5,1.5,0,0,0-.8-2.89,32.51,32.51,0,0,1-4.41,1.35,28.14,28.14,0,0,1-4.33.65,1.5,1.5,0,0,0,0,3Z" transform="translate(-78.43 -80.45)"/><path class="cls-7" d="M824.2,833.24l13.37-3.18c1.87-.44,1.08-3.34-.8-2.89l-13.36,3.18c-1.88.45-1.09,3.34.79,2.89Z" transform="translate(-78.43 -80.45)"/><path class="cls-7" d="M843.77,828.92q6.45-1.3,12.8-3a1.5,1.5,0,0,0-.8-2.89q-6.35,1.69-12.8,3a1.5,1.5,0,1,0,.8,2.9Z" transform="translate(-78.43 -80.45)"/><path class="cls-7" d="M862.92,826a42.22,42.22,0,0,0,8-.3,1.63,1.63,0,0,0,1.06-.43,1.52,1.52,0,0,0,.44-1.07c0-.72-.66-1.61-1.5-1.5a42.22,42.22,0,0,1-8,.3,1.5,1.5,0,0,0,0,3Z" transform="translate(-78.43 -80.45)"/><path class="cls-7" d="M877,825.12h10.09a1.5,1.5,0,0,0,0-3H877a1.5,1.5,0,0,0,0,3Z" transform="translate(-78.43 -80.45)"/><path class="cls-7" d="M509.54,849.53h12.38a1.5,1.5,0,0,0,0-3H509.54a1.5,1.5,0,0,0,0,3Z" transform="translate(-78.43 -80.45)"/><path class="cls-7" d="M527.62,849.55c3.63-.1,7.27-.07,10.9.08a1.5,1.5,0,0,0,0-3c-3.63-.15-7.27-.18-10.9-.08a1.5,1.5,0,0,0,0,3Z" transform="translate(-78.43 -80.45)"/><path class="cls-7" d="M545,850.07a45.34,45.34,0,0,1,10.73.46,1.55,1.55,0,0,0,1.85-1,1.51,1.51,0,0,0-1-1.84,48.41,48.41,0,0,0-11.53-.57,1.54,1.54,0,0,0-1.5,1.5,1.51,1.51,0,0,0,1.5,1.5Z" transform="translate(-78.43 -80.45)"/><path class="cls-7" d="M562.54,850.48a41.25,41.25,0,0,0,11.78-.83,1.5,1.5,0,0,0-.8-2.89,38.55,38.55,0,0,1-11,.72,1.5,1.5,0,0,0,0,3Z" transform="translate(-78.43 -80.45)"/><path class="cls-7" d="M580.37,850.79c3.64-.11,7.27-.08,10.91.09a1.51,1.51,0,0,0,1.5-1.5,1.53,1.53,0,0,0-1.5-1.5c-3.64-.17-7.27-.2-10.91-.09a1.5,1.5,0,1,0,0,3Z" transform="translate(-78.43 -80.45)"/><path class="cls-7" d="M597.08,852.06a48.2,48.2,0,0,0,13.25.11,1.55,1.55,0,0,0,1.5-1.5c0-.73-.69-1.61-1.5-1.5a45.94,45.94,0,0,1-12.45,0,1.57,1.57,0,0,0-1.85,1.05,1.51,1.51,0,0,0,1.05,1.84Z" transform="translate(-78.43 -80.45)"/><path class="cls-7" d="M616.78,853h10.15a1.5,1.5,0,0,0,0-3H616.78a1.5,1.5,0,0,0,0,3Z" transform="translate(-78.43 -80.45)"/><path class="cls-7" d="M633.62,853.27q6.07-.21,12.14.16a1.5,1.5,0,0,0,0-3q-6.06-.37-12.14-.16a1.5,1.5,0,1,0,0,3Z" transform="translate(-78.43 -80.45)"/><path class="cls-7" d="M652.44,853.74h9.66a1.51,1.51,0,0,0,1.5-1.5,1.53,1.53,0,0,0-1.5-1.5h-9.66a1.5,1.5,0,0,0,0,3Z" transform="translate(-78.43 -80.45)"/></svg>
