<svg xmlns="http://www.w3.org/2000/svg" viewBox="0 0 77.34 798"><defs><style>.cls-1{fill:#dcbb67;}.cls-2{fill:#cbbdc1;}.cls-3{fill:#6a7e6f;}.cls-4{fill:#505e53;}.cls-5{fill:#cc9f82;}.cls-6{fill:#bb9d8d;}.cls-7{fill:#f2a480;}.cls-8{fill:#9f5023;}.cls-9{fill:#efb85a;}.cls-10{fill:#be7643;}</style></defs><g id="Layer_2" data-name="Layer 2"><g id="Layer_1-2" data-name="Layer 1"><rect class="cls-1" width="23" height="798"/><rect class="cls-2" x="19" width="33" height="798"/><path class="cls-3" d="M5.62,691.76c.61-6.6,1.28-13.43,4.57-19.19a37.17,37.17,0,0,1,6-7.51c3.25-3.28,7-6.44,11.61-7a6.82,6.82,0,0,1,4.36.67,3.74,3.74,0,0,1,1.9,3.77,20.17,20.17,0,0,1,7.2-2.33,5.08,5.08,0,0,1,2.84.26,2.07,2.07,0,0,1,1.2,2.36l5.9-.89a7,7,0,0,1,4.12.22c1.26.62,2,2.39,1.12,3.46a17.25,17.25,0,0,1,6.27-.87A6.08,6.08,0,0,1,67.81,668a1.65,1.65,0,0,1,.08,1.32,2,2,0,0,1-.91.76,105.31,105.31,0,0,1-10.85,4.86c.3,2.64-1.58,5.14-3.92,6.4s-5.06,1.53-7.7,1.79A6.48,6.48,0,0,1,36,687.18a4.52,4.52,0,0,0-1.92-.62c-1.22.06-1.94,1.33-2.81,2.18-2.07,2-5.46,1.81-8.21.87s-5.38-2.45-8.28-2.56a9,9,0,0,0-7.65,3.84,1.51,1.51,0,0,1-.71.68c-.32.09-.74-.23-.6-.53"/><path class="cls-4" d="M6,691.76a73.11,73.11,0,0,1,1.85-12.33,28.06,28.06,0,0,1,6.08-11.38,35.9,35.9,0,0,1,9-7.94,13,13,0,0,1,5.92-1.81c2.32-.06,5.28,1.24,4.88,4.05a.38.38,0,0,0,.55.42,20.84,20.84,0,0,1,5.34-2c1.47-.32,6-1,5.35,1.86a.38.38,0,0,0,.46.46c2.28-.34,4.56-.78,6.85-1a4.85,4.85,0,0,1,3.14.45,2,2,0,0,1,.73,2.8.38.38,0,0,0,.42.55,16.63,16.63,0,0,1,6.17-.86c1.75.2,4.16,1.22,4.71,3.09.42,1.45-1.37,2-2.36,2.46s-1.85.91-2.79,1.34c-2.06,1-4.15,1.82-6.27,2.63a.39.39,0,0,0-.28.36c.47,6-6.76,7.37-11.24,7.81a.41.41,0,0,0-.37.28,6,6,0,0,1-3.83,3.91,6.48,6.48,0,0,1-4.92-.43c-1.59-.65-2.6.06-3.65,1.24a6.13,6.13,0,0,1-5.2,2.19c-4.06-.17-7.45-3-11.51-3.22a9.17,9.17,0,0,0-4.71,1A9.7,9.7,0,0,0,8.39,689a8,8,0,0,0-1,1.06c-.09.11-1.13,1.24-1.11,1,0-.48-.73-.48-.75,0a.87.87,0,0,0,1.44.69c.55-.37.87-1.1,1.32-1.59a8.75,8.75,0,0,1,2.28-1.73c3.75-2,7.42-.4,11,1,2.72,1.07,6.06,1.95,8.81.46a5.89,5.89,0,0,0,1.44-1.14c.58-.61,1.19-1.62,2.09-1.79s1.8.54,2.65.8a6.29,6.29,0,0,0,2,.24,7,7,0,0,0,6.34-4.81l-.36.27c3-.29,6.27-.6,8.81-2.42a7,7,0,0,0,3.18-6.14l-.27.36c2.69-1,5.35-2.16,8-3.41,1.52-.73,4.78-1.55,4-3.82a5.92,5.92,0,0,0-4.17-3.51c-2.54-.71-5.21,0-7.69.64l.43.55c1.17-1.66-.21-3.71-1.93-4.23a9.06,9.06,0,0,0-4,0l-5.66.84.46.47c.49-2.2-1.72-3.23-3.57-3.17a19.42,19.42,0,0,0-8.22,2.45l.56.43c.41-3-2.27-4.86-5-5-3.46-.17-6.79,1.56-9.46,3.6-5.85,4.46-10.77,10.51-12.77,17.65a72.52,72.52,0,0,0-2,13c0,.48.7.47.75,0Z"/><path class="cls-4" d="M8.05,687.71a34.79,34.79,0,0,1,8.72-7.63,48.59,48.59,0,0,1,10.44-5.54,89.51,89.51,0,0,1,11.29-2.92,96.35,96.35,0,0,1,12.61-2.07,138.64,138.64,0,0,1,14.27-.16.38.38,0,0,0,0-.75c-4.43-.1-8.86-.21-13.29.08a88.17,88.17,0,0,0-12.6,1.93,101.54,101.54,0,0,0-12,3,47.77,47.77,0,0,0-10.51,5.42,37.12,37.12,0,0,0-9.53,8.25c-.29.38.36.76.65.38Z"/><path class="cls-4" d="M29.05,672.74a5.25,5.25,0,0,1,1.38-2.59c.6-.81,1.24-1.6,1.92-2.35A14.68,14.68,0,0,1,37,664.24c.44-.21.06-.85-.38-.65a15.63,15.63,0,0,0-5,3.89c-.69.79-1.34,1.62-2,2.46a5.41,5.41,0,0,0-1.35,2.8c0,.49.72.48.75,0Z"/><path class="cls-4" d="M42.36,669.39a31.53,31.53,0,0,1,5.33-2.33c.46-.15.26-.88-.2-.73A32.86,32.86,0,0,0,42,668.74c-.42.24,0,.88.38.65Z"/><path class="cls-4" d="M19.65,675.71a10.23,10.23,0,0,1,3.27-8.36c.35-.32-.18-.85-.53-.53a10.93,10.93,0,0,0-3.49,8.89c0,.48.79.48.75,0Z"/><path class="cls-4" d="M20.6,679.93a11,11,0,0,1,10.24,3.76c.3.37.83-.16.53-.53a11.67,11.67,0,0,0-11-3.95c-.47.08-.27.81.2.72Z"/><path class="cls-4" d="M30.32,677.54A16.55,16.55,0,0,1,42,680c.4.26.78-.39.37-.65a17.29,17.29,0,0,0-12.26-2.48c-.48.08-.28.8.2.72Z"/><path class="cls-4" d="M42.73,673.79a7.52,7.52,0,0,1,6.87,3.84c.23.42.88,0,.65-.38A8.27,8.27,0,0,0,42.73,673c-.48,0-.48.78,0,.75Z"/><path class="cls-3" d="M9.62,581.76c.61-6.6,1.28-13.43,4.57-19.19a37.17,37.17,0,0,1,6-7.51c3.25-3.28,7-6.44,11.61-7a6.82,6.82,0,0,1,4.36.67,3.74,3.74,0,0,1,1.9,3.77,20.17,20.17,0,0,1,7.2-2.33,5.08,5.08,0,0,1,2.84.26,2.07,2.07,0,0,1,1.2,2.36l5.9-.89a7,7,0,0,1,4.12.22c1.26.62,2,2.39,1.12,3.46a17.25,17.25,0,0,1,6.27-.87A6.08,6.08,0,0,1,71.81,558a1.65,1.65,0,0,1,.08,1.32,2,2,0,0,1-.91.76,105.31,105.31,0,0,1-10.85,4.86c.3,2.64-1.58,5.14-3.92,6.4s-5.06,1.53-7.7,1.79A6.48,6.48,0,0,1,40,577.18a4.52,4.52,0,0,0-1.92-.62c-1.22.06-1.94,1.33-2.81,2.18-2.07,2-5.46,1.81-8.21.87s-5.38-2.45-8.28-2.56a9,9,0,0,0-7.65,3.84,1.51,1.51,0,0,1-.71.68c-.32.09-.74-.23-.6-.53"/><path class="cls-4" d="M10,581.76a73.11,73.11,0,0,1,1.85-12.33,28.06,28.06,0,0,1,6.08-11.38,35.9,35.9,0,0,1,9-7.94,13,13,0,0,1,5.92-1.81c2.32-.06,5.28,1.24,4.88,4.05a.38.38,0,0,0,.55.42,20.84,20.84,0,0,1,5.34-2c1.47-.32,6-1,5.35,1.86a.38.38,0,0,0,.46.46c2.28-.34,4.56-.78,6.85-1a4.85,4.85,0,0,1,3.14.45,2,2,0,0,1,.73,2.8.38.38,0,0,0,.42.55,16.63,16.63,0,0,1,6.17-.86c1.75.2,4.16,1.22,4.71,3.09.42,1.45-1.37,2-2.36,2.46s-1.85.91-2.79,1.34c-2.06,1-4.15,1.82-6.27,2.63a.39.39,0,0,0-.28.36c.47,6-6.76,7.37-11.24,7.81a.41.41,0,0,0-.37.28,6,6,0,0,1-3.83,3.91,6.48,6.48,0,0,1-4.92-.43c-1.59-.65-2.6.06-3.65,1.24a6.13,6.13,0,0,1-5.2,2.19c-4.06-.17-7.45-3-11.51-3.22a9.17,9.17,0,0,0-4.71,1A9.7,9.7,0,0,0,12.39,579a8,8,0,0,0-1,1.06c-.09.11-1.13,1.24-1.11,1,0-.48-.73-.48-.75,0a.87.87,0,0,0,1.44.69c.55-.37.87-1.1,1.32-1.59a8.75,8.75,0,0,1,2.28-1.73c3.75-2,7.42-.4,11,1,2.72,1.07,6.06,1.95,8.81.46a5.89,5.89,0,0,0,1.44-1.14c.58-.61,1.19-1.62,2.09-1.79s1.8.54,2.65.8a6.29,6.29,0,0,0,2,.24,7,7,0,0,0,6.34-4.81l-.36.27c3-.29,6.27-.6,8.81-2.42a7,7,0,0,0,3.18-6.14l-.27.36c2.69-1,5.35-2.16,8-3.41,1.52-.73,4.78-1.55,4-3.82a5.92,5.92,0,0,0-4.17-3.51c-2.54-.71-5.21,0-7.69.64l.43.55c1.17-1.66-.21-3.71-1.93-4.23a9.06,9.06,0,0,0-4,0l-5.66.84.46.47c.49-2.2-1.72-3.23-3.57-3.17a19.42,19.42,0,0,0-8.22,2.45l.56.43c.41-3-2.27-4.86-5-5-3.46-.17-6.79,1.56-9.46,3.6-5.85,4.46-10.77,10.51-12.77,17.65a72.52,72.52,0,0,0-2,13c-.05.48.7.47.75,0Z"/><path class="cls-4" d="M12.05,577.71a34.79,34.79,0,0,1,8.72-7.63,48.59,48.59,0,0,1,10.44-5.54,89.51,89.51,0,0,1,11.29-2.92,96.35,96.35,0,0,1,12.61-2.07,138.64,138.64,0,0,1,14.27-.16.38.38,0,0,0,0-.75c-4.43-.1-8.86-.21-13.29.08a88.17,88.17,0,0,0-12.6,1.93,101.54,101.54,0,0,0-12,3,47.77,47.77,0,0,0-10.51,5.42,37.12,37.12,0,0,0-9.53,8.25c-.29.38.36.76.65.38Z"/><path class="cls-4" d="M33.05,562.74a5.25,5.25,0,0,1,1.38-2.59c.6-.81,1.24-1.6,1.92-2.35A14.68,14.68,0,0,1,41,554.24c.44-.21.06-.85-.38-.65a15.63,15.63,0,0,0-5,3.89c-.69.79-1.34,1.62-2,2.46a5.41,5.41,0,0,0-1.35,2.8c0,.49.72.48.75,0Z"/><path class="cls-4" d="M46.36,559.39a31.53,31.53,0,0,1,5.33-2.33c.46-.15.26-.88-.2-.73A32.86,32.86,0,0,0,46,558.74c-.42.24,0,.88.38.65Z"/><path class="cls-4" d="M23.65,565.71a10.23,10.23,0,0,1,3.27-8.36c.35-.32-.18-.85-.53-.53a10.93,10.93,0,0,0-3.49,8.89c0,.48.79.48.75,0Z"/><path class="cls-4" d="M24.6,569.93a11,11,0,0,1,10.24,3.76c.3.37.83-.16.53-.53a11.67,11.67,0,0,0-11-3.95c-.47.08-.27.81.2.72Z"/><path class="cls-4" d="M34.32,567.54A16.55,16.55,0,0,1,46,570c.4.26.78-.39.37-.65a17.29,17.29,0,0,0-12.26-2.48c-.48.08-.28.8.2.72Z"/><path class="cls-4" d="M46.73,563.79a7.52,7.52,0,0,1,6.87,3.84c.23.42.88,0,.65-.38A8.27,8.27,0,0,0,46.73,563c-.48,0-.48.78,0,.75Z"/><path class="cls-3" d="M12.62,477.76c.61-6.6,1.28-13.43,4.57-19.19a37.17,37.17,0,0,1,6-7.51c3.25-3.28,7-6.44,11.61-7.05a6.82,6.82,0,0,1,4.36.67,3.74,3.74,0,0,1,1.9,3.77,20.17,20.17,0,0,1,7.2-2.33,5.08,5.08,0,0,1,2.84.26,2.07,2.07,0,0,1,1.2,2.36l5.9-.89a7,7,0,0,1,4.12.22c1.26.62,2,2.39,1.12,3.46a17.25,17.25,0,0,1,6.27-.87A6.08,6.08,0,0,1,74.81,454a1.65,1.65,0,0,1,.08,1.32,2,2,0,0,1-.91.76,105.31,105.31,0,0,1-10.85,4.86c.3,2.64-1.58,5.14-3.92,6.4s-5.06,1.53-7.7,1.79A6.48,6.48,0,0,1,43,473.18a4.52,4.52,0,0,0-1.92-.62c-1.22.06-1.94,1.33-2.81,2.18-2.07,2-5.46,1.81-8.21.87s-5.38-2.45-8.28-2.56a9,9,0,0,0-7.65,3.84,1.51,1.51,0,0,1-.71.68c-.32.09-.74-.23-.6-.53"/><path class="cls-4" d="M13,477.76a73.11,73.11,0,0,1,1.85-12.33,28.06,28.06,0,0,1,6.08-11.38,35.9,35.9,0,0,1,9-7.94,13,13,0,0,1,5.92-1.81c2.32-.06,5.28,1.24,4.88,4.05a.38.38,0,0,0,.55.42,20.84,20.84,0,0,1,5.34-2c1.47-.32,6-1,5.35,1.86a.38.38,0,0,0,.46.46c2.28-.34,4.56-.78,6.85-1a4.85,4.85,0,0,1,3.14.45,2,2,0,0,1,.73,2.8.38.38,0,0,0,.42.55,16.63,16.63,0,0,1,6.17-.86c1.75.2,4.16,1.22,4.71,3.09.42,1.45-1.37,2-2.36,2.46s-1.85.91-2.79,1.34c-2.06.95-4.15,1.82-6.27,2.63a.39.39,0,0,0-.28.36c.47,6-6.76,7.37-11.24,7.81a.41.41,0,0,0-.37.28,6,6,0,0,1-3.83,3.91,6.48,6.48,0,0,1-4.92-.43c-1.59-.65-2.6.06-3.65,1.24a6.13,6.13,0,0,1-5.2,2.19c-4.06-.17-7.45-3-11.51-3.22a9.17,9.17,0,0,0-4.71,1A9.7,9.7,0,0,0,15.39,475a8,8,0,0,0-1,1.06c-.09.11-1.13,1.24-1.11,1,0-.48-.73-.48-.75,0a.87.87,0,0,0,1.44.69c.55-.37.87-1.1,1.32-1.59a8.75,8.75,0,0,1,2.28-1.73c3.75-2,7.42-.4,11,1,2.72,1.07,6.06,1.95,8.81.46a5.89,5.89,0,0,0,1.44-1.14c.58-.61,1.19-1.62,2.09-1.79s1.8.54,2.65.8a6.29,6.29,0,0,0,2,.24,7,7,0,0,0,6.34-4.81l-.36.27c3-.29,6.27-.6,8.81-2.42a7,7,0,0,0,3.18-6.14l-.27.36c2.69-1,5.35-2.16,8-3.41,1.52-.73,4.78-1.55,4-3.82a5.92,5.92,0,0,0-4.17-3.51c-2.54-.71-5.21,0-7.69.64l.43.55c1.17-1.66-.21-3.71-1.93-4.23a9.06,9.06,0,0,0-4,0l-5.66.84.46.47c.49-2.2-1.72-3.23-3.57-3.17a19.42,19.42,0,0,0-8.22,2.45l.56.43c.41-3-2.27-4.86-5-5-3.46-.17-6.79,1.56-9.46,3.6-5.85,4.46-10.77,10.51-12.77,17.65a72.52,72.52,0,0,0-2,12.95c-.05.48.7.47.75,0Z"/><path class="cls-4" d="M15.05,473.71a34.79,34.79,0,0,1,8.72-7.63,48.59,48.59,0,0,1,10.44-5.54,89.51,89.51,0,0,1,11.29-2.92,96.35,96.35,0,0,1,12.61-2.07,138.64,138.64,0,0,1,14.27-.16.38.38,0,0,0,0-.75c-4.43-.1-8.86-.21-13.29.08a88.17,88.17,0,0,0-12.6,1.93,101.54,101.54,0,0,0-12.05,3,47.77,47.77,0,0,0-10.51,5.42,37.12,37.12,0,0,0-9.53,8.25c-.29.38.36.76.65.38Z"/><path class="cls-4" d="M36.05,458.74a5.25,5.25,0,0,1,1.38-2.59c.6-.81,1.24-1.6,1.92-2.35A14.68,14.68,0,0,1,44,450.24c.44-.21.06-.85-.38-.65a15.63,15.63,0,0,0-5,3.89c-.69.79-1.34,1.62-2,2.46a5.41,5.41,0,0,0-1.35,2.8c0,.49.72.48.75,0Z"/><path class="cls-4" d="M49.36,455.39a31.53,31.53,0,0,1,5.33-2.33c.46-.15.26-.88-.2-.73A32.86,32.86,0,0,0,49,454.74c-.42.24,0,.88.38.65Z"/><path class="cls-4" d="M26.65,461.71a10.23,10.23,0,0,1,3.27-8.36c.35-.32-.18-.85-.53-.53a10.93,10.93,0,0,0-3.49,8.89c0,.48.79.48.75,0Z"/><path class="cls-4" d="M27.6,465.93a11,11,0,0,1,10.24,3.76c.3.37.83-.16.53-.53a11.67,11.67,0,0,0-11-4c-.47.08-.27.81.2.72Z"/><path class="cls-4" d="M37.32,463.54A16.55,16.55,0,0,1,49,466c.4.26.78-.39.37-.65a17.29,17.29,0,0,0-12.26-2.48c-.48.08-.28.8.2.72Z"/><path class="cls-4" d="M49.73,459.79a7.52,7.52,0,0,1,6.87,3.84c.23.42.88.05.65-.38A8.27,8.27,0,0,0,49.73,459c-.48,0-.48.78,0,.75Z"/><path class="cls-5" d="M12.19,731.51a8.63,8.63,0,0,1,2.87-13.4c2.48-1.18,5.36-1.11,8.11-1a10.46,10.46,0,0,1,3.58-6,9.11,9.11,0,0,1,6.65-2,13.09,13.09,0,0,1,3.45,1A11.71,11.71,0,0,1,41,712.76a5.43,5.43,0,0,1,1.55,4.52c1.22-2.39,4.41-3,7.07-2.65a10.28,10.28,0,0,1,7.12,3.8c1.6,2.26,1.66,5.7-.35,7.6a7.41,7.41,0,0,1-4,14.18,8.55,8.55,0,0,1-13.92,7.32,9,9,0,0,1-10,3,9,9,0,0,1-5.67-8.75,12.48,12.48,0,0,1-6.44.54,6.41,6.41,0,0,1-2.61-1,5.65,5.65,0,0,1-2-4.5,16,16,0,0,1,1-5"/><path class="cls-6" d="M12.45,731.24a8.35,8.35,0,0,1,.05-10.69c2.7-3.16,6.83-3.22,10.67-3a.38.38,0,0,0,.36-.28c1-4.27,4.5-7.84,9.08-7.75,4,.08,10.2,3.08,9.57,7.81,0,.39.53.5.7.19,2-3.51,7.31-2.88,10.38-1.41,3.49,1.68,6.08,6.44,2.88,9.71a.37.37,0,0,0,.07.58,7,7,0,0,1-3.7,13.5c-.22,0-.49.09-.47.36a8.17,8.17,0,0,1-13.28,7c-.15-.11-.4-.17-.53,0a8.63,8.63,0,0,1-9.3,3,8.6,8.6,0,0,1-5.73-8.5.38.38,0,0,0-.47-.37c-2.66.91-6.84,1.4-9.1-.72-2.44-2.29-1.41-6-.52-8.78.14-.46-.58-.65-.73-.2-1,3-1.92,7,.72,9.51,2.45,2.33,6.9,1.92,9.83.92l-.48-.36a9.37,9.37,0,0,0,5.95,9.11,9.36,9.36,0,0,0,10.36-3.07h-.53a8.92,8.92,0,0,0,14.56-7.58l-.48.36a7.78,7.78,0,0,0,4.28-14.86l.08.59c3.39-3.47,1.08-8.72-2.7-10.71-3.45-1.83-9.49-2.51-11.74,1.5l.7.19c.67-5.07-5.68-8.26-9.93-8.54-5.05-.33-9.13,3.56-10.19,8.29l.36-.28c-4.35-.2-8.94.07-11.71,3.91a9.13,9.13,0,0,0,.46,11.11c.31.38.83-.16.53-.53Z"/><path class="cls-7" d="M32.54,720.74a4.5,4.5,0,1,0-4.5-4.5,4.55,4.55,0,0,0,4.5,4.5Z"/><path class="cls-7" d="M18,729.49a4.5,4.5,0,1,0-4.5-4.5,4.55,4.55,0,0,0,4.5,4.5Z"/><path class="cls-7" d="M19.15,740.08a4.5,4.5,0,1,0-4.5-4.5,4.55,4.55,0,0,0,4.5,4.5Z"/><path class="cls-7" d="M31.68,748.4a4.5,4.5,0,1,0-4.5-4.5,4.55,4.55,0,0,0,4.5,4.5Z"/><path class="cls-7" d="M44.54,746.56a4.5,4.5,0,1,0-4.5-4.5,4.56,4.56,0,0,0,4.5,4.5Z"/><path class="cls-7" d="M53.5,737.81a4.5,4.5,0,1,0-4.5-4.5,4.55,4.55,0,0,0,4.5,4.5Z"/><path class="cls-7" d="M49.6,726.1a4.5,4.5,0,1,0-4.5-4.5,4.55,4.55,0,0,0,4.5,4.5Z"/><path class="cls-8" d="M49.29,724.64c3.86,0,3.87-6,0-6s-3.87,6,0,6Z"/><path class="cls-8" d="M53.19,736.36c3.86,0,3.87-6,0-6s-3.86,6,0,6Z"/><path class="cls-8" d="M44.08,745.47c3.86,0,3.87-6,0-6s-3.86,6,0,6Z"/><path class="cls-8" d="M31.07,746.77c3.86,0,3.86-6,0-6s-3.87,6,0,6Z"/><path class="cls-8" d="M19.35,739c3.86,0,3.87-6,0-6s-3.86,6,0,6Z"/><path class="cls-8" d="M18.05,727.25c3.86,0,3.87-6,0-6s-3.86,6,0,6Z"/><path class="cls-8" d="M32.37,719.44c3.86,0,3.87-6,0-6s-3.87,6,0,6Z"/><path class="cls-9" d="M33.94,735.86a6,6,0,1,0-6-6,6.06,6.06,0,0,0,6,6Z"/><path class="cls-10" d="M27.61,725.38a9,9,0,0,0-.1,8.49A4.84,4.84,0,0,0,29,735.56a10.92,10.92,0,0,0,2,1,16.17,16.17,0,0,0,2.18.86,5.91,5.91,0,0,0,2.71,0,10.29,10.29,0,0,0,4.22-2.31,4.69,4.69,0,0,0,1.38-1.56,7,7,0,0,0,.5-2.65,13.4,13.4,0,0,0-.44-4.63,5,5,0,0,0-3-3.28,11.56,11.56,0,0,0-5.14-.74c-1.71.15-3.68.52-4.85,1.9a1.54,1.54,0,0,0,0,2.12,1.51,1.51,0,0,0,2.12,0,3.72,3.72,0,0,1,2.49-1,9.21,9.21,0,0,1,3.35.21,4.79,4.79,0,0,1,1.43.51,1.73,1.73,0,0,1,.6.75,7.48,7.48,0,0,1,.47,3c0,.88.16,2.22-.49,2.83a8.91,8.91,0,0,1-2.6,1.74,3.44,3.44,0,0,1-2.81-.09l-1.59-.68a2.8,2.8,0,0,1-1.11-.67,5.65,5.65,0,0,1-.18-5.94c.93-1.69-1.66-3.21-2.6-1.51Z"/><path class="cls-10" d="M34.39,731.4a1.5,1.5,0,0,0,0-3,1.5,1.5,0,0,0,0,3Z"/><path class="cls-5" d="M12.19,621.51a8.63,8.63,0,0,1,2.87-13.4c2.48-1.18,5.36-1.11,8.11-1a10.46,10.46,0,0,1,3.58-6,9.11,9.11,0,0,1,6.65-2,13.09,13.09,0,0,1,3.45,1A11.71,11.71,0,0,1,41,602.76a5.43,5.43,0,0,1,1.55,4.52c1.22-2.39,4.41-3,7.07-2.65a10.28,10.28,0,0,1,7.12,3.8c1.6,2.26,1.66,5.7-.35,7.6a7.41,7.41,0,0,1-4,14.18,8.55,8.55,0,0,1-13.92,7.32,9,9,0,0,1-10,3,9,9,0,0,1-5.67-8.75,12.48,12.48,0,0,1-6.44.54,6.41,6.41,0,0,1-2.61-1,5.65,5.65,0,0,1-2-4.5,16,16,0,0,1,1-5"/><path class="cls-6" d="M12.45,621.24a8.35,8.35,0,0,1,.05-10.69c2.7-3.16,6.83-3.22,10.67-3a.38.38,0,0,0,.36-.28c1-4.27,4.5-7.84,9.08-7.75,4,.08,10.2,3.08,9.57,7.81,0,.39.53.5.7.19,2-3.51,7.31-2.88,10.38-1.41,3.49,1.68,6.08,6.44,2.88,9.71a.37.37,0,0,0,.07.58,7,7,0,0,1-3.7,13.5c-.22,0-.49.09-.47.36a8.17,8.17,0,0,1-13.28,7c-.15-.11-.4-.17-.53,0a8.63,8.63,0,0,1-9.3,3,8.6,8.6,0,0,1-5.73-8.5.38.38,0,0,0-.47-.37c-2.66.91-6.84,1.4-9.1-.72-2.44-2.29-1.41-6-.52-8.78.14-.46-.58-.65-.73-.2-1,3-1.92,7,.72,9.51,2.45,2.33,6.9,1.92,9.83.92l-.48-.36a9.37,9.37,0,0,0,5.95,9.11,9.36,9.36,0,0,0,10.36-3.07h-.53a8.92,8.92,0,0,0,14.56-7.58l-.48.36a7.78,7.78,0,0,0,4.28-14.86l.08.59c3.39-3.47,1.08-8.72-2.7-10.71-3.45-1.83-9.49-2.51-11.74,1.5l.7.19c.67-5.07-5.68-8.26-9.93-8.54-5.05-.33-9.13,3.56-10.19,8.29l.36-.28c-4.35-.2-8.94.07-11.71,3.91a9.13,9.13,0,0,0,.46,11.11c.31.38.83-.16.53-.53Z"/><path class="cls-7" d="M32.54,610.74a4.5,4.5,0,1,0-4.5-4.5,4.55,4.55,0,0,0,4.5,4.5Z"/><path class="cls-7" d="M18,619.49a4.5,4.5,0,1,0-4.5-4.5,4.55,4.55,0,0,0,4.5,4.5Z"/><path class="cls-7" d="M19.15,630.08a4.5,4.5,0,1,0-4.5-4.5,4.55,4.55,0,0,0,4.5,4.5Z"/><path class="cls-7" d="M31.68,638.4a4.5,4.5,0,1,0-4.5-4.5,4.55,4.55,0,0,0,4.5,4.5Z"/><path class="cls-7" d="M44.54,636.56a4.5,4.5,0,1,0-4.5-4.5,4.56,4.56,0,0,0,4.5,4.5Z"/><path class="cls-7" d="M53.5,627.81a4.5,4.5,0,1,0-4.5-4.5,4.55,4.55,0,0,0,4.5,4.5Z"/><path class="cls-7" d="M49.6,616.1a4.5,4.5,0,1,0-4.5-4.5,4.55,4.55,0,0,0,4.5,4.5Z"/><path class="cls-8" d="M49.29,614.64c3.86,0,3.87-6,0-6s-3.87,6,0,6Z"/><path class="cls-8" d="M53.19,626.36c3.86,0,3.87-6,0-6s-3.86,6,0,6Z"/><path class="cls-8" d="M44.08,635.47c3.86,0,3.87-6,0-6s-3.86,6,0,6Z"/><path class="cls-8" d="M31.07,636.77c3.86,0,3.86-6,0-6s-3.87,6,0,6Z"/><path class="cls-8" d="M19.35,629c3.86,0,3.87-6,0-6s-3.86,6,0,6Z"/><path class="cls-8" d="M18.05,617.25c3.86,0,3.87-6,0-6s-3.86,6,0,6Z"/><path class="cls-8" d="M32.37,609.44c3.86,0,3.87-6,0-6s-3.87,6,0,6Z"/><path class="cls-9" d="M33.94,625.86a6,6,0,1,0-6-6,6.06,6.06,0,0,0,6,6Z"/><path class="cls-10" d="M27.61,615.38a9,9,0,0,0-.1,8.49A4.84,4.84,0,0,0,29,625.56a10.92,10.92,0,0,0,2,1,16.17,16.17,0,0,0,2.18.86,5.91,5.91,0,0,0,2.71,0,10.29,10.29,0,0,0,4.22-2.31,4.69,4.69,0,0,0,1.38-1.56,7,7,0,0,0,.5-2.65,13.4,13.4,0,0,0-.44-4.63,5,5,0,0,0-3-3.28,11.56,11.56,0,0,0-5.14-.74c-1.71.15-3.68.52-4.85,1.9a1.54,1.54,0,0,0,0,2.12,1.51,1.51,0,0,0,2.12,0,3.72,3.72,0,0,1,2.49-1,9.21,9.21,0,0,1,3.35.21,4.79,4.79,0,0,1,1.43.51,1.73,1.73,0,0,1,.6.75,7.48,7.48,0,0,1,.47,3c0,.88.16,2.22-.49,2.83a8.91,8.91,0,0,1-2.6,1.74,3.44,3.44,0,0,1-2.81-.09l-1.59-.68a2.8,2.8,0,0,1-1.11-.67,5.65,5.65,0,0,1-.18-5.94c.93-1.69-1.66-3.21-2.6-1.51Z"/><path class="cls-10" d="M34.39,621.4a1.5,1.5,0,0,0,0-3,1.5,1.5,0,0,0,0,3Z"/><path class="cls-5" d="M11.19,511.51a8.63,8.63,0,0,1,2.87-13.4c2.48-1.18,5.36-1.11,8.11-1a10.46,10.46,0,0,1,3.58-6,9.11,9.11,0,0,1,6.65-2,13.09,13.09,0,0,1,3.45,1A11.71,11.71,0,0,1,40,492.76a5.43,5.43,0,0,1,1.55,4.52c1.22-2.39,4.41-3,7.07-2.65a10.28,10.28,0,0,1,7.12,3.8c1.6,2.26,1.66,5.7-.35,7.6a7.41,7.41,0,0,1-4,14.18,8.55,8.55,0,0,1-13.92,7.32,9,9,0,0,1-10,3,9,9,0,0,1-5.67-8.75,12.48,12.48,0,0,1-6.44.54,6.41,6.41,0,0,1-2.61-1,5.65,5.65,0,0,1-2-4.5,16,16,0,0,1,1-5"/><path class="cls-6" d="M11.45,511.24a8.35,8.35,0,0,1,.05-10.69c2.7-3.16,6.83-3.22,10.67-3.05a.38.38,0,0,0,.36-.28c1-4.27,4.5-7.84,9.08-7.75,4,.08,10.2,3.08,9.57,7.81,0,.39.53.5.7.19,2-3.51,7.31-2.88,10.38-1.41,3.49,1.68,6.08,6.44,2.88,9.71a.37.37,0,0,0,.07.58,7,7,0,0,1-3.7,13.5c-.22,0-.49.09-.47.36a8.17,8.17,0,0,1-13.28,7c-.15-.11-.4-.17-.53,0a8.63,8.63,0,0,1-9.3,3,8.6,8.6,0,0,1-5.73-8.5.38.38,0,0,0-.47-.37c-2.66.91-6.84,1.4-9.1-.72-2.44-2.29-1.41-6-.52-8.78.14-.46-.58-.65-.73-.2-1,3-1.92,7,.72,9.51,2.45,2.33,6.9,1.92,9.83.92l-.48-.36a9.37,9.37,0,0,0,5.95,9.11,9.36,9.36,0,0,0,10.36-3.07h-.53a8.92,8.92,0,0,0,14.56-7.58l-.48.36a7.78,7.78,0,0,0,4.28-14.86l.08.59c3.39-3.47,1.08-8.72-2.7-10.71-3.45-1.83-9.49-2.51-11.74,1.5l.7.19c.67-5.07-5.68-8.26-9.93-8.54-5.05-.33-9.13,3.56-10.19,8.29l.36-.28c-4.35-.2-8.94.07-11.71,3.91a9.13,9.13,0,0,0,.46,11.11c.31.38.83-.16.53-.53Z"/><path class="cls-7" d="M31.54,500.74a4.5,4.5,0,1,0-4.5-4.5,4.55,4.55,0,0,0,4.5,4.5Z"/><path class="cls-7" d="M17,509.49a4.5,4.5,0,1,0-4.5-4.5,4.55,4.55,0,0,0,4.5,4.5Z"/><path class="cls-7" d="M18.15,520.08a4.5,4.5,0,1,0-4.5-4.5,4.55,4.55,0,0,0,4.5,4.5Z"/><path class="cls-7" d="M30.68,528.4a4.5,4.5,0,1,0-4.5-4.5,4.55,4.55,0,0,0,4.5,4.5Z"/><path class="cls-7" d="M43.54,526.56a4.5,4.5,0,1,0-4.5-4.5,4.56,4.56,0,0,0,4.5,4.5Z"/><path class="cls-7" d="M52.5,517.81a4.5,4.5,0,1,0-4.5-4.5,4.55,4.55,0,0,0,4.5,4.5Z"/><path class="cls-7" d="M48.6,506.1a4.5,4.5,0,1,0-4.5-4.5,4.55,4.55,0,0,0,4.5,4.5Z"/><path class="cls-8" d="M48.29,504.64c3.86,0,3.87-6,0-6s-3.87,6,0,6Z"/><path class="cls-8" d="M52.19,516.36c3.86,0,3.87-6,0-6s-3.86,6,0,6Z"/><path class="cls-8" d="M43.08,525.47c3.86,0,3.87-6,0-6s-3.86,6,0,6Z"/><path class="cls-8" d="M30.07,526.77c3.86,0,3.86-6,0-6s-3.87,6,0,6Z"/><path class="cls-8" d="M18.35,519c3.86,0,3.87-6,0-6s-3.86,6,0,6Z"/><path class="cls-8" d="M17.05,507.25c3.86,0,3.87-6,0-6s-3.86,6,0,6Z"/><path class="cls-8" d="M31.37,499.44c3.86,0,3.87-6,0-6s-3.87,6,0,6Z"/><path class="cls-9" d="M32.94,515.86a6,6,0,1,0-6-6,6.06,6.06,0,0,0,6,6Z"/><path class="cls-10" d="M26.61,505.38a9,9,0,0,0-.1,8.49A4.84,4.84,0,0,0,28,515.56a10.92,10.92,0,0,0,2,1,16.17,16.17,0,0,0,2.18.86,5.91,5.91,0,0,0,2.71,0,10.29,10.29,0,0,0,4.22-2.31,4.69,4.69,0,0,0,1.38-1.56,7,7,0,0,0,.5-2.65,13.4,13.4,0,0,0-.44-4.63,5,5,0,0,0-3-3.28,11.56,11.56,0,0,0-5.14-.74c-1.71.15-3.68.52-4.85,1.9a1.54,1.54,0,0,0,0,2.12,1.51,1.51,0,0,0,2.12,0,3.72,3.72,0,0,1,2.49-1,9.21,9.21,0,0,1,3.35.21,4.79,4.79,0,0,1,1.43.51,1.73,1.73,0,0,1,.6.75,7.48,7.48,0,0,1,.47,3c0,.88.16,2.22-.49,2.83a8.91,8.91,0,0,1-2.6,1.74,3.44,3.44,0,0,1-2.81-.09l-1.59-.68a2.8,2.8,0,0,1-1.11-.67,5.65,5.65,0,0,1-.18-5.94c.93-1.69-1.66-3.21-2.6-1.51Z"/><path class="cls-10" d="M33.39,511.4a1.5,1.5,0,0,0,0-3,1.5,1.5,0,0,0,0,3Z"/><path class="cls-3" d="M12.62,367.76c.61-6.6,1.28-13.43,4.57-19.19a37.17,37.17,0,0,1,6-7.51c3.25-3.28,7-6.44,11.61-7.05a6.82,6.82,0,0,1,4.36.67,3.74,3.74,0,0,1,1.9,3.77,20.17,20.17,0,0,1,7.2-2.33,5.08,5.08,0,0,1,2.84.26,2.07,2.07,0,0,1,1.2,2.36l5.9-.89a7,7,0,0,1,4.12.22c1.26.62,2,2.39,1.12,3.46a17.25,17.25,0,0,1,6.27-.87A6.08,6.08,0,0,1,74.81,344a1.65,1.65,0,0,1,.08,1.32,2,2,0,0,1-.91.76,105.31,105.31,0,0,1-10.85,4.86c.3,2.64-1.58,5.14-3.92,6.4s-5.06,1.53-7.7,1.79A6.48,6.48,0,0,1,43,363.18a4.52,4.52,0,0,0-1.92-.62c-1.22.06-1.94,1.33-2.81,2.18-2.07,2-5.46,1.81-8.21.87s-5.38-2.45-8.28-2.56a9,9,0,0,0-7.65,3.84,1.51,1.51,0,0,1-.71.68c-.32.09-.74-.23-.6-.53"/><path class="cls-4" d="M13,367.76a73.11,73.11,0,0,1,1.85-12.33,28.06,28.06,0,0,1,6.08-11.38,35.9,35.9,0,0,1,9-7.94,13,13,0,0,1,5.92-1.81c2.32-.06,5.28,1.24,4.88,4.05a.38.38,0,0,0,.55.42,20.84,20.84,0,0,1,5.34-2c1.47-.32,6-1,5.35,1.86a.38.38,0,0,0,.46.46c2.28-.34,4.56-.78,6.85-1a4.85,4.85,0,0,1,3.14.45,2,2,0,0,1,.73,2.8.38.38,0,0,0,.42.55,16.63,16.63,0,0,1,6.17-.86c1.75.2,4.16,1.22,4.71,3.09.42,1.45-1.37,2-2.36,2.46s-1.85.91-2.79,1.34c-2.06.95-4.15,1.82-6.27,2.63a.39.39,0,0,0-.28.36c.47,6-6.76,7.37-11.24,7.81a.41.41,0,0,0-.37.28,6,6,0,0,1-3.83,3.91,6.48,6.48,0,0,1-4.92-.43c-1.59-.65-2.6.06-3.65,1.24a6.13,6.13,0,0,1-5.2,2.19c-4.06-.17-7.45-3-11.51-3.22a9.17,9.17,0,0,0-4.71,1A9.7,9.7,0,0,0,15.39,365a8,8,0,0,0-1,1.06c-.09.11-1.13,1.24-1.11,1,0-.48-.73-.48-.75,0a.87.87,0,0,0,1.44.69c.55-.37.87-1.1,1.32-1.59a8.75,8.75,0,0,1,2.28-1.73c3.75-2,7.42-.4,11,1,2.72,1.07,6.06,1.95,8.81.46a5.89,5.89,0,0,0,1.44-1.14c.58-.61,1.19-1.62,2.09-1.79s1.8.54,2.65.8a6.29,6.29,0,0,0,2,.24,7,7,0,0,0,6.34-4.81l-.36.27c3-.29,6.27-.6,8.81-2.42a7,7,0,0,0,3.18-6.14l-.27.36c2.69-1,5.35-2.16,8-3.41,1.52-.73,4.78-1.55,4-3.82a5.92,5.92,0,0,0-4.17-3.51c-2.54-.71-5.21,0-7.69.64l.43.55c1.17-1.66-.21-3.71-1.93-4.23a9.06,9.06,0,0,0-4,0l-5.66.84.46.47c.49-2.2-1.72-3.23-3.57-3.17a19.42,19.42,0,0,0-8.22,2.45l.56.43c.41-3-2.27-4.86-5-5-3.46-.17-6.79,1.56-9.46,3.6-5.85,4.46-10.77,10.51-12.77,17.65a72.52,72.52,0,0,0-2,12.95c-.05.48.7.47.75,0Z"/><path class="cls-4" d="M15.05,363.71a34.79,34.79,0,0,1,8.72-7.63,48.59,48.59,0,0,1,10.44-5.54,89.51,89.51,0,0,1,11.29-2.92,96.35,96.35,0,0,1,12.61-2.07,138.64,138.64,0,0,1,14.27-.16.38.38,0,0,0,0-.75c-4.43-.1-8.86-.21-13.29.08a88.17,88.17,0,0,0-12.6,1.93,101.54,101.54,0,0,0-12.05,3,47.77,47.77,0,0,0-10.51,5.42,37.12,37.12,0,0,0-9.53,8.25c-.29.38.36.76.65.38Z"/><path class="cls-4" d="M36.05,348.74a5.25,5.25,0,0,1,1.38-2.59c.6-.81,1.24-1.6,1.92-2.35A14.68,14.68,0,0,1,44,340.24c.44-.21.06-.85-.38-.65a15.63,15.63,0,0,0-5,3.89c-.69.79-1.34,1.62-2,2.46a5.41,5.41,0,0,0-1.35,2.8c0,.49.72.48.75,0Z"/><path class="cls-4" d="M49.36,345.39a31.53,31.53,0,0,1,5.33-2.33c.46-.15.26-.88-.2-.73A32.86,32.86,0,0,0,49,344.74c-.42.24,0,.88.38.65Z"/><path class="cls-4" d="M26.65,351.71a10.23,10.23,0,0,1,3.27-8.36c.35-.32-.18-.85-.53-.53a10.93,10.93,0,0,0-3.49,8.89c0,.48.79.48.75,0Z"/><path class="cls-4" d="M27.6,355.93a11,11,0,0,1,10.24,3.76c.3.37.83-.16.53-.53a11.67,11.67,0,0,0-11-4c-.47.08-.27.81.2.72Z"/><path class="cls-4" d="M37.32,353.54A16.55,16.55,0,0,1,49,356c.4.26.78-.39.37-.65a17.29,17.29,0,0,0-12.26-2.48c-.48.08-.28.8.2.72Z"/><path class="cls-4" d="M49.73,349.79a7.52,7.52,0,0,1,6.87,3.84c.23.42.88.05.65-.38A8.27,8.27,0,0,0,49.73,349c-.48,0-.48.78,0,.75Z"/><path class="cls-5" d="M11.19,401.51a8.63,8.63,0,0,1,2.87-13.4c2.48-1.18,5.36-1.11,8.11-1a10.46,10.46,0,0,1,3.58-6,9.11,9.11,0,0,1,6.65-2,13.09,13.09,0,0,1,3.45,1A11.71,11.71,0,0,1,40,382.76a5.43,5.43,0,0,1,1.55,4.52c1.22-2.39,4.41-3,7.07-2.65a10.28,10.28,0,0,1,7.12,3.8c1.6,2.26,1.66,5.7-.35,7.6a7.41,7.41,0,0,1-4,14.18,8.55,8.55,0,0,1-13.92,7.32,9,9,0,0,1-10,3,9,9,0,0,1-5.67-8.75,12.48,12.48,0,0,1-6.44.54,6.41,6.41,0,0,1-2.61-1,5.65,5.65,0,0,1-2-4.5,16,16,0,0,1,1-5"/><path class="cls-6" d="M11.45,401.24a8.35,8.35,0,0,1,.05-10.69c2.7-3.16,6.83-3.22,10.67-3.05a.38.38,0,0,0,.36-.28c1-4.27,4.5-7.84,9.08-7.75,4,.08,10.2,3.08,9.57,7.81,0,.39.53.5.7.19,2-3.51,7.31-2.88,10.38-1.41,3.49,1.68,6.08,6.44,2.88,9.71a.37.37,0,0,0,.07.58,7,7,0,0,1-3.7,13.5c-.22,0-.49.09-.47.36a8.17,8.17,0,0,1-13.28,7.05c-.15-.11-.4-.17-.53,0a8.63,8.63,0,0,1-9.3,3,8.6,8.6,0,0,1-5.73-8.5.38.38,0,0,0-.47-.37c-2.66.91-6.84,1.4-9.1-.72-2.44-2.29-1.41-6-.52-8.78.14-.46-.58-.65-.73-.2-1,3-1.92,7,.72,9.51,2.45,2.33,6.9,1.92,9.83.92l-.48-.36a9.37,9.37,0,0,0,5.95,9.11,9.36,9.36,0,0,0,10.36-3.07h-.53a8.92,8.92,0,0,0,14.56-7.58l-.48.36a7.78,7.78,0,0,0,4.28-14.86l.08.59c3.39-3.47,1.08-8.72-2.7-10.71-3.45-1.83-9.49-2.51-11.74,1.5l.7.19c.67-5.07-5.68-8.26-9.93-8.54-5.05-.33-9.13,3.56-10.19,8.29l.36-.28c-4.35-.2-8.94.07-11.71,3.91a9.13,9.13,0,0,0,.46,11.11c.31.38.83-.16.53-.53Z"/><path class="cls-7" d="M31.54,390.74a4.5,4.5,0,1,0-4.5-4.5,4.55,4.55,0,0,0,4.5,4.5Z"/><path class="cls-7" d="M17,399.49a4.5,4.5,0,1,0-4.5-4.5,4.55,4.55,0,0,0,4.5,4.5Z"/><path class="cls-7" d="M18.15,410.08a4.5,4.5,0,1,0-4.5-4.5,4.55,4.55,0,0,0,4.5,4.5Z"/><path class="cls-7" d="M30.68,418.4a4.5,4.5,0,1,0-4.5-4.5,4.55,4.55,0,0,0,4.5,4.5Z"/><path class="cls-7" d="M43.54,416.56a4.5,4.5,0,1,0-4.5-4.5,4.56,4.56,0,0,0,4.5,4.5Z"/><path class="cls-7" d="M52.5,407.81a4.5,4.5,0,1,0-4.5-4.5,4.55,4.55,0,0,0,4.5,4.5Z"/><path class="cls-7" d="M48.6,396.1a4.5,4.5,0,1,0-4.5-4.5,4.55,4.55,0,0,0,4.5,4.5Z"/><path class="cls-8" d="M48.29,394.64c3.86,0,3.87-6,0-6s-3.87,6,0,6Z"/><path class="cls-8" d="M52.19,406.36c3.86,0,3.87-6,0-6s-3.86,6,0,6Z"/><path class="cls-8" d="M43.08,415.47c3.86,0,3.87-6,0-6s-3.86,6,0,6Z"/><path class="cls-8" d="M30.07,416.77c3.86,0,3.86-6,0-6s-3.87,6,0,6Z"/><path class="cls-8" d="M18.35,409c3.86,0,3.87-6,0-6s-3.86,6,0,6Z"/><path class="cls-8" d="M17.05,397.25c3.86,0,3.87-6,0-6s-3.86,6,0,6Z"/><path class="cls-8" d="M31.37,389.44c3.86,0,3.87-6,0-6s-3.87,6,0,6Z"/><path class="cls-9" d="M32.94,405.86a6,6,0,1,0-6-6,6.06,6.06,0,0,0,6,6Z"/><path class="cls-10" d="M26.61,395.38a9,9,0,0,0-.1,8.49A4.84,4.84,0,0,0,28,405.56a10.92,10.92,0,0,0,2,1,16.17,16.17,0,0,0,2.18.86,5.91,5.91,0,0,0,2.71,0,10.29,10.29,0,0,0,4.22-2.31,4.69,4.69,0,0,0,1.38-1.56,7,7,0,0,0,.5-2.65,13.4,13.4,0,0,0-.44-4.63,5,5,0,0,0-3-3.28,11.56,11.56,0,0,0-5.14-.74c-1.71.15-3.68.52-4.85,1.9a1.54,1.54,0,0,0,0,2.12,1.51,1.51,0,0,0,2.12,0,3.72,3.72,0,0,1,2.49-1,9.21,9.21,0,0,1,3.35.21,4.79,4.79,0,0,1,1.43.51,1.73,1.73,0,0,1,.6.75,7.48,7.48,0,0,1,.47,3c0,.88.16,2.22-.49,2.83a8.91,8.91,0,0,1-2.6,1.74,3.44,3.44,0,0,1-2.81-.09l-1.59-.68a2.8,2.8,0,0,1-1.11-.67,5.65,5.65,0,0,1-.18-5.94c.93-1.69-1.66-3.21-2.6-1.51Z"/><path class="cls-10" d="M33.39,401.4a1.5,1.5,0,0,0,0-3,1.5,1.5,0,0,0,0,3Z"/><path class="cls-3" d="M14.62,257.76c.61-6.6,1.28-13.43,4.57-19.19a37.17,37.17,0,0,1,6-7.51c3.25-3.28,7-6.44,11.61-7.05a6.82,6.82,0,0,1,4.36.67,3.74,3.74,0,0,1,1.9,3.77,20.17,20.17,0,0,1,7.2-2.33,5.08,5.08,0,0,1,2.84.26,2.07,2.07,0,0,1,1.2,2.36l5.9-.89a7,7,0,0,1,4.12.22c1.26.62,2,2.39,1.12,3.46a17.25,17.25,0,0,1,6.27-.87A6.08,6.08,0,0,1,76.81,234a1.65,1.65,0,0,1,.08,1.32,2,2,0,0,1-.91.76,105.31,105.31,0,0,1-10.85,4.86c.3,2.64-1.58,5.14-3.92,6.4s-5.06,1.53-7.7,1.79A6.48,6.48,0,0,1,45,253.18a4.52,4.52,0,0,0-1.92-.62c-1.22.06-1.94,1.33-2.81,2.18-2.07,2-5.46,1.81-8.21.87s-5.38-2.45-8.28-2.56a9,9,0,0,0-7.65,3.84,1.51,1.51,0,0,1-.71.68c-.32.09-.74-.23-.6-.53"/><path class="cls-4" d="M15,257.76a73.11,73.11,0,0,1,1.85-12.33,28.06,28.06,0,0,1,6.08-11.38,35.9,35.9,0,0,1,9-7.94,13,13,0,0,1,5.92-1.81c2.32-.06,5.28,1.24,4.88,4a.38.38,0,0,0,.55.42,20.84,20.84,0,0,1,5.34-2c1.47-.32,6-1,5.35,1.86a.38.38,0,0,0,.46.46c2.28-.34,4.56-.78,6.85-1a4.85,4.85,0,0,1,3.14.45,2,2,0,0,1,.73,2.8.38.38,0,0,0,.42.55,16.63,16.63,0,0,1,6.17-.86c1.75.2,4.16,1.22,4.71,3.09.42,1.45-1.37,2-2.36,2.46s-1.85.91-2.79,1.34c-2.06,1-4.15,1.82-6.27,2.63a.39.39,0,0,0-.28.36c.47,6-6.76,7.37-11.24,7.81a.41.41,0,0,0-.37.28,6,6,0,0,1-3.83,3.91,6.48,6.48,0,0,1-4.92-.43c-1.59-.65-2.6.06-3.65,1.24a6.13,6.13,0,0,1-5.2,2.19c-4.06-.17-7.45-3-11.51-3.22a9.17,9.17,0,0,0-4.71,1A9.7,9.7,0,0,0,17.39,255a8,8,0,0,0-1,1.06c-.09.11-1.13,1.24-1.11,1,0-.48-.73-.48-.75,0a.87.87,0,0,0,1.44.69c.55-.37.87-1.1,1.32-1.59a8.75,8.75,0,0,1,2.28-1.73c3.75-2,7.42-.4,11,1,2.72,1.07,6.06,1.95,8.81.46a5.89,5.89,0,0,0,1.44-1.14c.58-.61,1.19-1.62,2.09-1.79s1.8.54,2.65.8a6.29,6.29,0,0,0,2,.24,7,7,0,0,0,6.34-4.81l-.36.27c3-.29,6.27-.6,8.81-2.42a7,7,0,0,0,3.18-6.14l-.27.36c2.69-1,5.35-2.16,8-3.41,1.52-.73,4.78-1.55,4-3.82a5.92,5.92,0,0,0-4.17-3.51c-2.54-.71-5.21,0-7.69.64l.43.55c1.17-1.66-.21-3.71-1.93-4.23a9.06,9.06,0,0,0-4,0l-5.66.84.46.47c.49-2.2-1.72-3.23-3.57-3.17a19.42,19.42,0,0,0-8.22,2.45l.56.43c.41-3-2.27-4.86-5-5-3.46-.17-6.79,1.56-9.46,3.6-5.85,4.46-10.77,10.51-12.77,17.65a72.52,72.52,0,0,0-2,12.95c-.05.48.7.47.75,0Z"/><path class="cls-4" d="M17.05,253.71a34.79,34.79,0,0,1,8.72-7.63,48.59,48.59,0,0,1,10.44-5.54,89.51,89.51,0,0,1,11.29-2.92,96.35,96.35,0,0,1,12.61-2.07,138.64,138.64,0,0,1,14.27-.16.38.38,0,0,0,0-.75c-4.43-.1-8.86-.21-13.29.08a88.17,88.17,0,0,0-12.6,1.93,101.54,101.54,0,0,0-12.05,3,47.77,47.77,0,0,0-10.51,5.42,37.12,37.12,0,0,0-9.53,8.25c-.29.38.36.76.65.38Z"/><path class="cls-4" d="M38.05,238.74a5.25,5.25,0,0,1,1.38-2.59c.6-.81,1.24-1.6,1.92-2.35A14.68,14.68,0,0,1,46,230.24c.44-.21.06-.85-.38-.65a15.63,15.63,0,0,0-5,3.89c-.69.79-1.34,1.62-2,2.46a5.41,5.41,0,0,0-1.35,2.8c0,.49.72.48.75,0Z"/><path class="cls-4" d="M51.36,235.39a31.53,31.53,0,0,1,5.33-2.33c.46-.15.26-.88-.2-.73A32.86,32.86,0,0,0,51,234.74c-.42.24,0,.88.38.65Z"/><path class="cls-4" d="M28.65,241.71a10.23,10.23,0,0,1,3.27-8.36c.35-.32-.18-.85-.53-.53a10.93,10.93,0,0,0-3.49,8.89c0,.48.79.48.75,0Z"/><path class="cls-4" d="M29.6,245.93a11,11,0,0,1,10.24,3.76c.3.37.83-.16.53-.53a11.67,11.67,0,0,0-11-3.95c-.47.08-.27.81.2.72Z"/><path class="cls-4" d="M39.32,243.54A16.55,16.55,0,0,1,51,246c.4.26.78-.39.37-.65a17.29,17.29,0,0,0-12.26-2.48c-.48.08-.28.8.2.72Z"/><path class="cls-4" d="M51.73,239.79a7.52,7.52,0,0,1,6.87,3.84c.23.42.88.05.65-.38A8.27,8.27,0,0,0,51.73,239c-.48,0-.48.78,0,.75Z"/><path class="cls-5" d="M13.19,291.51a8.63,8.63,0,0,1,2.87-13.4c2.48-1.18,5.36-1.11,8.11-1a10.46,10.46,0,0,1,3.58-6,9.11,9.11,0,0,1,6.65-2,13.09,13.09,0,0,1,3.45,1A11.71,11.71,0,0,1,42,272.76a5.43,5.43,0,0,1,1.55,4.52c1.22-2.39,4.41-3,7.07-2.65a10.28,10.28,0,0,1,7.12,3.8c1.6,2.26,1.66,5.7-.35,7.6a7.41,7.41,0,0,1-4,14.18,8.55,8.55,0,0,1-13.92,7.32,9,9,0,0,1-10,3,9,9,0,0,1-5.67-8.75,12.48,12.48,0,0,1-6.44.54,6.41,6.41,0,0,1-2.61-1,5.65,5.65,0,0,1-2-4.5,16,16,0,0,1,1-5"/><path class="cls-6" d="M13.45,291.24a8.35,8.35,0,0,1,.05-10.69c2.7-3.16,6.83-3.22,10.67-3.05a.38.38,0,0,0,.36-.28c1-4.27,4.5-7.84,9.08-7.75,4,.08,10.2,3.08,9.57,7.81,0,.39.53.5.7.19,2-3.51,7.31-2.88,10.38-1.41,3.49,1.68,6.08,6.44,2.88,9.71a.37.37,0,0,0,.07.58,7,7,0,0,1-3.7,13.5c-.22,0-.49.09-.47.36a8.17,8.17,0,0,1-13.28,7.05c-.15-.11-.4-.17-.53,0a8.63,8.63,0,0,1-9.3,3,8.6,8.6,0,0,1-5.73-8.5.38.38,0,0,0-.47-.37c-2.66.91-6.84,1.4-9.1-.72-2.44-2.29-1.41-6-.52-8.78.14-.46-.58-.65-.73-.2-1,3-1.92,7,.72,9.51,2.45,2.33,6.9,1.92,9.83.92l-.48-.36a9.37,9.37,0,0,0,5.95,9.11,9.36,9.36,0,0,0,10.36-3.07h-.53a8.92,8.92,0,0,0,14.56-7.58l-.48.36a7.78,7.78,0,0,0,4.28-14.86l.08.59c3.39-3.47,1.08-8.72-2.7-10.71-3.45-1.83-9.49-2.51-11.74,1.5l.7.19c.67-5.07-5.68-8.26-9.93-8.54-5.05-.33-9.13,3.56-10.19,8.29l.36-.28c-4.35-.2-8.94.07-11.71,3.91a9.13,9.13,0,0,0,.46,11.11c.31.38.83-.16.53-.53Z"/><path class="cls-7" d="M33.54,280.74a4.5,4.5,0,1,0-4.5-4.5,4.55,4.55,0,0,0,4.5,4.5Z"/><path class="cls-7" d="M19,289.49a4.5,4.5,0,1,0-4.5-4.5,4.55,4.55,0,0,0,4.5,4.5Z"/><path class="cls-7" d="M20.15,300.08a4.5,4.5,0,1,0-4.5-4.5,4.55,4.55,0,0,0,4.5,4.5Z"/><path class="cls-7" d="M32.68,308.4a4.5,4.5,0,1,0-4.5-4.5,4.55,4.55,0,0,0,4.5,4.5Z"/><path class="cls-7" d="M45.54,306.56a4.5,4.5,0,1,0-4.5-4.5,4.56,4.56,0,0,0,4.5,4.5Z"/><path class="cls-7" d="M54.5,297.81a4.5,4.5,0,1,0-4.5-4.5,4.55,4.55,0,0,0,4.5,4.5Z"/><path class="cls-7" d="M50.6,286.1a4.5,4.5,0,1,0-4.5-4.5,4.55,4.55,0,0,0,4.5,4.5Z"/><path class="cls-8" d="M50.29,284.64c3.86,0,3.87-6,0-6s-3.87,6,0,6Z"/><path class="cls-8" d="M54.19,296.36c3.86,0,3.87-6,0-6s-3.86,6,0,6Z"/><path class="cls-8" d="M45.08,305.47c3.86,0,3.87-6,0-6s-3.86,6,0,6Z"/><path class="cls-8" d="M32.07,306.77c3.86,0,3.86-6,0-6s-3.87,6,0,6Z"/><path class="cls-8" d="M20.35,299c3.86,0,3.87-6,0-6s-3.86,6,0,6Z"/><path class="cls-8" d="M19.05,287.25c3.86,0,3.87-6,0-6s-3.86,6,0,6Z"/><path class="cls-8" d="M33.37,279.44c3.86,0,3.87-6,0-6s-3.87,6,0,6Z"/><path class="cls-9" d="M34.94,295.86a6,6,0,1,0-6-6,6.06,6.06,0,0,0,6,6Z"/><path class="cls-10" d="M28.61,285.38a9,9,0,0,0-.1,8.49A4.84,4.84,0,0,0,30,295.56a10.92,10.92,0,0,0,2,1,16.17,16.17,0,0,0,2.18.86,5.91,5.91,0,0,0,2.71,0,10.29,10.29,0,0,0,4.22-2.31,4.69,4.69,0,0,0,1.38-1.56,7,7,0,0,0,.5-2.65,13.4,13.4,0,0,0-.44-4.63,5,5,0,0,0-3-3.28,11.56,11.56,0,0,0-5.14-.74c-1.71.15-3.68.52-4.85,1.9a1.54,1.54,0,0,0,0,2.12,1.51,1.51,0,0,0,2.12,0,3.72,3.72,0,0,1,2.49-1,9.21,9.21,0,0,1,3.35.21,4.79,4.79,0,0,1,1.43.51,1.73,1.73,0,0,1,.6.75,7.48,7.48,0,0,1,.47,3c0,.88.16,2.22-.49,2.83a8.91,8.91,0,0,1-2.6,1.74,3.44,3.44,0,0,1-2.81-.09l-1.59-.68a2.8,2.8,0,0,1-1.11-.67,5.65,5.65,0,0,1-.18-5.94c.93-1.69-1.66-3.21-2.6-1.51Z"/><path class="cls-10" d="M35.39,291.4a1.5,1.5,0,0,0,0-3,1.5,1.5,0,0,0,0,3Z"/><path class="cls-3" d="M14.62,153.76c.61-6.6,1.28-13.43,4.57-19.19a37.17,37.17,0,0,1,6-7.51c3.25-3.28,7-6.44,11.61-7a6.82,6.82,0,0,1,4.36.67,3.74,3.74,0,0,1,1.9,3.77,20.17,20.17,0,0,1,7.2-2.33,5.08,5.08,0,0,1,2.84.26,2.07,2.07,0,0,1,1.2,2.36l5.9-.89a7,7,0,0,1,4.12.22c1.26.62,2,2.39,1.12,3.46a17.25,17.25,0,0,1,6.27-.87A6.08,6.08,0,0,1,76.81,130a1.65,1.65,0,0,1,.08,1.32,2,2,0,0,1-.91.76,105.31,105.31,0,0,1-10.85,4.86c.3,2.64-1.58,5.14-3.92,6.4s-5.06,1.53-7.7,1.79A6.48,6.48,0,0,1,45,149.18a4.52,4.52,0,0,0-1.92-.62c-1.22.06-1.94,1.33-2.81,2.18-2.07,2-5.46,1.81-8.21.87s-5.38-2.45-8.28-2.56a9,9,0,0,0-7.65,3.84,1.51,1.51,0,0,1-.71.68c-.32.09-.74-.23-.6-.53"/><path class="cls-4" d="M15,153.76a73.11,73.11,0,0,1,1.85-12.33,28.06,28.06,0,0,1,6.08-11.38,35.9,35.9,0,0,1,9-7.94,13,13,0,0,1,5.92-1.81c2.32-.06,5.28,1.24,4.88,4a.38.38,0,0,0,.55.42,20.84,20.84,0,0,1,5.34-2c1.47-.32,6-1,5.35,1.86a.38.38,0,0,0,.46.46c2.28-.34,4.56-.78,6.85-1a4.85,4.85,0,0,1,3.14.45,2,2,0,0,1,.73,2.8.38.38,0,0,0,.42.55,16.63,16.63,0,0,1,6.17-.86c1.75.2,4.16,1.22,4.71,3.09.42,1.45-1.37,2-2.36,2.46s-1.85.91-2.79,1.34c-2.06,1-4.15,1.82-6.27,2.63a.39.39,0,0,0-.28.36c.47,6-6.76,7.37-11.24,7.81a.41.41,0,0,0-.37.28,6,6,0,0,1-3.83,3.91,6.48,6.48,0,0,1-4.92-.43c-1.59-.65-2.6.06-3.65,1.24a6.13,6.13,0,0,1-5.2,2.19c-4.06-.17-7.45-3-11.51-3.22a9.17,9.17,0,0,0-4.71,1A9.7,9.7,0,0,0,17.39,151a8,8,0,0,0-1,1.06c-.09.11-1.13,1.24-1.11,1,0-.48-.73-.48-.75,0a.87.87,0,0,0,1.44.69c.55-.37.87-1.1,1.32-1.59a8.75,8.75,0,0,1,2.28-1.73c3.75-2,7.42-.4,11,1,2.72,1.07,6.06,1.95,8.81.46a5.89,5.89,0,0,0,1.44-1.14c.58-.61,1.19-1.62,2.09-1.79s1.8.54,2.65.8a6.29,6.29,0,0,0,2,.24,7,7,0,0,0,6.34-4.81l-.36.27c3-.29,6.27-.6,8.81-2.42a7,7,0,0,0,3.18-6.14l-.27.36c2.69-1,5.35-2.16,8-3.41,1.52-.73,4.78-1.55,4-3.82a5.92,5.92,0,0,0-4.17-3.51c-2.54-.71-5.21,0-7.69.64l.43.55c1.17-1.66-.21-3.71-1.93-4.23a9.06,9.06,0,0,0-4,0l-5.66.84.46.47c.49-2.2-1.72-3.23-3.57-3.17a19.42,19.42,0,0,0-8.22,2.45l.56.43c.41-3-2.27-4.86-5-5-3.46-.17-6.79,1.56-9.46,3.6-5.85,4.46-10.77,10.51-12.77,17.65a72.52,72.52,0,0,0-2,12.95c-.05.48.7.47.75,0Z"/><path class="cls-4" d="M17.05,149.71a34.79,34.79,0,0,1,8.72-7.63,48.59,48.59,0,0,1,10.44-5.54,89.51,89.51,0,0,1,11.29-2.92,96.35,96.35,0,0,1,12.61-2.07,138.64,138.64,0,0,1,14.27-.16.38.38,0,0,0,0-.75c-4.43-.1-8.86-.21-13.29.08a88.17,88.17,0,0,0-12.6,1.93,101.54,101.54,0,0,0-12.05,3,47.77,47.77,0,0,0-10.51,5.42,37.12,37.12,0,0,0-9.53,8.25c-.29.38.36.76.65.38Z"/><path class="cls-4" d="M38.05,134.74a5.25,5.25,0,0,1,1.38-2.59c.6-.81,1.24-1.6,1.92-2.35A14.68,14.68,0,0,1,46,126.24c.44-.21.06-.85-.38-.65a15.63,15.63,0,0,0-5,3.89c-.69.79-1.34,1.62-2,2.46a5.41,5.41,0,0,0-1.35,2.8c0,.49.72.48.75,0Z"/><path class="cls-4" d="M51.36,131.39a31.53,31.53,0,0,1,5.33-2.33c.46-.15.26-.88-.2-.73A32.86,32.86,0,0,0,51,130.74c-.42.24,0,.88.38.65Z"/><path class="cls-4" d="M28.65,137.71a10.23,10.23,0,0,1,3.27-8.36c.35-.32-.18-.85-.53-.53a10.93,10.93,0,0,0-3.49,8.89c0,.48.79.48.75,0Z"/><path class="cls-4" d="M29.6,141.93a11,11,0,0,1,10.24,3.76c.3.37.83-.16.53-.53a11.67,11.67,0,0,0-11-3.95c-.47.08-.27.81.2.72Z"/><path class="cls-4" d="M39.32,139.54A16.55,16.55,0,0,1,51,142c.4.26.78-.39.37-.65a17.29,17.29,0,0,0-12.26-2.48c-.48.08-.28.8.2.72Z"/><path class="cls-4" d="M51.73,135.79a7.52,7.52,0,0,1,6.87,3.84c.23.42.88.05.65-.38A8.27,8.27,0,0,0,51.73,135c-.48,0-.48.78,0,.75Z"/><path class="cls-3" d="M12.62,42.76c.61-6.6,1.28-13.43,4.57-19.19a37.17,37.17,0,0,1,6-7.51c3.25-3.28,7-6.44,11.61-7a6.82,6.82,0,0,1,4.36.67,3.74,3.74,0,0,1,1.9,3.77,20.17,20.17,0,0,1,7.2-2.33,5.08,5.08,0,0,1,2.84.26,2.07,2.07,0,0,1,1.2,2.36l5.9-.89a7,7,0,0,1,4.12.22c1.26.62,2,2.39,1.12,3.46a17.25,17.25,0,0,1,6.27-.87A6.08,6.08,0,0,1,74.81,19a1.65,1.65,0,0,1,.08,1.32,2,2,0,0,1-.91.76,105.31,105.31,0,0,1-10.85,4.86c.3,2.64-1.58,5.14-3.92,6.4s-5.06,1.53-7.7,1.79A6.48,6.48,0,0,1,43,38.18a4.52,4.52,0,0,0-1.92-.62c-1.22.06-1.94,1.33-2.81,2.18-2.07,2-5.46,1.81-8.21.87s-5.38-2.45-8.28-2.56a9,9,0,0,0-7.65,3.84,1.51,1.51,0,0,1-.71.68c-.32.09-.74-.23-.6-.53"/><path class="cls-4" d="M13,42.76a73.11,73.11,0,0,1,1.85-12.33,28.06,28.06,0,0,1,6.08-11.38,35.9,35.9,0,0,1,9-7.94A13,13,0,0,1,35.85,9.3c2.32-.06,5.28,1.24,4.88,4a.38.38,0,0,0,.55.42,20.84,20.84,0,0,1,5.34-2c1.47-.32,6-1,5.35,1.86a.38.38,0,0,0,.46.46c2.28-.34,4.56-.78,6.85-1a4.85,4.85,0,0,1,3.14.45,2,2,0,0,1,.73,2.8.38.38,0,0,0,.42.55A16.63,16.63,0,0,1,69.74,16c1.75.2,4.16,1.22,4.71,3.09.42,1.45-1.37,2-2.36,2.46s-1.85.91-2.79,1.34c-2.06.95-4.15,1.82-6.27,2.63a.39.39,0,0,0-.28.36c.47,6-6.76,7.37-11.24,7.81a.41.41,0,0,0-.37.28,6,6,0,0,1-3.83,3.91,6.48,6.48,0,0,1-4.92-.43c-1.59-.65-2.6.06-3.65,1.24a6.13,6.13,0,0,1-5.2,2.19c-4.06-.17-7.45-3-11.51-3.22a9.17,9.17,0,0,0-4.71,1A9.7,9.7,0,0,0,15.39,40a8,8,0,0,0-1,1.06c-.09.11-1.13,1.24-1.11,1,0-.48-.73-.48-.75,0a.87.87,0,0,0,1.44.69c.55-.37.87-1.1,1.32-1.59a8.75,8.75,0,0,1,2.28-1.73c3.75-2,7.42-.4,11,1,2.72,1.07,6.06,2,8.81.46a5.89,5.89,0,0,0,1.44-1.14c.58-.61,1.19-1.62,2.09-1.79s1.8.54,2.65.8a6.29,6.29,0,0,0,2,.24,7,7,0,0,0,6.34-4.81l-.36.27c3-.29,6.27-.6,8.81-2.42a7,7,0,0,0,3.18-6.14l-.27.36c2.69-1,5.35-2.16,8-3.41,1.52-.73,4.78-1.55,4-3.82a5.92,5.92,0,0,0-4.17-3.51c-2.54-.71-5.21,0-7.69.64l.43.55c1.17-1.66-.21-3.71-1.93-4.23a9.06,9.06,0,0,0-4,0l-5.66.84.46.47c.49-2.2-1.72-3.23-3.57-3.17a19.42,19.42,0,0,0-8.22,2.45l.56.43c.41-3-2.27-4.86-5-5C33,8.39,29.68,10.12,27,12.16c-5.85,4.46-10.77,10.51-12.77,17.65a72.52,72.52,0,0,0-2,13c-.05.48.7.47.75,0Z"/><path class="cls-4" d="M15.05,38.71a34.79,34.79,0,0,1,8.72-7.63,48.59,48.59,0,0,1,10.44-5.54A89.51,89.51,0,0,1,45.5,22.62a96.35,96.35,0,0,1,12.61-2.07,138.64,138.64,0,0,1,14.27-.16.38.38,0,0,0,0-.75c-4.43-.1-8.86-.21-13.29.08a88.17,88.17,0,0,0-12.6,1.93,101.54,101.54,0,0,0-12.05,3,47.77,47.77,0,0,0-10.51,5.42,37.12,37.12,0,0,0-9.53,8.25c-.29.38.36.76.65.38Z"/><path class="cls-4" d="M36.05,23.74a5.25,5.25,0,0,1,1.38-2.59c.6-.81,1.24-1.6,1.92-2.35A14.68,14.68,0,0,1,44,15.24c.44-.21.06-.85-.38-.65a15.63,15.63,0,0,0-5,3.89c-.69.79-1.34,1.62-2,2.46a5.41,5.41,0,0,0-1.35,2.8c0,.49.72.48.75,0Z"/><path class="cls-4" d="M49.36,20.39a31.53,31.53,0,0,1,5.33-2.33c.46-.15.26-.88-.2-.73A32.86,32.86,0,0,0,49,19.74c-.42.24,0,.88.38.65Z"/><path class="cls-4" d="M26.65,26.71a10.23,10.23,0,0,1,3.27-8.36c.35-.32-.18-.85-.53-.53a10.93,10.93,0,0,0-3.49,8.89c0,.48.79.48.75,0Z"/><path class="cls-4" d="M27.6,30.93a11,11,0,0,1,10.24,3.76c.3.37.83-.16.53-.53a11.67,11.67,0,0,0-11-3.95c-.47.08-.27.81.2.72Z"/><path class="cls-4" d="M37.32,28.54A16.55,16.55,0,0,1,49,31c.4.26.78-.39.37-.65a17.29,17.29,0,0,0-12.26-2.48c-.48.08-.28.8.2.72Z"/><path class="cls-4" d="M49.73,24.79a7.52,7.52,0,0,1,6.87,3.84c.23.42.88.05.65-.38A8.27,8.27,0,0,0,49.73,24c-.48,0-.48.78,0,.75Z"/><path class="cls-5" d="M17.19,187.51a8.63,8.63,0,0,1,2.87-13.4c2.48-1.18,5.36-1.11,8.11-1a10.46,10.46,0,0,1,3.58-6,9.11,9.11,0,0,1,6.65-2,13.09,13.09,0,0,1,3.45,1A11.71,11.71,0,0,1,46,168.76a5.43,5.43,0,0,1,1.55,4.52c1.22-2.39,4.41-3,7.07-2.65a10.28,10.28,0,0,1,7.12,3.8c1.6,2.26,1.66,5.7-.35,7.6a7.41,7.41,0,0,1-4,14.18,8.55,8.55,0,0,1-13.92,7.32,8.7,8.7,0,0,1-15.66-5.78,12.48,12.48,0,0,1-6.44.54,6.41,6.41,0,0,1-2.61-1,5.65,5.65,0,0,1-2.05-4.5,16,16,0,0,1,1-5"/><path class="cls-6" d="M17.45,187.24a8.35,8.35,0,0,1,.05-10.69c2.7-3.16,6.83-3.22,10.67-3.05a.38.38,0,0,0,.36-.28c1-4.27,4.5-7.84,9.08-7.75,4,.08,10.2,3.08,9.57,7.81,0,.39.53.5.7.19,2-3.51,7.31-2.88,10.38-1.41,3.49,1.68,6.08,6.44,2.88,9.71a.37.37,0,0,0,.07.58,7,7,0,0,1-3.7,13.5c-.22,0-.49.09-.47.36a8.17,8.17,0,0,1-13.28,7c-.15-.11-.4-.17-.53,0a8.63,8.63,0,0,1-9.3,3,8.6,8.6,0,0,1-5.73-8.5.38.38,0,0,0-.47-.37c-2.66.91-6.84,1.4-9.1-.72-2.44-2.29-1.41-6-.52-8.78.14-.46-.58-.65-.73-.2-1,3-1.92,7,.72,9.51,2.45,2.33,6.9,1.92,9.83.92l-.48-.36a9.37,9.37,0,0,0,5.95,9.11,9.36,9.36,0,0,0,10.36-3.07h-.53a8.92,8.92,0,0,0,14.56-7.58l-.48.36a7.78,7.78,0,0,0,4.28-14.86l.08.59c3.39-3.47,1.08-8.72-2.7-10.71-3.45-1.83-9.49-2.51-11.74,1.5l.7.19c.67-5.07-5.68-8.26-9.93-8.54-5-.33-9.13,3.56-10.19,8.29l.36-.28c-4.35-.2-8.94.07-11.71,3.91a9.13,9.13,0,0,0,.46,11.11c.31.38.83-.16.53-.53Z"/><path class="cls-7" d="M37.54,176.74a4.5,4.5,0,1,0-4.5-4.5,4.55,4.55,0,0,0,4.5,4.5Z"/><path class="cls-7" d="M23,185.49a4.5,4.5,0,1,0-4.5-4.5,4.55,4.55,0,0,0,4.5,4.5Z"/><path class="cls-7" d="M24.15,196.08a4.5,4.5,0,1,0-4.5-4.5,4.55,4.55,0,0,0,4.5,4.5Z"/><path class="cls-7" d="M36.68,204.4a4.5,4.5,0,1,0-4.5-4.5,4.55,4.55,0,0,0,4.5,4.5Z"/><path class="cls-7" d="M49.54,202.56a4.5,4.5,0,1,0-4.5-4.5,4.56,4.56,0,0,0,4.5,4.5Z"/><path class="cls-7" d="M58.5,193.81a4.5,4.5,0,1,0-4.5-4.5,4.55,4.55,0,0,0,4.5,4.5Z"/><path class="cls-7" d="M54.6,182.1a4.5,4.5,0,1,0-4.5-4.5,4.55,4.55,0,0,0,4.5,4.5Z"/><path class="cls-8" d="M54.29,180.64c3.86,0,3.87-6,0-6s-3.87,6,0,6Z"/><path class="cls-8" d="M58.19,192.36c3.86,0,3.87-6,0-6s-3.86,6,0,6Z"/><path class="cls-8" d="M49.08,201.47c3.86,0,3.87-6,0-6s-3.86,6,0,6Z"/><path class="cls-8" d="M36.07,202.77c3.86,0,3.86-6,0-6s-3.87,6,0,6Z"/><path class="cls-8" d="M24.35,195c3.86,0,3.87-6,0-6s-3.86,6,0,6Z"/><path class="cls-8" d="M23.05,183.25c3.86,0,3.87-6,0-6s-3.86,6,0,6Z"/><path class="cls-8" d="M37.37,175.44c3.86,0,3.87-6,0-6s-3.87,6,0,6Z"/><path class="cls-9" d="M38.94,191.86a6,6,0,1,0-6-6,6.06,6.06,0,0,0,6,6Z"/><path class="cls-10" d="M32.61,181.38a9,9,0,0,0-.1,8.49A4.84,4.84,0,0,0,34,191.56a10.92,10.92,0,0,0,2,1,16.17,16.17,0,0,0,2.18.86,5.91,5.91,0,0,0,2.71,0,10.29,10.29,0,0,0,4.22-2.31,4.69,4.69,0,0,0,1.38-1.56,7,7,0,0,0,.5-2.65,13.4,13.4,0,0,0-.44-4.63,5,5,0,0,0-3-3.28,11.56,11.56,0,0,0-5.14-.74c-1.71.15-3.68.52-4.85,1.9a1.54,1.54,0,0,0,0,2.12,1.51,1.51,0,0,0,2.12,0,3.72,3.72,0,0,1,2.49-1,9.21,9.21,0,0,1,3.35.21,4.79,4.79,0,0,1,1.43.51,1.73,1.73,0,0,1,.6.75,7.48,7.48,0,0,1,.47,3c0,.88.16,2.22-.49,2.83a8.91,8.91,0,0,1-2.6,1.74,3.44,3.44,0,0,1-2.81-.09l-1.59-.68a2.8,2.8,0,0,1-1.11-.67,5.65,5.65,0,0,1-.18-5.94c.93-1.69-1.66-3.21-2.6-1.51Z"/><path class="cls-10" d="M39.39,187.4a1.5,1.5,0,0,0,0-3,1.5,1.5,0,0,0,0,3Z"/><path class="cls-5" d="M17.19,80.51a8.63,8.63,0,0,1,2.87-13.4c2.48-1.18,5.36-1.11,8.11-1a10.46,10.46,0,0,1,3.58-6,9.11,9.11,0,0,1,6.65-2,13.09,13.09,0,0,1,3.45,1A11.71,11.71,0,0,1,46,61.76a5.43,5.43,0,0,1,1.55,4.52c1.22-2.39,4.41-3,7.07-2.65a10.28,10.28,0,0,1,7.12,3.8c1.6,2.26,1.66,5.7-.35,7.6a7.41,7.41,0,0,1-4,14.18,8.55,8.55,0,0,1-13.92,7.32,8.7,8.7,0,0,1-15.66-5.78,12.48,12.48,0,0,1-6.44.54,6.41,6.41,0,0,1-2.61-1,5.65,5.65,0,0,1-2.05-4.5,16,16,0,0,1,1-5"/><path class="cls-6" d="M17.45,80.24a8.35,8.35,0,0,1,.05-10.69c2.7-3.16,6.83-3.22,10.67-3a.38.38,0,0,0,.36-.28c1-4.27,4.5-7.84,9.08-7.75,4,.08,10.2,3.08,9.57,7.81,0,.39.53.5.7.19,2-3.51,7.31-2.88,10.38-1.41,3.49,1.68,6.08,6.44,2.88,9.71a.37.37,0,0,0,.07.58,7,7,0,0,1-3.7,13.5c-.22,0-.49.09-.47.36a8.17,8.17,0,0,1-13.28,7.05c-.15-.11-.4-.17-.53,0a8.63,8.63,0,0,1-9.3,3,8.6,8.6,0,0,1-5.73-8.5.38.38,0,0,0-.47-.37c-2.66.91-6.84,1.4-9.1-.72-2.44-2.29-1.41-6-.52-8.78.14-.46-.58-.65-.73-.2-1,3-1.92,7,.72,9.51,2.45,2.33,6.9,1.92,9.83.92l-.48-.36a9.37,9.37,0,0,0,5.95,9.11,9.36,9.36,0,0,0,10.36-3.07h-.53a8.92,8.92,0,0,0,14.56-7.58l-.48.36a7.78,7.78,0,0,0,4.28-14.86l.08.59c3.39-3.47,1.08-8.72-2.7-10.71-3.45-1.83-9.49-2.51-11.74,1.5l.7.19C48.6,61.21,42.25,58,38,57.74c-5-.33-9.13,3.56-10.19,8.29l.36-.28c-4.35-.2-8.94.07-11.71,3.91a9.13,9.13,0,0,0,.46,11.11c.31.38.83-.16.53-.53Z"/><path class="cls-7" d="M37.54,69.74a4.5,4.5,0,1,0-4.5-4.5,4.55,4.55,0,0,0,4.5,4.5Z"/><path class="cls-7" d="M23,78.49a4.5,4.5,0,1,0-4.5-4.5,4.55,4.55,0,0,0,4.5,4.5Z"/><path class="cls-7" d="M24.15,89.08a4.5,4.5,0,1,0-4.5-4.5,4.55,4.55,0,0,0,4.5,4.5Z"/><path class="cls-7" d="M36.68,97.4a4.5,4.5,0,1,0-4.5-4.5,4.55,4.55,0,0,0,4.5,4.5Z"/><path class="cls-7" d="M49.54,95.56a4.5,4.5,0,1,0-4.5-4.5,4.56,4.56,0,0,0,4.5,4.5Z"/><path class="cls-7" d="M58.5,86.81a4.5,4.5,0,1,0-4.5-4.5,4.55,4.55,0,0,0,4.5,4.5Z"/><path class="cls-7" d="M54.6,75.1a4.5,4.5,0,1,0-4.5-4.5,4.55,4.55,0,0,0,4.5,4.5Z"/><path class="cls-8" d="M54.29,73.64c3.86,0,3.87-6,0-6s-3.87,6,0,6Z"/><path class="cls-8" d="M58.19,85.36c3.86,0,3.87-6,0-6s-3.86,6,0,6Z"/><path class="cls-8" d="M49.08,94.47c3.86,0,3.87-6,0-6s-3.86,6,0,6Z"/><path class="cls-8" d="M36.07,95.77c3.86,0,3.86-6,0-6s-3.87,6,0,6Z"/><path class="cls-8" d="M24.35,88c3.86,0,3.87-6,0-6s-3.86,6,0,6Z"/><path class="cls-8" d="M23.05,76.25c3.86,0,3.87-6,0-6s-3.86,6,0,6Z"/><path class="cls-8" d="M37.37,68.44c3.86,0,3.87-6,0-6s-3.87,6,0,6Z"/><path class="cls-9" d="M38.94,84.86a6,6,0,1,0-6-6,6.06,6.06,0,0,0,6,6Z"/><path class="cls-10" d="M32.61,74.38a9,9,0,0,0-.1,8.49A4.84,4.84,0,0,0,34,84.56a10.92,10.92,0,0,0,2,1,16.17,16.17,0,0,0,2.18.86,5.91,5.91,0,0,0,2.71,0,10.29,10.29,0,0,0,4.22-2.31,4.69,4.69,0,0,0,1.38-1.56,7,7,0,0,0,.5-2.65,13.4,13.4,0,0,0-.44-4.63,5,5,0,0,0-3-3.28,11.56,11.56,0,0,0-5.14-.74c-1.71.15-3.68.52-4.85,1.9a1.54,1.54,0,0,0,0,2.12,1.51,1.51,0,0,0,2.12,0,3.72,3.72,0,0,1,2.49-1,9.21,9.21,0,0,1,3.35.21,4.79,4.79,0,0,1,1.43.51,1.73,1.73,0,0,1,.6.75,7.48,7.48,0,0,1,.47,3c0,.88.16,2.22-.49,2.83a8.91,8.91,0,0,1-2.6,1.74,3.44,3.44,0,0,1-2.81-.09L36.5,82.5a2.8,2.8,0,0,1-1.11-.67,5.65,5.65,0,0,1-.18-5.94c.93-1.69-1.66-3.21-2.6-1.51Z"/><path class="cls-10" d="M39.39,80.4a1.5,1.5,0,0,0,0-3,1.5,1.5,0,0,0,0,3Z"/></g></g></svg>
