<svg xmlns="http://www.w3.org/2000/svg" viewBox="0 0 76.35 768"><defs><style>.cls-1{fill:#dcbb67;}.cls-2{fill:#cbbdc1;}.cls-3{fill:#6a7e6f;}.cls-4{fill:#505e53;}.cls-5{fill:#cc9f82;}.cls-6{fill:#bb9d8d;}.cls-7{fill:#f2a480;}.cls-8{fill:#9f5023;}.cls-9{fill:#efb85a;}.cls-10{fill:#be7643;}</style></defs><g id="Layer_2" data-name="Layer 2"><g id="Layer_1-2" data-name="Layer 1"><rect class="cls-1" x="53.65" width="22.7" height="768" transform="translate(130 768) rotate(180)"/><rect class="cls-2" x="25.03" width="32.57" height="768" transform="translate(82.63 768) rotate(180)"/><path class="cls-3" d="M70.8,691.76c-.59-6.6-1.26-13.43-4.51-19.19a36.78,36.78,0,0,0-6-7.51c-3.2-3.28-6.94-6.44-11.45-7a6.66,6.66,0,0,0-4.31.67,3.76,3.76,0,0,0-1.88,3.77,19.67,19.67,0,0,0-7.1-2.33,4.93,4.93,0,0,0-2.8.26,2.08,2.08,0,0,0-1.19,2.36l-5.82-.89a6.86,6.86,0,0,0-4.07.22c-1.24.62-2,2.39-1.11,3.46a16.77,16.77,0,0,0-6.18-.87,6,6,0,0,0-5,3.31,1.65,1.65,0,0,0-.08,1.32,2,2,0,0,0,.91.76A102.9,102.9,0,0,0,21,674.91c-.29,2.64,1.56,5.14,3.87,6.4s5,1.53,7.6,1.79a6.38,6.38,0,0,0,8.36,4.08,4.44,4.44,0,0,1,1.9-.62c1.2.06,1.91,1.33,2.76,2.18,2.05,2,5.4,1.81,8.11.87s5.31-2.45,8.18-2.56a8.84,8.84,0,0,1,7.55,3.84,1.49,1.49,0,0,0,.7.68c.31.09.73-.23.59-.53"/><path class="cls-4" d="M71.18,691.76c-.67-7.42-1.48-15.13-5.84-21.41A45.41,45.41,0,0,0,58,662.26a17.86,17.86,0,0,0-8.76-4.58c-3.08-.47-7.38.88-6.86,4.77l.56-.33a19,19,0,0,0-8.11-2.45c-1.85-.07-4,1-3.53,3.17l.46-.47-5.34-.8a10.08,10.08,0,0,0-4-.14c-1.81.46-3.29,2.55-2.1,4.29l.42-.55c-2.49-.68-5.2-1.38-7.76-.59a5.74,5.74,0,0,0-4,3.62c-.54,2.1,2.42,2.86,3.84,3.55,2.63,1.29,5.33,2.46,8.06,3.52l-.27-.36a7.05,7.05,0,0,0,3.14,6.14c2.5,1.81,5.72,2.13,8.7,2.42l-.36-.27a6.84,6.84,0,0,0,5.38,4.71,6.18,6.18,0,0,0,3.48-.38c1.14-.47,2-.86,3,.09.59.55,1,1.23,1.66,1.74,2.25,1.82,5.5,1.49,8.07.61,3.55-1.2,7-3.4,10.87-2.16a8.69,8.69,0,0,1,2.78,1.49,21.36,21.36,0,0,1,1.91,2.13c.56.6,1.79.76,1.73-.39,0-.48-.77-.48-.75,0,0,.21-1-.9-1.09-1a9.27,9.27,0,0,0-1-1.06,9.16,9.16,0,0,0-1.91-1.29,9,9,0,0,0-4.44-1c-4.1.16-7.49,3.06-11.58,3.24A6,6,0,0,1,45,687.72c-1-1.08-1.93-1.87-3.42-1.32-1.78.65-3.16,1.17-5,.51A6,6,0,0,1,32.79,683a.4.4,0,0,0-.37-.28c-4.48-.44-11.55-1.81-11.09-7.81a.39.39,0,0,0-.28-.36c-2-.78-4-1.62-6-2.53-.93-.43-1.85-.87-2.76-1.33s-2.83-1-2.65-2.29c.25-1.8,2.62-3,4.17-3.28,2.23-.45,4.53.19,6.67.77.3.08.62-.27.43-.55a2.06,2.06,0,0,1,.83-2.87,5.12,5.12,0,0,1,3.19-.36c2.19.26,4.37.66,6.55,1a.38.38,0,0,0,.46-.46c-.63-2.88,3.79-2.18,5.27-1.86a20.23,20.23,0,0,1,5.27,2c.22.12.61,0,.57-.32-.37-2.73,2.21-4.15,4.59-4.15A12.34,12.34,0,0,1,53.55,660c3.51,2,6.45,5,9.05,8a28.37,28.37,0,0,1,5.95,11.17,73.57,73.57,0,0,1,1.88,12.54c0,.47.79.48.75,0Z"/><path class="cls-4" d="M69.05,687.33a33.78,33.78,0,0,0-8-7.29A52.1,52.1,0,0,0,51,674.29a73.08,73.08,0,0,0-11.71-3.24,106.16,106.16,0,0,0-12.38-2.17,126,126,0,0,0-15-.24.38.38,0,0,0,0,.75c4.13-.1,8.26-.19,12.39,0a82.64,82.64,0,0,1,12.5,1.84c3.78.81,7.6,1.58,11.3,2.76a43.92,43.92,0,0,1,10.54,5.23c3.65,2.37,7.21,5,9.85,8.45.29.38.94,0,.65-.38Z"/><path class="cls-4" d="M48.43,672.74a5.34,5.34,0,0,0-1.3-2.74c-.63-.86-1.28-1.71-2-2.52a15.39,15.39,0,0,0-4.89-3.89c-.44-.21-.82.44-.38.65a14.45,14.45,0,0,1,4.55,3.56,28.93,28.93,0,0,1,1.85,2.29,5.48,5.48,0,0,1,1.41,2.65c0,.48.78.49.75,0Z"/><path class="cls-4" d="M34.92,668.74a32.17,32.17,0,0,0-5.44-2.41c-.46-.15-.66.57-.2.73a30.85,30.85,0,0,1,5.26,2.33.38.38,0,0,0,.38-.65Z"/><path class="cls-4" d="M57.7,675.71a11,11,0,0,0-3.44-8.89c-.35-.32-.89.21-.53.53A10.31,10.31,0,0,1,57,675.71c0,.48.71.48.75,0Z"/><path class="cls-4" d="M56.21,679.21a11.46,11.46,0,0,0-10.82,3.95c-.3.37.22.91.53.53A10.71,10.71,0,0,1,56,679.93c.48.09.68-.64.2-.72Z"/><path class="cls-4" d="M46.63,676.82a16.94,16.94,0,0,0-12.11,2.48c-.41.26,0,.91.37.65a16.2,16.2,0,0,1,11.54-2.41c.47.08.67-.64.2-.72Z"/><path class="cls-4" d="M34.17,673a8.15,8.15,0,0,0-7.42,4.21c-.23.43.42.81.65.38a7.38,7.38,0,0,1,6.77-3.84c.49,0,.48-.72,0-.75Z"/><path class="cls-3" d="M66.85,581.76c-.59-6.6-1.26-13.43-4.5-19.19a37.17,37.17,0,0,0-6-7.51c-3.2-3.28-6.94-6.44-11.45-7a6.67,6.67,0,0,0-4.31.67,3.77,3.77,0,0,0-1.88,3.77,19.61,19.61,0,0,0-7.1-2.33,4.94,4.94,0,0,0-2.8.26,2.08,2.08,0,0,0-1.19,2.36l-5.82-.89a6.86,6.86,0,0,0-4.07.22c-1.24.62-2,2.39-1.11,3.46a16.77,16.77,0,0,0-6.18-.87,6,6,0,0,0-5,3.31,1.69,1.69,0,0,0-.08,1.32,2,2,0,0,0,.91.76A102.9,102.9,0,0,0,17,564.91c-.29,2.64,1.57,5.14,3.87,6.4s5,1.53,7.61,1.79a6.36,6.36,0,0,0,8.35,4.08,4.48,4.48,0,0,1,1.9-.62c1.2.06,1.91,1.33,2.77,2.18,2,2,5.39,1.81,8.11.87s5.31-2.45,8.17-2.56a8.84,8.84,0,0,1,7.55,3.84,1.53,1.53,0,0,0,.7.68c.32.09.73-.23.59-.53"/><path class="cls-4" d="M67.23,581.76c-.67-7.42-1.47-15.13-5.84-21.41A44.67,44.67,0,0,0,54,552.26a17.82,17.82,0,0,0-8.76-4.58c-3.08-.47-7.38.88-6.86,4.77l.56-.33a19,19,0,0,0-8.11-2.45c-1.85-.07-4,1-3.53,3.17l.46-.47-5.34-.8a10.08,10.08,0,0,0-4-.14c-1.81.46-3.29,2.55-2.1,4.29l.42-.55c-2.49-.68-5.2-1.38-7.76-.59a5.74,5.74,0,0,0-4,3.62c-.54,2.1,2.42,2.86,3.84,3.55q4,1.93,8.07,3.52l-.28-.36a7.05,7.05,0,0,0,3.14,6.14c2.5,1.81,5.72,2.13,8.71,2.42l-.36-.27a6.81,6.81,0,0,0,5.37,4.71,6.18,6.18,0,0,0,3.48-.38c1.14-.47,2-.86,3,.09.58.55,1,1.23,1.65,1.74,2.26,1.82,5.5,1.49,8.08.61,3.54-1.2,7-3.4,10.86-2.16a8.69,8.69,0,0,1,2.78,1.49,21.36,21.36,0,0,1,1.91,2.13c.56.6,1.8.76,1.73-.39,0-.48-.77-.48-.75,0,0,.21-1-.9-1.08-1a10.31,10.31,0,0,0-1-1.06,9.16,9.16,0,0,0-1.91-1.29,9,9,0,0,0-4.44-1c-4.1.16-7.48,3.06-11.58,3.24a6,6,0,0,1-5.12-2.19c-.95-1.08-1.92-1.87-3.42-1.32-1.78.65-3.16,1.17-5,.51A6,6,0,0,1,28.84,573a.38.38,0,0,0-.36-.28c-4.49-.44-11.55-1.81-11.1-7.81a.39.39,0,0,0-.28-.36c-2-.78-4-1.62-6-2.53-.93-.43-1.84-.87-2.76-1.33s-2.82-1-2.65-2.29c.26-1.8,2.62-3,4.17-3.28,2.23-.45,4.53.19,6.67.77.3.08.62-.27.43-.55a2.06,2.06,0,0,1,.83-2.87,5.13,5.13,0,0,1,3.19-.36c2.19.26,4.37.66,6.55,1a.38.38,0,0,0,.46-.46c-.63-2.88,3.79-2.18,5.27-1.86a20.23,20.23,0,0,1,5.27,2c.23.12.61,0,.57-.32-.37-2.73,2.21-4.15,4.59-4.15A12.34,12.34,0,0,1,49.6,550a35.07,35.07,0,0,1,9,8,28.24,28.24,0,0,1,5.95,11.17,73.57,73.57,0,0,1,1.88,12.54c0,.47.79.48.75,0Z"/><path class="cls-4" d="M65.1,577.33a33.78,33.78,0,0,0-8-7.29A52.1,52.1,0,0,0,47,564.29a72.8,72.8,0,0,0-11.71-3.24,106.16,106.16,0,0,0-12.38-2.17,125.93,125.93,0,0,0-15-.24.38.38,0,0,0,0,.75c4.13-.1,8.26-.19,12.39,0a82.46,82.46,0,0,1,12.5,1.84c3.79.81,7.61,1.58,11.3,2.76a44,44,0,0,1,10.55,5.23c3.64,2.37,7.2,5,9.85,8.45.28.38.93,0,.64-.38Z"/><path class="cls-4" d="M44.48,562.74A5.32,5.32,0,0,0,43.19,560c-.64-.86-1.29-1.71-2-2.52a15.54,15.54,0,0,0-4.9-3.89c-.44-.21-.82.44-.38.65a14.45,14.45,0,0,1,4.55,3.56,28.93,28.93,0,0,1,1.85,2.29,5.4,5.4,0,0,1,1.41,2.65c0,.48.78.49.75,0Z"/><path class="cls-4" d="M31,558.74a31.82,31.82,0,0,0-5.44-2.41c-.46-.15-.66.57-.2.73a30.85,30.85,0,0,1,5.26,2.33.38.38,0,0,0,.38-.65Z"/><path class="cls-4" d="M53.75,565.71a11,11,0,0,0-3.44-8.89c-.35-.32-.88.21-.53.53A10.27,10.27,0,0,1,53,565.71c0,.48.71.48.75,0Z"/><path class="cls-4" d="M52.27,569.21a11.47,11.47,0,0,0-10.83,3.95c-.3.37.23.91.53.53a10.72,10.72,0,0,1,10.1-3.76c.47.09.67-.64.2-.72Z"/><path class="cls-4" d="M42.68,566.82a17,17,0,0,0-12.11,2.48c-.4.26,0,.91.38.65a16.16,16.16,0,0,1,11.53-2.41c.47.08.68-.64.2-.72Z"/><path class="cls-4" d="M30.22,563a8.12,8.12,0,0,0-7.41,4.21c-.23.43.41.81.64.38a7.38,7.38,0,0,1,6.77-3.84c.49,0,.49-.72,0-.75Z"/><path class="cls-3" d="M63.89,477.76c-.59-6.6-1.26-13.43-4.5-19.19a37.17,37.17,0,0,0-6-7.51c-3.2-3.28-6.94-6.44-11.45-7.05a6.66,6.66,0,0,0-4.31.67,3.76,3.76,0,0,0-1.88,3.77,19.67,19.67,0,0,0-7.1-2.33,4.93,4.93,0,0,0-2.8.26,2.08,2.08,0,0,0-1.19,2.36l-5.82-.89a6.86,6.86,0,0,0-4.07.22c-1.24.62-2,2.39-1.11,3.46a16.77,16.77,0,0,0-6.18-.87,6,6,0,0,0-5,3.31,1.69,1.69,0,0,0-.08,1.32,2,2,0,0,0,.91.76A102.9,102.9,0,0,0,14,460.91c-.29,2.64,1.56,5.14,3.87,6.4s5,1.53,7.61,1.79a6.36,6.36,0,0,0,8.35,4.08,4.48,4.48,0,0,1,1.9-.62c1.2.06,1.91,1.33,2.76,2.18,2,2,5.4,1.81,8.11.87s5.31-2.45,8.18-2.56a8.84,8.84,0,0,1,7.55,3.84,1.49,1.49,0,0,0,.7.68c.32.09.73-.23.59-.53"/><path class="cls-4" d="M64.27,477.76c-.67-7.42-1.47-15.13-5.84-21.41A45,45,0,0,0,51,448.26a17.82,17.82,0,0,0-8.76-4.58c-3.08-.47-7.38.88-6.86,4.77l.56-.33a19,19,0,0,0-8.11-2.45c-1.85-.07-4,1-3.53,3.17l.46-.47-5.34-.8a10.08,10.08,0,0,0-4-.14c-1.81.46-3.29,2.55-2.1,4.29l.42-.55c-2.49-.68-5.2-1.38-7.76-.59a5.74,5.74,0,0,0-4,3.62c-.54,2.1,2.42,2.86,3.84,3.55,2.63,1.29,5.33,2.46,8.06,3.52l-.27-.36a7.05,7.05,0,0,0,3.14,6.14c2.5,1.81,5.72,2.13,8.71,2.42l-.37-.27a6.84,6.84,0,0,0,5.38,4.71,6.18,6.18,0,0,0,3.48-.38c1.14-.47,2-.86,3,.09.59.55,1,1.23,1.66,1.74,2.25,1.82,5.5,1.49,8.07.61,3.55-1.2,7-3.4,10.87-2.16a8.69,8.69,0,0,1,2.78,1.49,21.36,21.36,0,0,1,1.91,2.13c.56.6,1.79.76,1.73-.39,0-.48-.77-.48-.75,0,0,.21-1-.9-1.09-1a9.27,9.27,0,0,0-1-1.06,9.16,9.16,0,0,0-1.91-1.29,9,9,0,0,0-4.44-1c-4.1.16-7.49,3.06-11.58,3.24a6,6,0,0,1-5.12-2.19c-.95-1.08-1.93-1.87-3.42-1.32-1.78.65-3.16,1.17-5,.51A6,6,0,0,1,25.88,469a.39.39,0,0,0-.36-.28c-4.49-.44-11.56-1.81-11.1-7.81a.39.39,0,0,0-.28-.36c-2-.78-4-1.62-6-2.53-.93-.43-1.85-.87-2.76-1.33s-2.83-1-2.65-2.29c.26-1.8,2.62-3,4.17-3.28,2.23-.45,4.53.19,6.67.77.3.08.62-.27.43-.55a2.06,2.06,0,0,1,.83-2.87,5.13,5.13,0,0,1,3.19-.36c2.19.26,4.37.66,6.55,1a.38.38,0,0,0,.46-.46c-.63-2.88,3.79-2.18,5.27-1.86a20.23,20.23,0,0,1,5.27,2c.22.12.61,0,.57-.32-.37-2.73,2.21-4.15,4.59-4.15A12.34,12.34,0,0,1,46.64,446a35.07,35.07,0,0,1,9,8,28.24,28.24,0,0,1,6,11.17,73.57,73.57,0,0,1,1.88,12.54c0,.47.79.48.75,0Z"/><path class="cls-4" d="M62.14,473.33a33.78,33.78,0,0,0-8-7.29,52.1,52.1,0,0,0-10.11-5.75,73.08,73.08,0,0,0-11.71-3.24A106.16,106.16,0,0,0,20,454.88a125.93,125.93,0,0,0-15-.24.38.38,0,0,0,0,.75c4.13-.1,8.26-.19,12.39,0a82.46,82.46,0,0,1,12.5,1.84c3.79.81,7.61,1.58,11.3,2.76a44,44,0,0,1,10.55,5.23c3.64,2.37,7.2,4.95,9.84,8.45.29.38.94,0,.65-.38Z"/><path class="cls-4" d="M41.52,458.74a5.34,5.34,0,0,0-1.3-2.74c-.63-.86-1.28-1.71-2-2.52a15.39,15.39,0,0,0-4.89-3.89c-.44-.21-.82.44-.38.65a14.45,14.45,0,0,1,4.55,3.56,28.93,28.93,0,0,1,1.85,2.29,5.48,5.48,0,0,1,1.41,2.65c0,.48.78.49.75,0Z"/><path class="cls-4" d="M28,454.74a32.17,32.17,0,0,0-5.44-2.41c-.46-.15-.66.57-.2.73a30.85,30.85,0,0,1,5.26,2.33.38.38,0,0,0,.38-.65Z"/><path class="cls-4" d="M50.79,461.71a11,11,0,0,0-3.44-8.89c-.35-.32-.89.21-.53.53A10.31,10.31,0,0,1,50,461.71c0,.48.71.48.75,0Z"/><path class="cls-4" d="M49.3,465.21a11.46,11.46,0,0,0-10.82,4c-.3.37.22.91.53.53a10.72,10.72,0,0,1,10.1-3.76c.47.09.67-.64.19-.72Z"/><path class="cls-4" d="M39.72,462.82a16.94,16.94,0,0,0-12.11,2.48c-.41.26,0,.91.38.65a16.16,16.16,0,0,1,11.53-2.41c.47.08.67-.64.2-.72Z"/><path class="cls-4" d="M27.26,459a8.12,8.12,0,0,0-7.41,4.21c-.23.43.41.81.64.38a7.38,7.38,0,0,1,6.77-3.84c.49,0,.48-.72,0-.75Z"/><path class="cls-5" d="M64.32,731.51a8.88,8.88,0,0,0,1.85-7.41,8.77,8.77,0,0,0-4.68-6c-2.45-1.18-5.29-1.11-8-1a10.51,10.51,0,0,0-3.54-6,8.91,8.91,0,0,0-6.56-2,12.81,12.81,0,0,0-3.41,1,11.47,11.47,0,0,0-4.1,2.62,5.45,5.45,0,0,0-1.53,4.52c-1.21-2.39-4.35-3-7-2.65a10.11,10.11,0,0,0-7,3.8c-1.58,2.26-1.64,5.7.34,7.6a7.7,7.7,0,0,0-4.29,8.87,7.58,7.58,0,0,0,8.23,5.31,8.77,8.77,0,0,0,4.48,8.26,8.56,8.56,0,0,0,9.26-.94,8.77,8.77,0,0,0,9.87,3,9,9,0,0,0,5.59-8.75,12.16,12.16,0,0,0,6.35.54,6.23,6.23,0,0,0,2.58-1,5.69,5.69,0,0,0,2-4.5,15.72,15.72,0,0,0-1-5"/><path class="cls-6" d="M64.59,731.77a9.22,9.22,0,0,0,.46-11.1c-2.73-3.83-7.24-4.12-11.56-3.92l.36.28c-1.06-4.75-5.16-8.72-10.26-8.27-4.2.37-10.27,3.54-9.62,8.52l.7-.19c-2.21-4-8.17-3.33-11.59-1.5-3.76,2-6,7.25-2.66,10.71l.07-.59A8.08,8.08,0,0,0,16,735a8,8,0,0,0,8.69,5.57l-.47-.36a9.17,9.17,0,0,0,4.83,8.67,9,9,0,0,0,9.55-1.09l-.59-.07a9.2,9.2,0,0,0,10.12,3.2,9.37,9.37,0,0,0,6-9.17l-.48.36c2.89,1,7.29,1.4,9.71-.92,2.61-2.52,1.67-6.48.71-9.51-.15-.45-.87-.26-.73.2.86,2.71,1.92,6.53-.52,8.78-2.25,2.09-6.31,1.65-9,.72a.37.37,0,0,0-.47.37A8.6,8.6,0,0,1,48,750.19a8.42,8.42,0,0,1-9.28-2.85.38.38,0,0,0-.58-.08,8.22,8.22,0,0,1-9,.8A8.45,8.45,0,0,1,25,740.21a.38.38,0,0,0-.48-.36,7.2,7.2,0,0,1-7.85-5.37,7.38,7.38,0,0,1,4.2-8.13.37.37,0,0,0,.08-.58c-3.15-3.26-.63-8,2.84-9.71,3-1.48,8.3-2.09,10.24,1.41.16.31.74.19.69-.19-.61-4.65,5.35-7.64,9.29-7.8,4.62-.19,8.16,3.46,9.11,7.74a.38.38,0,0,0,.37.28c3.79-.17,7.86-.1,10.51,3a8.43,8.43,0,0,1,.06,10.7c-.3.37.23.91.53.53Z"/><path class="cls-7" d="M44.23,720.74a4.5,4.5,0,1,0-4.5-4.5,4.55,4.55,0,0,0,4.5,4.5Z"/><path class="cls-7" d="M58.63,729.49a4.5,4.5,0,1,0-4.5-4.5,4.56,4.56,0,0,0,4.5,4.5Z"/><path class="cls-7" d="M57.45,740.08a4.5,4.5,0,1,0-4.5-4.5,4.55,4.55,0,0,0,4.5,4.5Z"/><path class="cls-7" d="M45.08,748.4a4.5,4.5,0,1,0-4.5-4.5,4.55,4.55,0,0,0,4.5,4.5Z"/><path class="cls-7" d="M32.4,746.56a4.5,4.5,0,1,0-4.5-4.5,4.56,4.56,0,0,0,4.5,4.5Z"/><path class="cls-7" d="M23.55,737.81a4.5,4.5,0,1,0-4.5-4.5,4.56,4.56,0,0,0,4.5,4.5Z"/><path class="cls-7" d="M27.4,726.1a4.5,4.5,0,1,0-4.5-4.5,4.55,4.55,0,0,0,4.5,4.5Z"/><path class="cls-8" d="M27.7,724.64c3.86,0,3.87-6,0-6s-3.86,6,0,6Z"/><path class="cls-8" d="M23.85,736.36c3.86,0,3.87-6,0-6s-3.87,6,0,6Z"/><path class="cls-8" d="M32.84,745.47c3.86,0,3.87-6,0-6s-3.86,6,0,6Z"/><path class="cls-8" d="M45.69,746.77c3.86,0,3.87-6,0-6s-3.87,6,0,6Z"/><path class="cls-8" d="M57.25,739c3.86,0,3.87-6,0-6s-3.87,6,0,6Z"/><path class="cls-8" d="M58.53,727.25c3.86,0,3.87-6,0-6s-3.86,6,0,6Z"/><path class="cls-8" d="M44.4,719.44c3.86,0,3.87-6,0-6s-3.86,6,0,6Z"/><path class="cls-9" d="M42.85,735.86a6,6,0,1,0-6-6,6.07,6.07,0,0,0,6,6Z"/><path class="cls-10" d="M46.52,726.89a5.89,5.89,0,0,1,.11,5.46c-.46.87-1.25,1.1-2.17,1.49a4.52,4.52,0,0,1-2.83.65A7,7,0,0,1,38.89,733c-.28-.23-.68-.49-.81-.78a4.71,4.71,0,0,1-.18-1.55,11,11,0,0,1,.27-3.33,1.92,1.92,0,0,1,1.33-1.59,8.91,8.91,0,0,1,3.69-.5,4.09,4.09,0,0,1,2.9,1,1.51,1.51,0,0,0,2.12,0,1.54,1.54,0,0,0,0-2.12,6.15,6.15,0,0,0-4-1.8,12.14,12.14,0,0,0-4.91.3,5.23,5.23,0,0,0-3.58,2.61,10.78,10.78,0,0,0-.86,4.46c0,1.59,0,3.44,1.1,4.69a10.6,10.6,0,0,0,1.58,1.33,10,10,0,0,0,2,1.21,6.07,6.07,0,0,0,4.87.16c.71-.29,1.42-.6,2.13-.91a5.22,5.22,0,0,0,1.9-1.24c2.27-2.56,2.21-6.68.64-9.56-.92-1.7-3.51-.19-2.59,1.51Z"/><path class="cls-10" d="M42.4,731.4a1.5,1.5,0,0,0,0-3,1.5,1.5,0,0,0,0,3Z"/><path class="cls-5" d="M64.32,621.51a8.88,8.88,0,0,0,1.85-7.41,8.77,8.77,0,0,0-4.68-6c-2.45-1.18-5.29-1.11-8-1a10.51,10.51,0,0,0-3.54-6,8.91,8.91,0,0,0-6.56-2,12.81,12.81,0,0,0-3.41,1,11.47,11.47,0,0,0-4.1,2.62,5.45,5.45,0,0,0-1.53,4.52c-1.21-2.39-4.35-3-7-2.65a10.11,10.11,0,0,0-7,3.8c-1.58,2.26-1.64,5.7.34,7.6a7.7,7.7,0,0,0-4.29,8.87,7.58,7.58,0,0,0,8.23,5.31,8.77,8.77,0,0,0,4.48,8.26,8.56,8.56,0,0,0,9.26-.94,8.77,8.77,0,0,0,9.87,3,9,9,0,0,0,5.59-8.75,12.16,12.16,0,0,0,6.35.54,6.23,6.23,0,0,0,2.58-1,5.69,5.69,0,0,0,2-4.5,15.72,15.72,0,0,0-1-5"/><path class="cls-6" d="M64.59,621.77a9.22,9.22,0,0,0,.46-11.1c-2.73-3.83-7.24-4.12-11.56-3.92l.36.28c-1.06-4.75-5.16-8.72-10.26-8.27-4.2.37-10.27,3.54-9.62,8.52l.7-.19c-2.21-4-8.17-3.33-11.59-1.5-3.76,2-6,7.25-2.66,10.71l.07-.59A8.08,8.08,0,0,0,16,625a8,8,0,0,0,8.69,5.57l-.47-.36a9.17,9.17,0,0,0,4.83,8.67,9,9,0,0,0,9.55-1.09l-.59-.07a9.2,9.2,0,0,0,10.12,3.2,9.37,9.37,0,0,0,6-9.17l-.48.36c2.89,1,7.29,1.4,9.71-.92,2.61-2.52,1.67-6.48.71-9.51-.15-.45-.87-.26-.73.2.86,2.71,1.92,6.53-.52,8.78-2.25,2.09-6.31,1.65-9,.72a.37.37,0,0,0-.47.37A8.6,8.6,0,0,1,48,640.19a8.42,8.42,0,0,1-9.28-2.85.38.38,0,0,0-.58-.08,8.22,8.22,0,0,1-9,.8A8.45,8.45,0,0,1,25,630.21a.38.38,0,0,0-.48-.36,7.2,7.2,0,0,1-7.85-5.37,7.38,7.38,0,0,1,4.2-8.13.37.37,0,0,0,.08-.58c-3.15-3.26-.63-8,2.84-9.71,3-1.48,8.3-2.09,10.24,1.41.16.31.74.19.69-.19-.61-4.65,5.35-7.64,9.29-7.8,4.62-.19,8.16,3.46,9.11,7.74a.38.38,0,0,0,.37.28c3.79-.17,7.86-.1,10.51,3a8.43,8.43,0,0,1,.06,10.7c-.3.37.23.91.53.53Z"/><path class="cls-7" d="M44.23,610.74a4.5,4.5,0,1,0-4.5-4.5,4.55,4.55,0,0,0,4.5,4.5Z"/><path class="cls-7" d="M58.63,619.49a4.5,4.5,0,1,0-4.5-4.5,4.56,4.56,0,0,0,4.5,4.5Z"/><path class="cls-7" d="M57.45,630.08a4.5,4.5,0,1,0-4.5-4.5,4.55,4.55,0,0,0,4.5,4.5Z"/><path class="cls-7" d="M45.08,638.4a4.5,4.5,0,1,0-4.5-4.5,4.55,4.55,0,0,0,4.5,4.5Z"/><path class="cls-7" d="M32.4,636.56a4.5,4.5,0,1,0-4.5-4.5,4.56,4.56,0,0,0,4.5,4.5Z"/><path class="cls-7" d="M23.55,627.81a4.5,4.5,0,1,0-4.5-4.5,4.56,4.56,0,0,0,4.5,4.5Z"/><path class="cls-7" d="M27.4,616.1a4.5,4.5,0,1,0-4.5-4.5,4.55,4.55,0,0,0,4.5,4.5Z"/><path class="cls-8" d="M27.7,614.64c3.86,0,3.87-6,0-6s-3.86,6,0,6Z"/><path class="cls-8" d="M23.85,626.36c3.86,0,3.87-6,0-6s-3.87,6,0,6Z"/><path class="cls-8" d="M32.84,635.47c3.86,0,3.87-6,0-6s-3.86,6,0,6Z"/><path class="cls-8" d="M45.69,636.77c3.86,0,3.87-6,0-6s-3.87,6,0,6Z"/><path class="cls-8" d="M57.25,629c3.86,0,3.87-6,0-6s-3.87,6,0,6Z"/><path class="cls-8" d="M58.53,617.25c3.86,0,3.87-6,0-6s-3.86,6,0,6Z"/><path class="cls-8" d="M44.4,609.44c3.86,0,3.87-6,0-6s-3.86,6,0,6Z"/><path class="cls-9" d="M42.85,625.86a6,6,0,1,0-6-6,6.07,6.07,0,0,0,6,6Z"/><path class="cls-10" d="M46.52,616.89a5.89,5.89,0,0,1,.11,5.46c-.46.87-1.25,1.1-2.17,1.49a4.52,4.52,0,0,1-2.83.65A7,7,0,0,1,38.89,623c-.28-.23-.68-.49-.81-.78a4.71,4.71,0,0,1-.18-1.55,11,11,0,0,1,.27-3.33,1.92,1.92,0,0,1,1.33-1.59,8.91,8.91,0,0,1,3.69-.5,4.09,4.09,0,0,1,2.9,1,1.51,1.51,0,0,0,2.12,0,1.54,1.54,0,0,0,0-2.12,6.15,6.15,0,0,0-4-1.8,12.14,12.14,0,0,0-4.91.3,5.23,5.23,0,0,0-3.58,2.61,10.78,10.78,0,0,0-.86,4.46c0,1.59,0,3.44,1.1,4.69a10.6,10.6,0,0,0,1.58,1.33,10,10,0,0,0,2,1.21,6.07,6.07,0,0,0,4.87.16c.71-.29,1.42-.6,2.13-.91a5.22,5.22,0,0,0,1.9-1.24c2.27-2.56,2.21-6.68.64-9.56-.92-1.7-3.51-.19-2.59,1.51Z"/><path class="cls-10" d="M42.4,621.4a1.5,1.5,0,0,0,0-3,1.5,1.5,0,0,0,0,3Z"/><path class="cls-5" d="M65.31,511.51a8.84,8.84,0,0,0,1.84-7.41,8.73,8.73,0,0,0-4.67-6c-2.46-1.18-5.29-1.11-8-1a10.4,10.4,0,0,0-3.54-6,8.89,8.89,0,0,0-6.56-2,12.74,12.74,0,0,0-3.4,1,11.6,11.6,0,0,0-4.11,2.62,5.47,5.47,0,0,0-1.52,4.52c-1.21-2.39-4.36-3-7-2.65a10.09,10.09,0,0,0-7,3.8c-1.58,2.26-1.65,5.7.34,7.6a7.69,7.69,0,0,0-4.29,8.87,7.57,7.57,0,0,0,8.23,5.31,8.77,8.77,0,0,0,4.48,8.26,8.56,8.56,0,0,0,9.26-.94,8.76,8.76,0,0,0,9.86,3,9,9,0,0,0,5.6-8.75,12.15,12.15,0,0,0,6.35.54,6.29,6.29,0,0,0,2.58-1,5.69,5.69,0,0,0,2-4.5,16,16,0,0,0-1-5"/><path class="cls-6" d="M65.58,511.77a9.22,9.22,0,0,0,.46-11.1c-2.73-3.83-7.24-4.12-11.57-3.92l.36.28c-1-4.75-5.15-8.72-10.25-8.27-4.2.37-10.27,3.54-9.62,8.52l.7-.19c-2.21-4-8.17-3.33-11.59-1.5-3.76,2-6,7.25-2.67,10.71l.08-.59A8.07,8.07,0,0,0,17,515a8,8,0,0,0,8.69,5.57l-.48-.36a9.2,9.2,0,0,0,4.83,8.67,9,9,0,0,0,9.55-1.09l-.59-.07a9.21,9.21,0,0,0,10.13,3.2,9.35,9.35,0,0,0,6-9.17l-.47.36c2.89,1,7.29,1.4,9.7-.92,2.62-2.52,1.67-6.48.71-9.51-.14-.45-.87-.26-.72.2.86,2.71,1.92,6.53-.52,8.78-2.26,2.09-6.31,1.65-9,.72a.39.39,0,0,0-.48.37A8.59,8.59,0,0,1,49,530.19a8.42,8.42,0,0,1-9.28-2.85.39.39,0,0,0-.59-.08,8.2,8.2,0,0,1-9,.8A8.47,8.47,0,0,1,26,520.21a.37.37,0,0,0-.47-.36,7.2,7.2,0,0,1-7.85-5.37,7.36,7.36,0,0,1,4.2-8.13.36.36,0,0,0,.07-.58c-3.15-3.26-.63-8,2.85-9.71,3-1.48,8.3-2.09,10.23,1.41.17.31.75.19.7-.19-.61-4.65,5.35-7.64,9.28-7.8,4.63-.19,8.16,3.46,9.12,7.74a.38.38,0,0,0,.36.28c3.8-.17,7.86-.1,10.52,3a8.45,8.45,0,0,1,.06,10.7c-.3.37.22.91.53.53Z"/><path class="cls-7" d="M45.22,500.74a4.5,4.5,0,1,0-4.5-4.5,4.55,4.55,0,0,0,4.5,4.5Z"/><path class="cls-7" d="M59.61,509.49a4.5,4.5,0,1,0-4.5-4.5,4.55,4.55,0,0,0,4.5,4.5Z"/><path class="cls-7" d="M58.44,520.08a4.5,4.5,0,1,0-4.5-4.5,4.55,4.55,0,0,0,4.5,4.5Z"/><path class="cls-7" d="M46.07,528.4a4.5,4.5,0,1,0-4.5-4.5,4.55,4.55,0,0,0,4.5,4.5Z"/><path class="cls-7" d="M33.38,526.56a4.5,4.5,0,1,0-4.5-4.5,4.55,4.55,0,0,0,4.5,4.5Z"/><path class="cls-7" d="M24.53,517.81a4.5,4.5,0,1,0-4.5-4.5,4.55,4.55,0,0,0,4.5,4.5Z"/><path class="cls-7" d="M28.39,506.1a4.5,4.5,0,1,0-4.5-4.5,4.55,4.55,0,0,0,4.5,4.5Z"/><path class="cls-8" d="M28.69,504.64c3.86,0,3.87-6,0-6s-3.87,6,0,6Z"/><path class="cls-8" d="M24.84,516.36c3.86,0,3.86-6,0-6s-3.87,6,0,6Z"/><path class="cls-8" d="M33.83,525.47c3.86,0,3.87-6,0-6s-3.87,6,0,6Z"/><path class="cls-8" d="M46.68,526.77c3.86,0,3.86-6,0-6s-3.87,6,0,6Z"/><path class="cls-8" d="M58.24,519c3.86,0,3.86-6,0-6s-3.87,6,0,6Z"/><path class="cls-8" d="M59.52,507.25c3.86,0,3.87-6,0-6s-3.87,6,0,6Z"/><path class="cls-8" d="M45.39,499.44c3.86,0,3.87-6,0-6s-3.87,6,0,6Z"/><path class="cls-9" d="M43.84,515.86a6,6,0,1,0-6-6,6.07,6.07,0,0,0,6,6Z"/><path class="cls-10" d="M47.51,506.89a5.86,5.86,0,0,1,.1,5.46c-.45.87-1.25,1.1-2.16,1.49a4.52,4.52,0,0,1-2.83.65A7,7,0,0,1,39.87,513c-.27-.23-.67-.49-.8-.78a4.46,4.46,0,0,1-.18-1.55,11.33,11.33,0,0,1,.26-3.33,1.94,1.94,0,0,1,1.34-1.59,8.86,8.86,0,0,1,3.68-.5,4.06,4.06,0,0,1,2.9,1,1.5,1.5,0,0,0,2.12-2.12,6.11,6.11,0,0,0-4-1.8,12.09,12.09,0,0,0-4.9.3,5.23,5.23,0,0,0-3.58,2.61,10.47,10.47,0,0,0-.86,4.46c0,1.59,0,3.44,1.1,4.69a10.6,10.6,0,0,0,1.58,1.33,9.62,9.62,0,0,0,2,1.21,6.1,6.1,0,0,0,4.88.16c.71-.29,1.42-.6,2.12-.91a5.17,5.17,0,0,0,1.91-1.24c2.26-2.56,2.2-6.68.64-9.56-.92-1.7-3.51-.19-2.59,1.51Z"/><path class="cls-10" d="M43.39,511.4a1.5,1.5,0,0,0,0-3,1.5,1.5,0,0,0,0,3Z"/><path class="cls-3" d="M63.89,367.76c-.59-6.6-1.26-13.43-4.5-19.19a37.17,37.17,0,0,0-6-7.51c-3.2-3.28-6.94-6.44-11.45-7.05a6.66,6.66,0,0,0-4.31.67,3.76,3.76,0,0,0-1.88,3.77,19.67,19.67,0,0,0-7.1-2.33,4.93,4.93,0,0,0-2.8.26,2.08,2.08,0,0,0-1.19,2.36l-5.82-.89a6.86,6.86,0,0,0-4.07.22c-1.24.62-2,2.39-1.11,3.46a16.77,16.77,0,0,0-6.18-.87,6,6,0,0,0-5,3.31,1.69,1.69,0,0,0-.08,1.32,2,2,0,0,0,.91.76A102.9,102.9,0,0,0,14,350.91c-.29,2.64,1.56,5.14,3.87,6.4s5,1.53,7.61,1.79a6.36,6.36,0,0,0,8.35,4.08,4.48,4.48,0,0,1,1.9-.62c1.2.06,1.91,1.33,2.76,2.18,2,2,5.4,1.81,8.11.87s5.31-2.45,8.18-2.56a8.84,8.84,0,0,1,7.55,3.84,1.49,1.49,0,0,0,.7.68c.32.09.73-.23.59-.53"/><path class="cls-4" d="M64.27,367.76c-.67-7.42-1.47-15.13-5.84-21.41A45,45,0,0,0,51,338.26a17.82,17.82,0,0,0-8.76-4.58c-3.08-.47-7.38.88-6.86,4.77l.56-.33a19,19,0,0,0-8.11-2.45c-1.85-.07-4,1-3.53,3.17l.46-.47-5.34-.8a10.08,10.08,0,0,0-4-.14c-1.81.46-3.29,2.55-2.1,4.29l.42-.55c-2.49-.68-5.2-1.38-7.76-.59a5.74,5.74,0,0,0-4,3.62c-.54,2.1,2.42,2.86,3.84,3.55,2.63,1.29,5.33,2.46,8.06,3.52l-.27-.36a7.05,7.05,0,0,0,3.14,6.14c2.5,1.81,5.72,2.13,8.71,2.42l-.37-.27a6.84,6.84,0,0,0,5.38,4.71,6.18,6.18,0,0,0,3.48-.38c1.14-.47,2-.86,3,.09.59.55,1,1.23,1.66,1.74,2.25,1.82,5.5,1.49,8.07.61,3.55-1.2,7-3.4,10.87-2.16a8.69,8.69,0,0,1,2.78,1.49,21.36,21.36,0,0,1,1.91,2.13c.56.6,1.79.76,1.73-.39,0-.48-.77-.48-.75,0,0,.21-1-.9-1.09-1a9.27,9.27,0,0,0-1-1.06,9.16,9.16,0,0,0-1.91-1.29,9,9,0,0,0-4.44-1c-4.1.16-7.49,3.06-11.58,3.24a6,6,0,0,1-5.12-2.19c-.95-1.08-1.93-1.87-3.42-1.32-1.78.65-3.16,1.17-5,.51A6,6,0,0,1,25.88,359a.39.39,0,0,0-.36-.28c-4.49-.44-11.56-1.81-11.1-7.81a.39.39,0,0,0-.28-.36c-2-.78-4-1.62-6-2.53-.93-.43-1.85-.87-2.76-1.33s-2.83-1-2.65-2.29c.26-1.8,2.62-3,4.17-3.28,2.23-.45,4.53.19,6.67.77.3.08.62-.27.43-.55a2.06,2.06,0,0,1,.83-2.87,5.13,5.13,0,0,1,3.19-.36c2.19.26,4.37.66,6.55,1a.38.38,0,0,0,.46-.46c-.63-2.88,3.79-2.18,5.27-1.86a20.23,20.23,0,0,1,5.27,2c.22.12.61,0,.57-.32-.37-2.73,2.21-4.15,4.59-4.15A12.34,12.34,0,0,1,46.64,336a35.07,35.07,0,0,1,9,8,28.24,28.24,0,0,1,6,11.17,73.57,73.57,0,0,1,1.88,12.54c0,.47.79.48.75,0Z"/><path class="cls-4" d="M62.14,363.33a33.78,33.78,0,0,0-8-7.29,52.1,52.1,0,0,0-10.11-5.75,73.08,73.08,0,0,0-11.71-3.24A106.16,106.16,0,0,0,20,344.88a125.93,125.93,0,0,0-15-.24.38.38,0,0,0,0,.75c4.13-.1,8.26-.19,12.39,0a82.46,82.46,0,0,1,12.5,1.84c3.79.81,7.61,1.58,11.3,2.76a44,44,0,0,1,10.55,5.23c3.64,2.37,7.2,4.95,9.84,8.45.29.38.94,0,.65-.38Z"/><path class="cls-4" d="M41.52,348.74a5.34,5.34,0,0,0-1.3-2.74c-.63-.86-1.28-1.71-2-2.52a15.39,15.39,0,0,0-4.89-3.89c-.44-.21-.82.44-.38.65a14.45,14.45,0,0,1,4.55,3.56,28.93,28.93,0,0,1,1.85,2.29,5.48,5.48,0,0,1,1.41,2.65c0,.48.78.49.75,0Z"/><path class="cls-4" d="M28,344.74a32.17,32.17,0,0,0-5.44-2.41c-.46-.15-.66.57-.2.73a30.85,30.85,0,0,1,5.26,2.33.38.38,0,0,0,.38-.65Z"/><path class="cls-4" d="M50.79,351.71a11,11,0,0,0-3.44-8.89c-.35-.32-.89.21-.53.53A10.31,10.31,0,0,1,50,351.71c0,.48.71.48.75,0Z"/><path class="cls-4" d="M49.3,355.21a11.46,11.46,0,0,0-10.82,4c-.3.37.22.91.53.53a10.72,10.72,0,0,1,10.1-3.76c.47.09.67-.64.19-.72Z"/><path class="cls-4" d="M39.72,352.82a16.94,16.94,0,0,0-12.11,2.48c-.41.26,0,.91.38.65a16.16,16.16,0,0,1,11.53-2.41c.47.08.67-.64.2-.72Z"/><path class="cls-4" d="M27.26,349a8.12,8.12,0,0,0-7.41,4.21c-.23.43.41.81.64.38a7.38,7.38,0,0,1,6.77-3.84c.49,0,.48-.72,0-.75Z"/><path class="cls-5" d="M65.31,401.51a8.84,8.84,0,0,0,1.84-7.41,8.73,8.73,0,0,0-4.67-6c-2.46-1.18-5.29-1.11-8-1a10.4,10.4,0,0,0-3.54-6,8.89,8.89,0,0,0-6.56-2,12.74,12.74,0,0,0-3.4,1,11.6,11.6,0,0,0-4.11,2.62,5.47,5.47,0,0,0-1.52,4.52c-1.21-2.39-4.36-3-7-2.65a10.09,10.09,0,0,0-7,3.8c-1.58,2.26-1.65,5.7.34,7.6a7.69,7.69,0,0,0-4.29,8.87,7.57,7.57,0,0,0,8.23,5.31,8.77,8.77,0,0,0,4.48,8.26,8.56,8.56,0,0,0,9.26-.94,8.76,8.76,0,0,0,9.86,3,9,9,0,0,0,5.6-8.75,12.15,12.15,0,0,0,6.35.54,6.29,6.29,0,0,0,2.58-1,5.69,5.69,0,0,0,2-4.5,16,16,0,0,0-1-5"/><path class="cls-6" d="M65.58,401.77a9.22,9.22,0,0,0,.46-11.1c-2.73-3.83-7.24-4.12-11.57-3.92l.36.28c-1-4.75-5.15-8.72-10.25-8.27-4.2.37-10.27,3.54-9.62,8.52l.7-.19c-2.21-4-8.17-3.33-11.59-1.5-3.76,2-6,7.25-2.67,10.71l.08-.59A8.07,8.07,0,0,0,17,405a8,8,0,0,0,8.69,5.57l-.48-.36a9.2,9.2,0,0,0,4.83,8.67,9,9,0,0,0,9.55-1.09l-.59-.07a9.21,9.21,0,0,0,10.13,3.2,9.35,9.35,0,0,0,6-9.17l-.47.36c2.89,1,7.29,1.4,9.7-.92,2.62-2.52,1.67-6.48.71-9.51-.14-.45-.87-.26-.72.2.86,2.71,1.92,6.53-.52,8.78-2.26,2.09-6.31,1.65-9,.72a.39.39,0,0,0-.48.37A8.59,8.59,0,0,1,49,420.19a8.42,8.42,0,0,1-9.28-2.85.39.39,0,0,0-.59-.08,8.2,8.2,0,0,1-9,.8A8.47,8.47,0,0,1,26,410.21a.37.37,0,0,0-.47-.36,7.2,7.2,0,0,1-7.85-5.37,7.36,7.36,0,0,1,4.2-8.13.36.36,0,0,0,.07-.58c-3.15-3.26-.63-8,2.85-9.71,3-1.48,8.3-2.09,10.23,1.41.17.31.75.19.7-.19-.61-4.65,5.35-7.64,9.28-7.8,4.63-.19,8.16,3.46,9.12,7.74a.38.38,0,0,0,.36.28c3.8-.17,7.86-.1,10.52,3a8.45,8.45,0,0,1,.06,10.7c-.3.37.22.91.53.53Z"/><path class="cls-7" d="M45.22,390.74a4.5,4.5,0,1,0-4.5-4.5,4.55,4.55,0,0,0,4.5,4.5Z"/><path class="cls-7" d="M59.61,399.49a4.5,4.5,0,1,0-4.5-4.5,4.55,4.55,0,0,0,4.5,4.5Z"/><path class="cls-7" d="M58.44,410.08a4.5,4.5,0,1,0-4.5-4.5,4.55,4.55,0,0,0,4.5,4.5Z"/><path class="cls-7" d="M46.07,418.4a4.5,4.5,0,1,0-4.5-4.5,4.55,4.55,0,0,0,4.5,4.5Z"/><path class="cls-7" d="M33.38,416.56a4.5,4.5,0,1,0-4.5-4.5,4.55,4.55,0,0,0,4.5,4.5Z"/><path class="cls-7" d="M24.53,407.81a4.5,4.5,0,1,0-4.5-4.5,4.55,4.55,0,0,0,4.5,4.5Z"/><path class="cls-7" d="M28.39,396.1a4.5,4.5,0,1,0-4.5-4.5,4.55,4.55,0,0,0,4.5,4.5Z"/><path class="cls-8" d="M28.69,394.64c3.86,0,3.87-6,0-6s-3.87,6,0,6Z"/><path class="cls-8" d="M24.84,406.36c3.86,0,3.86-6,0-6s-3.87,6,0,6Z"/><path class="cls-8" d="M33.83,415.47c3.86,0,3.87-6,0-6s-3.87,6,0,6Z"/><path class="cls-8" d="M46.68,416.77c3.86,0,3.86-6,0-6s-3.87,6,0,6Z"/><path class="cls-8" d="M58.24,409c3.86,0,3.86-6,0-6s-3.87,6,0,6Z"/><path class="cls-8" d="M59.52,397.25c3.86,0,3.87-6,0-6s-3.87,6,0,6Z"/><path class="cls-8" d="M45.39,389.44c3.86,0,3.87-6,0-6s-3.87,6,0,6Z"/><path class="cls-9" d="M43.84,405.86a6,6,0,1,0-6-6,6.07,6.07,0,0,0,6,6Z"/><path class="cls-10" d="M47.51,396.89a5.86,5.86,0,0,1,.1,5.46c-.45.87-1.25,1.1-2.16,1.49a4.52,4.52,0,0,1-2.83.65A7,7,0,0,1,39.87,403c-.27-.23-.67-.49-.8-.78a4.46,4.46,0,0,1-.18-1.55,11.33,11.33,0,0,1,.26-3.33,1.94,1.94,0,0,1,1.34-1.59,8.86,8.86,0,0,1,3.68-.5,4.06,4.06,0,0,1,2.9,1,1.5,1.5,0,0,0,2.12-2.12,6.11,6.11,0,0,0-4-1.8,12.09,12.09,0,0,0-4.9.3,5.23,5.23,0,0,0-3.58,2.61,10.47,10.47,0,0,0-.86,4.46c0,1.59,0,3.44,1.1,4.69a10.6,10.6,0,0,0,1.58,1.33,9.62,9.62,0,0,0,2,1.21,6.1,6.1,0,0,0,4.88.16c.71-.29,1.42-.6,2.12-.91a5.17,5.17,0,0,0,1.91-1.24c2.26-2.56,2.2-6.68.64-9.56-.92-1.7-3.51-.19-2.59,1.51Z"/><path class="cls-10" d="M43.39,401.4a1.5,1.5,0,0,0,0-3,1.5,1.5,0,0,0,0,3Z"/><path class="cls-3" d="M61.92,257.76c-.6-6.6-1.26-13.43-4.51-19.19a37.12,37.12,0,0,0-5.95-7.51c-3.2-3.28-6.94-6.44-11.46-7.05a6.64,6.64,0,0,0-4.3.67,3.74,3.74,0,0,0-1.88,3.77,19.73,19.73,0,0,0-7.1-2.33,5,5,0,0,0-2.81.26,2.08,2.08,0,0,0-1.18,2.36l-5.83-.89a6.83,6.83,0,0,0-4.06.22c-1.24.62-2,2.39-1.11,3.46a16.77,16.77,0,0,0-6.18-.87,6,6,0,0,0-5,3.31,1.65,1.65,0,0,0-.08,1.32,1.93,1.93,0,0,0,.9.76,103.06,103.06,0,0,0,10.71,4.86c-.3,2.64,1.56,5.14,3.87,6.4s5,1.53,7.6,1.79a6.37,6.37,0,0,0,8.35,4.08,4.48,4.48,0,0,1,1.91-.62c1.2.06,1.9,1.33,2.76,2.18,2,2,5.4,1.81,8.11.87s5.31-2.45,8.17-2.56a8.86,8.86,0,0,1,7.56,3.84,1.44,1.44,0,0,0,.7.68c.31.09.73-.23.58-.53"/><path class="cls-4" d="M62.29,257.76c-.67-7.42-1.47-15.13-5.84-21.41a44.67,44.67,0,0,0-7.39-8.09,17.78,17.78,0,0,0-8.76-4.58c-3.08-.47-7.38.88-6.86,4.77l.57-.33a19,19,0,0,0-8.11-2.45c-1.86-.07-4,1-3.53,3.17l.46-.47-5.34-.8a10.13,10.13,0,0,0-4-.14c-1.81.46-3.29,2.55-2.1,4.29l.43-.55c-2.49-.68-5.21-1.38-7.76-.59a5.72,5.72,0,0,0-4,3.62c-.55,2.1,2.42,2.86,3.83,3.55q4,1.94,8.07,3.52l-.28-.36a7.1,7.1,0,0,0,3.14,6.14c2.51,1.81,5.73,2.13,8.71,2.42l-.36-.27a6.84,6.84,0,0,0,5.37,4.71,6.22,6.22,0,0,0,3.49-.38c1.14-.47,2-.86,3,.09.58.55,1,1.23,1.66,1.74,2.25,1.82,5.5,1.49,8.07.61,3.55-1.2,7-3.4,10.87-2.16a8.54,8.54,0,0,1,2.77,1.49,20.29,20.29,0,0,1,1.92,2.13c.56.6,1.79.76,1.73-.39,0-.48-.78-.48-.75,0,0,.21-1-.9-1.09-1a8.58,8.58,0,0,0-1-1.06,9.26,9.26,0,0,0-6.35-2.3c-4.1.16-7.48,3.06-11.57,3.24a6,6,0,0,1-5.12-2.19c-1-1.08-1.93-1.87-3.42-1.32-1.78.65-3.16,1.17-5,.51A6,6,0,0,1,23.9,249a.38.38,0,0,0-.36-.28c-4.48-.44-11.55-1.81-11.1-7.81a.37.37,0,0,0-.27-.36q-3-1.17-6-2.53c-.92-.43-1.84-.87-2.75-1.33s-2.83-1-2.65-2.29c.25-1.8,2.62-3,4.16-3.28,2.24-.45,4.53.19,6.68.77a.38.38,0,0,0,.42-.55,2.06,2.06,0,0,1,.84-2.87,5.11,5.11,0,0,1,3.19-.36c2.19.26,4.37.66,6.55,1a.38.38,0,0,0,.46-.46c-.63-2.88,3.79-2.18,5.27-1.86a20.23,20.23,0,0,1,5.27,2c.22.12.6,0,.56-.32-.36-2.73,2.22-4.15,4.6-4.15A12.34,12.34,0,0,1,44.67,226a35.4,35.4,0,0,1,9,8,28.22,28.22,0,0,1,5.94,11.17,72.59,72.59,0,0,1,1.88,12.54c.05.47.8.48.75,0Z"/><path class="cls-4" d="M60.17,253.33a33.82,33.82,0,0,0-8-7.29,51.8,51.8,0,0,0-10.11-5.75,72.51,72.51,0,0,0-11.71-3.24A106,106,0,0,0,18,234.88a126,126,0,0,0-15-.24.38.38,0,0,0,0,.75c4.12-.1,8.26-.19,12.38,0a82.27,82.27,0,0,1,12.5,1.84c3.79.81,7.61,1.58,11.3,2.76a43.8,43.8,0,0,1,10.55,5.23c3.64,2.37,7.21,5,9.85,8.45.29.38.94,0,.65-.38Z"/><path class="cls-4" d="M39.54,238.74A5.24,5.24,0,0,0,38.25,236c-.63-.86-1.28-1.71-2-2.52a15.43,15.43,0,0,0-4.9-3.89c-.43-.21-.81.44-.38.65a14.49,14.49,0,0,1,4.56,3.56c.65.73,1.26,1.5,1.85,2.29a5.38,5.38,0,0,1,1.4,2.65c0,.48.78.49.75,0Z"/><path class="cls-4" d="M26,234.74a31.48,31.48,0,0,0-5.44-2.41c-.46-.15-.65.57-.2.73a30.17,30.17,0,0,1,5.26,2.33.38.38,0,0,0,.38-.65Z"/><path class="cls-4" d="M48.82,241.71a11,11,0,0,0-3.44-8.89c-.36-.32-.89.21-.53.53a10.31,10.31,0,0,1,3.22,8.36c0,.48.71.48.75,0Z"/><path class="cls-4" d="M47.33,245.21a11.46,11.46,0,0,0-10.82,3.95c-.31.37.22.91.53.53a10.71,10.71,0,0,1,10.09-3.76c.47.09.68-.64.2-.72Z"/><path class="cls-4" d="M37.74,242.82a17,17,0,0,0-12.11,2.48c-.4.26,0,.91.38.65a16.2,16.2,0,0,1,11.54-2.41c.47.08.67-.64.19-.72Z"/><path class="cls-4" d="M25.29,239a8.15,8.15,0,0,0-7.42,4.21c-.23.43.42.81.65.38a7.38,7.38,0,0,1,6.77-3.84c.48,0,.48-.72,0-.75Z"/><path class="cls-5" d="M63.34,291.51a8.87,8.87,0,0,0,1.84-7.41,8.77,8.77,0,0,0-4.68-6c-2.45-1.18-5.29-1.11-8-1a10.51,10.51,0,0,0-3.54-6,8.89,8.89,0,0,0-6.56-2,12.81,12.81,0,0,0-3.41,1,11.56,11.56,0,0,0-4.1,2.62,5.45,5.45,0,0,0-1.53,4.52c-1.2-2.39-4.35-3-7-2.65a10.07,10.07,0,0,0-7,3.8c-1.59,2.26-1.65,5.7.33,7.6a7.71,7.71,0,0,0-4.29,8.87,7.58,7.58,0,0,0,8.23,5.31,8.79,8.79,0,0,0,4.48,8.26,8.56,8.56,0,0,0,9.26-.94,8.78,8.78,0,0,0,9.87,3,9,9,0,0,0,5.59-8.75,12.16,12.16,0,0,0,6.35.54,6.23,6.23,0,0,0,2.58-1,5.66,5.66,0,0,0,2-4.5,15.71,15.71,0,0,0-1-5"/><path class="cls-6" d="M63.6,291.77a9.22,9.22,0,0,0,.47-11.1c-2.74-3.83-7.25-4.12-11.57-3.92l.36.28c-1.06-4.75-5.16-8.72-10.25-8.27-4.21.37-10.28,3.54-9.62,8.52l.7-.19c-2.21-4-8.18-3.33-11.6-1.5-3.76,2-6,7.25-2.66,10.71l.08-.59A8.08,8.08,0,0,0,15,295a8,8,0,0,0,8.69,5.57l-.47-.36a9.19,9.19,0,0,0,4.83,8.67,9,9,0,0,0,9.55-1.09l-.59-.07a9.21,9.21,0,0,0,10.13,3.2,9.36,9.36,0,0,0,6-9.17l-.48.36c2.9,1,7.29,1.4,9.71-.92,2.62-2.52,1.67-6.48.71-9.51-.15-.45-.87-.26-.72.2.86,2.71,1.92,6.53-.52,8.78-2.26,2.09-6.32,1.65-9,.72a.38.38,0,0,0-.47.37A8.59,8.59,0,0,1,47,310.19a8.42,8.42,0,0,1-9.28-2.85.39.39,0,0,0-.59-.08,8.22,8.22,0,0,1-9,.8A8.48,8.48,0,0,1,24,300.21a.38.38,0,0,0-.48-.36,7.2,7.2,0,0,1-7.85-5.37,7.38,7.38,0,0,1,4.2-8.13.37.37,0,0,0,.08-.58c-3.15-3.26-.63-8,2.84-9.71,3-1.48,8.3-2.09,10.24,1.41.17.31.75.19.7-.19-.61-4.65,5.35-7.64,9.28-7.8,4.63-.19,8.16,3.46,9.12,7.74a.36.36,0,0,0,.36.28c3.79-.17,7.86-.1,10.52,3a8.44,8.44,0,0,1,0,10.7c-.3.37.23.91.53.53Z"/><path class="cls-7" d="M43.24,280.74a4.5,4.5,0,1,0-4.5-4.5,4.55,4.55,0,0,0,4.5,4.5Z"/><path class="cls-7" d="M57.64,289.49a4.5,4.5,0,1,0-4.5-4.5,4.55,4.55,0,0,0,4.5,4.5Z"/><path class="cls-7" d="M56.47,300.08a4.5,4.5,0,1,0-4.5-4.5,4.56,4.56,0,0,0,4.5,4.5Z"/><path class="cls-7" d="M44.1,308.4a4.5,4.5,0,1,0-4.5-4.5,4.55,4.55,0,0,0,4.5,4.5Z"/><path class="cls-7" d="M31.41,306.56a4.5,4.5,0,1,0-4.5-4.5,4.55,4.55,0,0,0,4.5,4.5Z"/><path class="cls-7" d="M22.56,297.81a4.5,4.5,0,1,0-4.5-4.5,4.55,4.55,0,0,0,4.5,4.5Z"/><path class="cls-7" d="M26.41,286.1a4.5,4.5,0,1,0-4.5-4.5,4.55,4.55,0,0,0,4.5,4.5Z"/><path class="cls-8" d="M26.72,284.64c3.86,0,3.86-6,0-6s-3.87,6,0,6Z"/><path class="cls-8" d="M22.86,296.36c3.86,0,3.87-6,0-6s-3.86,6,0,6Z"/><path class="cls-8" d="M31.86,305.47c3.86,0,3.86-6,0-6s-3.87,6,0,6Z"/><path class="cls-8" d="M44.7,306.77c3.86,0,3.87-6,0-6s-3.87,6,0,6Z"/><path class="cls-8" d="M56.26,299c3.86,0,3.87-6,0-6s-3.86,6,0,6Z"/><path class="cls-8" d="M57.55,287.25c3.86,0,3.86-6,0-6s-3.87,6,0,6Z"/><path class="cls-8" d="M43.42,279.44c3.86,0,3.86-6,0-6s-3.87,6,0,6Z"/><path class="cls-9" d="M41.86,295.86a6,6,0,1,0-6-6,6.06,6.06,0,0,0,6,6Z"/><path class="cls-10" d="M45.54,286.89a5.89,5.89,0,0,1,.1,5.46c-.46.87-1.25,1.1-2.16,1.49a4.54,4.54,0,0,1-2.83.65A7,7,0,0,1,37.9,293a2.84,2.84,0,0,1-.8-.78,4.46,4.46,0,0,1-.19-1.55,11.32,11.32,0,0,1,.27-3.33,1.91,1.91,0,0,1,1.34-1.59,8.84,8.84,0,0,1,3.68-.5,4.09,4.09,0,0,1,2.9,1,1.51,1.51,0,0,0,2.12,0,1.54,1.54,0,0,0,0-2.12,6.13,6.13,0,0,0-4-1.8,12.14,12.14,0,0,0-4.91.3,5.24,5.24,0,0,0-3.57,2.61,10.63,10.63,0,0,0-.87,4.46c0,1.59,0,3.44,1.1,4.69a10.68,10.68,0,0,0,1.59,1.33,9.62,9.62,0,0,0,2,1.21,6.07,6.07,0,0,0,4.87.16c.72-.29,1.42-.6,2.13-.91a5.14,5.14,0,0,0,1.9-1.24c2.27-2.56,2.21-6.68.65-9.56-.93-1.7-3.52-.19-2.59,1.51Z"/><path class="cls-10" d="M41.42,291.4a1.5,1.5,0,0,0,0-3,1.5,1.5,0,0,0,0,3Z"/><path class="cls-3" d="M61.92,153.76c-.6-6.6-1.26-13.43-4.51-19.19a37.12,37.12,0,0,0-5.95-7.51c-3.2-3.28-6.94-6.44-11.46-7a6.64,6.64,0,0,0-4.3.67,3.74,3.74,0,0,0-1.88,3.77,19.73,19.73,0,0,0-7.1-2.33,5,5,0,0,0-2.81.26,2.08,2.08,0,0,0-1.18,2.36l-5.83-.89a6.83,6.83,0,0,0-4.06.22c-1.24.62-2,2.39-1.11,3.46a16.77,16.77,0,0,0-6.18-.87,6,6,0,0,0-5,3.31,1.65,1.65,0,0,0-.08,1.32,1.93,1.93,0,0,0,.9.76,103.06,103.06,0,0,0,10.71,4.86c-.3,2.64,1.56,5.14,3.87,6.4s5,1.53,7.6,1.79a6.37,6.37,0,0,0,8.35,4.08,4.48,4.48,0,0,1,1.91-.62c1.2.06,1.9,1.33,2.76,2.18,2,2,5.4,1.81,8.11.87s5.31-2.45,8.17-2.56a8.86,8.86,0,0,1,7.56,3.84,1.44,1.44,0,0,0,.7.68c.31.09.73-.23.58-.53"/><path class="cls-4" d="M62.29,153.76c-.67-7.42-1.47-15.13-5.84-21.41a44.67,44.67,0,0,0-7.39-8.09,17.78,17.78,0,0,0-8.76-4.58c-3.08-.47-7.38.88-6.86,4.77l.57-.33a19,19,0,0,0-8.11-2.45c-1.86-.07-4,1-3.53,3.17l.46-.47-5.34-.8a10.13,10.13,0,0,0-4-.14c-1.81.46-3.29,2.55-2.1,4.29l.43-.55c-2.49-.68-5.21-1.38-7.76-.59a5.72,5.72,0,0,0-4,3.62c-.55,2.1,2.42,2.86,3.83,3.55q4,1.94,8.07,3.52l-.28-.36a7.1,7.1,0,0,0,3.14,6.14c2.51,1.81,5.73,2.13,8.71,2.42l-.36-.27a6.84,6.84,0,0,0,5.37,4.71,6.22,6.22,0,0,0,3.49-.38c1.14-.47,2-.86,3,.09.58.55,1,1.23,1.66,1.74,2.25,1.82,5.5,1.49,8.07.61,3.55-1.2,7-3.4,10.87-2.16a8.54,8.54,0,0,1,2.77,1.49,20.29,20.29,0,0,1,1.92,2.13c.56.6,1.79.76,1.73-.39,0-.48-.78-.48-.75,0,0,.21-1-.9-1.09-1a8.58,8.58,0,0,0-1-1.06,9.26,9.26,0,0,0-6.35-2.3c-4.1.16-7.48,3.06-11.57,3.24a6,6,0,0,1-5.12-2.19c-1-1.08-1.93-1.87-3.42-1.32-1.78.65-3.16,1.17-5,.51A6,6,0,0,1,23.9,145a.38.38,0,0,0-.36-.28c-4.48-.44-11.55-1.81-11.1-7.81a.37.37,0,0,0-.27-.36q-3-1.17-6-2.53c-.92-.43-1.84-.87-2.75-1.33s-2.83-1-2.65-2.29c.25-1.8,2.62-3,4.16-3.28,2.24-.45,4.53.19,6.68.77a.38.38,0,0,0,.42-.55,2.06,2.06,0,0,1,.84-2.87,5.11,5.11,0,0,1,3.19-.36c2.19.26,4.37.66,6.55,1a.38.38,0,0,0,.46-.46c-.63-2.88,3.79-2.18,5.27-1.86a20.23,20.23,0,0,1,5.27,2c.22.12.6,0,.56-.32-.36-2.73,2.22-4.15,4.6-4.15A12.34,12.34,0,0,1,44.67,122a35.4,35.4,0,0,1,9,8,28.22,28.22,0,0,1,5.94,11.17,72.59,72.59,0,0,1,1.88,12.54c.05.47.8.48.75,0Z"/><path class="cls-4" d="M60.17,149.33a33.82,33.82,0,0,0-8-7.29,51.8,51.8,0,0,0-10.11-5.75,72.51,72.51,0,0,0-11.71-3.24A106,106,0,0,0,18,130.88a126,126,0,0,0-15-.24.38.38,0,0,0,0,.75c4.12-.1,8.26-.19,12.38,0a82.27,82.27,0,0,1,12.5,1.84c3.79.81,7.61,1.58,11.3,2.76a43.8,43.8,0,0,1,10.55,5.23c3.64,2.37,7.21,5,9.85,8.45.29.38.94,0,.65-.38Z"/><path class="cls-4" d="M39.54,134.74A5.24,5.24,0,0,0,38.25,132c-.63-.86-1.28-1.71-2-2.52a15.43,15.43,0,0,0-4.9-3.89c-.43-.21-.81.44-.38.65a14.49,14.49,0,0,1,4.56,3.56c.65.73,1.26,1.5,1.85,2.29a5.38,5.38,0,0,1,1.4,2.65c0,.48.78.49.75,0Z"/><path class="cls-4" d="M26,130.74a31.48,31.48,0,0,0-5.44-2.41c-.46-.15-.65.57-.2.73a30.17,30.17,0,0,1,5.26,2.33.38.38,0,0,0,.38-.65Z"/><path class="cls-4" d="M48.82,137.71a11,11,0,0,0-3.44-8.89c-.36-.32-.89.21-.53.53a10.31,10.31,0,0,1,3.22,8.36c0,.48.71.48.75,0Z"/><path class="cls-4" d="M47.33,141.21a11.46,11.46,0,0,0-10.82,3.95c-.31.37.22.91.53.53a10.71,10.71,0,0,1,10.09-3.76c.47.09.68-.64.2-.72Z"/><path class="cls-4" d="M37.74,138.82a17,17,0,0,0-12.11,2.48c-.4.26,0,.91.38.65a16.2,16.2,0,0,1,11.54-2.41c.47.08.67-.64.19-.72Z"/><path class="cls-4" d="M25.29,135a8.15,8.15,0,0,0-7.42,4.21c-.23.43.42.81.65.38a7.38,7.38,0,0,1,6.77-3.84c.48,0,.48-.72,0-.75Z"/><path class="cls-3" d="M63.89,42.76c-.59-6.6-1.26-13.43-4.5-19.19a37.17,37.17,0,0,0-6-7.51C50.23,12.78,46.49,9.62,42,9a6.66,6.66,0,0,0-4.31.67,3.76,3.76,0,0,0-1.88,3.77,19.67,19.67,0,0,0-7.1-2.33,4.93,4.93,0,0,0-2.8.26,2.08,2.08,0,0,0-1.19,2.36l-5.82-.89a6.86,6.86,0,0,0-4.07.22c-1.24.62-2,2.39-1.11,3.46a16.77,16.77,0,0,0-6.18-.87,6,6,0,0,0-5,3.31,1.69,1.69,0,0,0-.08,1.32,2,2,0,0,0,.91.76A102.9,102.9,0,0,0,14,25.91c-.29,2.64,1.56,5.14,3.87,6.4s5,1.53,7.61,1.79a6.36,6.36,0,0,0,8.35,4.08,4.48,4.48,0,0,1,1.9-.62c1.2.06,1.91,1.33,2.76,2.18,2,2,5.4,1.81,8.11.87s5.31-2.45,8.18-2.56a8.84,8.84,0,0,1,7.55,3.84,1.49,1.49,0,0,0,.7.68c.32.09.73-.23.59-.53"/><path class="cls-4" d="M64.27,42.76c-.67-7.42-1.47-15.13-5.84-21.41A45,45,0,0,0,51,13.26a17.82,17.82,0,0,0-8.76-4.58c-3.08-.47-7.38.88-6.86,4.77l.56-.33a19,19,0,0,0-8.11-2.45c-1.85-.07-4,1-3.53,3.17l.46-.47-5.34-.8a10.08,10.08,0,0,0-4-.14c-1.81.46-3.29,2.55-2.1,4.29l.42-.55c-2.49-.68-5.2-1.38-7.76-.59A5.74,5.74,0,0,0,2,19.2c-.54,2.1,2.42,2.86,3.84,3.55,2.63,1.29,5.33,2.46,8.06,3.52l-.27-.36a7.05,7.05,0,0,0,3.14,6.14c2.5,1.81,5.72,2.13,8.71,2.42l-.37-.27a6.84,6.84,0,0,0,5.38,4.71A6.18,6.18,0,0,0,34,38.53c1.14-.47,2-.86,3,.09.59.55,1,1.23,1.66,1.74,2.25,1.82,5.5,1.49,8.07.61,3.55-1.2,7-3.4,10.87-2.16a8.69,8.69,0,0,1,2.78,1.49,21.36,21.36,0,0,1,1.91,2.13c.56.6,1.79.76,1.73-.39,0-.48-.77-.48-.75,0,0,.21-1-.9-1.09-1a9.27,9.27,0,0,0-1-1.06,9.16,9.16,0,0,0-1.91-1.29,9,9,0,0,0-4.44-1c-4.1.16-7.49,3.06-11.58,3.24a6,6,0,0,1-5.12-2.19c-.95-1.08-1.93-1.87-3.42-1.32-1.78.65-3.16,1.17-5,.51A6,6,0,0,1,25.88,34a.39.39,0,0,0-.36-.28C21,33.28,14,31.91,14.42,25.91a.39.39,0,0,0-.28-.36c-2-.78-4-1.62-6-2.53-.93-.43-1.85-.87-2.76-1.33s-2.83-1-2.65-2.29c.26-1.8,2.62-3,4.17-3.28,2.23-.45,4.53.19,6.67.77.3.08.62-.27.43-.55a2.06,2.06,0,0,1,.83-2.87,5.13,5.13,0,0,1,3.19-.36c2.19.26,4.37.66,6.55,1a.38.38,0,0,0,.46-.46c-.63-2.88,3.79-2.18,5.27-1.86a20.23,20.23,0,0,1,5.27,2c.22.12.61,0,.57-.32-.37-2.73,2.21-4.15,4.59-4.15A12.34,12.34,0,0,1,46.64,11a35.07,35.07,0,0,1,9,8,28.24,28.24,0,0,1,6,11.17,73.57,73.57,0,0,1,1.88,12.54c0,.47.79.48.75,0Z"/><path class="cls-4" d="M62.14,38.33a33.78,33.78,0,0,0-8-7.29,52.1,52.1,0,0,0-10.11-5.75,73.08,73.08,0,0,0-11.71-3.24A106.16,106.16,0,0,0,20,19.88a125.93,125.93,0,0,0-15-.24.38.38,0,0,0,0,.75c4.13-.1,8.26-.19,12.39,0a82.46,82.46,0,0,1,12.5,1.84c3.79.81,7.61,1.58,11.3,2.76a44,44,0,0,1,10.55,5.23c3.64,2.37,7.2,4.95,9.84,8.45.29.38.94,0,.65-.38Z"/><path class="cls-4" d="M41.52,23.74A5.34,5.34,0,0,0,40.22,21c-.63-.86-1.28-1.71-2-2.52a15.39,15.39,0,0,0-4.89-3.89c-.44-.21-.82.44-.38.65a14.45,14.45,0,0,1,4.55,3.56,28.93,28.93,0,0,1,1.85,2.29,5.48,5.48,0,0,1,1.41,2.65c0,.48.78.49.75,0Z"/><path class="cls-4" d="M28,19.74a32.17,32.17,0,0,0-5.44-2.41c-.46-.15-.66.57-.2.73a30.85,30.85,0,0,1,5.26,2.33.38.38,0,0,0,.38-.65Z"/><path class="cls-4" d="M50.79,26.71a11,11,0,0,0-3.44-8.89c-.35-.32-.89.21-.53.53A10.31,10.31,0,0,1,50,26.71c0,.48.71.48.75,0Z"/><path class="cls-4" d="M49.3,30.21a11.46,11.46,0,0,0-10.82,3.95c-.3.37.22.91.53.53a10.72,10.72,0,0,1,10.1-3.76c.47.09.67-.64.19-.72Z"/><path class="cls-4" d="M39.72,27.82A16.94,16.94,0,0,0,27.61,30.3c-.41.26,0,.91.38.65a16.16,16.16,0,0,1,11.53-2.41c.47.08.67-.64.2-.72Z"/><path class="cls-4" d="M27.26,24a8.12,8.12,0,0,0-7.41,4.21c-.23.43.41.81.64.38a7.38,7.38,0,0,1,6.77-3.84c.49,0,.48-.72,0-.75Z"/><path class="cls-5" d="M59.39,187.51a8.84,8.84,0,0,0,1.84-7.41,8.71,8.71,0,0,0-4.68-6c-2.45-1.18-5.29-1.11-8-1a10.4,10.4,0,0,0-3.54-6,8.89,8.89,0,0,0-6.56-2,12.92,12.92,0,0,0-3.41,1,11.56,11.56,0,0,0-4.1,2.62,5.51,5.51,0,0,0-1.53,4.52c-1.2-2.39-4.35-3-7-2.65a10.07,10.07,0,0,0-7,3.8c-1.58,2.26-1.65,5.7.34,7.6a7.69,7.69,0,0,0-4.29,8.87,7.56,7.56,0,0,0,8.23,5.31,8.77,8.77,0,0,0,4.48,8.26,8.56,8.56,0,0,0,9.26-.94,8.76,8.76,0,0,0,9.86,3,9,9,0,0,0,5.6-8.75,12.15,12.15,0,0,0,6.35.54,6.34,6.34,0,0,0,2.58-1,5.65,5.65,0,0,0,2-4.5,15.71,15.71,0,0,0-1-5"/><path class="cls-6" d="M59.65,187.77a9.21,9.21,0,0,0,.47-11.1c-2.73-3.83-7.25-4.12-11.57-3.92l.36.28c-1.06-4.75-5.16-8.72-10.25-8.27-4.2.37-10.28,3.54-9.62,8.52l.7-.19c-2.21-4-8.18-3.33-11.6-1.5-3.75,2-6,7.25-2.66,10.71l.08-.59A8.09,8.09,0,0,0,11.09,191a8,8,0,0,0,8.7,5.57l-.48-.36a9.19,9.19,0,0,0,4.83,8.67,9,9,0,0,0,9.55-1.09l-.59-.07a9.21,9.21,0,0,0,10.13,3.2,9.36,9.36,0,0,0,6-9.17l-.47.36c2.89,1,7.29,1.4,9.7-.92,2.62-2.52,1.67-6.48.71-9.51-.15-.45-.87-.26-.72.2.86,2.71,1.92,6.53-.52,8.78-2.26,2.09-6.32,1.65-9,.72a.38.38,0,0,0-.47.37A8.59,8.59,0,0,1,43,206.19a8.42,8.42,0,0,1-9.28-2.85.39.39,0,0,0-.59-.08,8.2,8.2,0,0,1-9,.8,8.47,8.47,0,0,1-4.14-7.85.37.37,0,0,0-.47-.36,7.19,7.19,0,0,1-7.85-5.37,7.36,7.36,0,0,1,4.2-8.13.37.37,0,0,0,.07-.58c-3.15-3.26-.63-8,2.84-9.71,3-1.48,8.3-2.09,10.24,1.41.17.31.75.19.7-.19-.61-4.65,5.35-7.64,9.28-7.8,4.63-.19,8.16,3.46,9.12,7.74a.36.36,0,0,0,.36.28c3.79-.17,7.86-.1,10.52,3a8.44,8.44,0,0,1,0,10.7c-.29.37.23.91.53.53Z"/><path class="cls-7" d="M39.3,176.74a4.5,4.5,0,1,0-4.5-4.5,4.56,4.56,0,0,0,4.5,4.5Z"/><path class="cls-7" d="M53.69,185.49a4.5,4.5,0,1,0-4.5-4.5,4.55,4.55,0,0,0,4.5,4.5Z"/><path class="cls-7" d="M52.52,196.08a4.5,4.5,0,1,0-4.5-4.5,4.55,4.55,0,0,0,4.5,4.5Z"/><path class="cls-7" d="M40.15,204.4a4.5,4.5,0,1,0-4.5-4.5,4.55,4.55,0,0,0,4.5,4.5Z"/><path class="cls-7" d="M27.46,202.56a4.5,4.5,0,1,0-4.5-4.5,4.55,4.55,0,0,0,4.5,4.5Z"/><path class="cls-7" d="M18.61,193.81a4.5,4.5,0,1,0-4.5-4.5,4.55,4.55,0,0,0,4.5,4.5Z"/><path class="cls-7" d="M22.46,182.1a4.5,4.5,0,1,0-4.5-4.5,4.55,4.55,0,0,0,4.5,4.5Z"/><path class="cls-8" d="M22.77,180.64c3.86,0,3.87-6,0-6s-3.87,6,0,6Z"/><path class="cls-8" d="M18.91,192.36c3.87,0,3.87-6,0-6s-3.86,6,0,6Z"/><path class="cls-8" d="M27.91,201.47c3.86,0,3.86-6,0-6s-3.87,6,0,6Z"/><path class="cls-8" d="M40.75,202.77c3.86,0,3.87-6,0-6s-3.86,6,0,6Z"/><path class="cls-8" d="M52.31,195c3.87,0,3.87-6,0-6s-3.86,6,0,6Z"/><path class="cls-8" d="M53.6,183.25c3.86,0,3.87-6,0-6s-3.87,6,0,6Z"/><path class="cls-8" d="M39.47,175.44c3.86,0,3.87-6,0-6s-3.87,6,0,6Z"/><path class="cls-9" d="M37.91,191.86a6,6,0,1,0-6-6,6.06,6.06,0,0,0,6,6Z"/><path class="cls-10" d="M41.59,182.89a5.86,5.86,0,0,1,.1,5.46c-.46.87-1.25,1.1-2.16,1.49a4.52,4.52,0,0,1-2.83.65A7,7,0,0,1,34,189a2.84,2.84,0,0,1-.8-.78,4.46,4.46,0,0,1-.19-1.55,11.67,11.67,0,0,1,.27-3.33,1.93,1.93,0,0,1,1.34-1.59,8.86,8.86,0,0,1,3.68-.5,4.08,4.08,0,0,1,2.9,1,1.51,1.51,0,0,0,2.12,0,1.53,1.53,0,0,0,0-2.12,6.13,6.13,0,0,0-4-1.8,12.08,12.08,0,0,0-4.9.3,5.23,5.23,0,0,0-3.58,2.61A10.63,10.63,0,0,0,30,185.7c0,1.59,0,3.44,1.1,4.69a11.21,11.21,0,0,0,1.59,1.33,9.62,9.62,0,0,0,2,1.21,6.07,6.07,0,0,0,4.87.16c.72-.29,1.42-.6,2.13-.91a5.17,5.17,0,0,0,1.91-1.24c2.26-2.56,2.2-6.68.64-9.56-.92-1.7-3.52-.19-2.59,1.51Z"/><path class="cls-10" d="M37.47,187.4a1.5,1.5,0,0,0,0-3,1.5,1.5,0,0,0,0,3Z"/><path class="cls-5" d="M59.39,80.51a8.84,8.84,0,0,0,1.84-7.41,8.71,8.71,0,0,0-4.68-6c-2.45-1.18-5.29-1.11-8-1a10.4,10.4,0,0,0-3.54-6,8.89,8.89,0,0,0-6.56-2,12.92,12.92,0,0,0-3.41,1,11.56,11.56,0,0,0-4.1,2.62,5.51,5.51,0,0,0-1.53,4.52c-1.2-2.39-4.35-3-7-2.65a10.07,10.07,0,0,0-7,3.8c-1.58,2.26-1.65,5.7.34,7.6a7.69,7.69,0,0,0-4.29,8.87,7.56,7.56,0,0,0,8.23,5.31,8.77,8.77,0,0,0,4.48,8.26,8.56,8.56,0,0,0,9.26-.94,8.76,8.76,0,0,0,9.86,3,9,9,0,0,0,5.6-8.75,12.15,12.15,0,0,0,6.35.54,6.34,6.34,0,0,0,2.58-1,5.65,5.65,0,0,0,2-4.5,15.71,15.71,0,0,0-1-5"/><path class="cls-6" d="M59.65,80.77a9.21,9.21,0,0,0,.47-11.1c-2.73-3.83-7.25-4.12-11.57-3.92l.36.28c-1.06-4.75-5.16-8.72-10.25-8.27-4.2.37-10.28,3.54-9.62,8.52l.7-.19c-2.21-4-8.18-3.33-11.6-1.5-3.75,2-6,7.25-2.66,10.71l.08-.59A8.09,8.09,0,0,0,11.09,84a8,8,0,0,0,8.7,5.57l-.48-.36a9.19,9.19,0,0,0,4.83,8.67,9,9,0,0,0,9.55-1.09l-.59-.07a9.21,9.21,0,0,0,10.13,3.2,9.36,9.36,0,0,0,6-9.17l-.47.36c2.89,1,7.29,1.4,9.7-.92,2.62-2.52,1.67-6.48.71-9.51-.15-.45-.87-.26-.72.2.86,2.71,1.92,6.53-.52,8.78-2.26,2.09-6.32,1.65-9,.72a.38.38,0,0,0-.47.37A8.59,8.59,0,0,1,43,99.19a8.42,8.42,0,0,1-9.28-2.85.39.39,0,0,0-.59-.08,8.2,8.2,0,0,1-9,.8,8.47,8.47,0,0,1-4.14-7.85.37.37,0,0,0-.47-.36,7.19,7.19,0,0,1-7.85-5.37,7.36,7.36,0,0,1,4.2-8.13.37.37,0,0,0,.07-.58c-3.15-3.26-.63-8,2.84-9.71,3-1.48,8.3-2.09,10.24,1.41.17.31.75.19.7-.19-.61-4.65,5.35-7.64,9.28-7.8,4.63-.19,8.16,3.46,9.12,7.74a.36.36,0,0,0,.36.28c3.79-.17,7.86-.1,10.52,3a8.44,8.44,0,0,1,0,10.7c-.29.37.23.91.53.53Z"/><path class="cls-7" d="M39.3,69.74a4.5,4.5,0,1,0-4.5-4.5,4.56,4.56,0,0,0,4.5,4.5Z"/><path class="cls-7" d="M53.69,78.49a4.5,4.5,0,1,0-4.5-4.5,4.55,4.55,0,0,0,4.5,4.5Z"/><path class="cls-7" d="M52.52,89.08a4.5,4.5,0,1,0-4.5-4.5,4.55,4.55,0,0,0,4.5,4.5Z"/><path class="cls-7" d="M40.15,97.4a4.5,4.5,0,1,0-4.5-4.5,4.55,4.55,0,0,0,4.5,4.5Z"/><path class="cls-7" d="M27.46,95.56a4.5,4.5,0,1,0-4.5-4.5,4.55,4.55,0,0,0,4.5,4.5Z"/><path class="cls-7" d="M18.61,86.81a4.5,4.5,0,1,0-4.5-4.5,4.55,4.55,0,0,0,4.5,4.5Z"/><path class="cls-7" d="M22.46,75.1A4.5,4.5,0,1,0,18,70.6a4.55,4.55,0,0,0,4.5,4.5Z"/><path class="cls-8" d="M22.77,73.64c3.86,0,3.87-6,0-6s-3.87,6,0,6Z"/><path class="cls-8" d="M18.91,85.36c3.87,0,3.87-6,0-6s-3.86,6,0,6Z"/><path class="cls-8" d="M27.91,94.47c3.86,0,3.86-6,0-6s-3.87,6,0,6Z"/><path class="cls-8" d="M40.75,95.77c3.86,0,3.87-6,0-6s-3.86,6,0,6Z"/><path class="cls-8" d="M52.31,88c3.87,0,3.87-6,0-6s-3.86,6,0,6Z"/><path class="cls-8" d="M53.6,76.25c3.86,0,3.87-6,0-6s-3.87,6,0,6Z"/><path class="cls-8" d="M39.47,68.44c3.86,0,3.87-6,0-6s-3.87,6,0,6Z"/><path class="cls-9" d="M37.91,84.86a6,6,0,1,0-6-6,6.06,6.06,0,0,0,6,6Z"/><path class="cls-10" d="M41.59,75.89a5.86,5.86,0,0,1,.1,5.46c-.46.87-1.25,1.1-2.16,1.49a4.52,4.52,0,0,1-2.83.65A7,7,0,0,1,34,82a2.84,2.84,0,0,1-.8-.78A4.46,4.46,0,0,1,33,79.64a11.67,11.67,0,0,1,.27-3.33,1.93,1.93,0,0,1,1.34-1.59,8.86,8.86,0,0,1,3.68-.5,4.08,4.08,0,0,1,2.9,1,1.51,1.51,0,0,0,2.12,0,1.53,1.53,0,0,0,0-2.12,6.13,6.13,0,0,0-4-1.8,12.08,12.08,0,0,0-4.9.3,5.23,5.23,0,0,0-3.58,2.61A10.63,10.63,0,0,0,30,78.7c0,1.59,0,3.44,1.1,4.69a11.21,11.21,0,0,0,1.59,1.33,9.62,9.62,0,0,0,2,1.21,6.07,6.07,0,0,0,4.87.16c.72-.29,1.42-.6,2.13-.91a5.17,5.17,0,0,0,1.91-1.24c2.26-2.56,2.2-6.68.64-9.56-.92-1.7-3.52-.19-2.59,1.51Z"/><path class="cls-10" d="M37.47,80.4a1.5,1.5,0,0,0,0-3,1.5,1.5,0,0,0,0,3Z"/></g></g></svg>
