<svg xmlns="http://www.w3.org/2000/svg" viewBox="0 0 69.39 76.42"><defs><style>.cls-1{fill:#ddc0db;}</style></defs><g id="Layer_2" data-name="Layer 2"><g id="Layer_1-2" data-name="Layer 1"><path class="cls-1" d="M31.11,2.89c.61,18.29,1.22,36.6.71,54.9q-.22,7.82-.74,15.63a3,3,0,0,0,3,3,3.06,3.06,0,0,0,3-3c1.24-18.27,1.05-36.59.52-54.88-.14-5.21-.32-10.43-.49-15.65C37-1,31-1,31.11,2.89Z"/><path class="cls-1" d="M33.24,56.5a35.6,35.6,0,0,0-6.19,4.29L24.4,62.93l.09-.07-.38.28-.69.5c-.49.35-1,.67-1.49,1a3,3,0,1,0,3,5.18A55.83,55.83,0,0,0,31,65.27l1.33-1.07c.31-.24,0,0-.16.13l.37-.29.69-.5a22.88,22.88,0,0,1,3-1.86,3,3,0,0,0,1.07-4.1,3.06,3.06,0,0,0-4.1-1.08Z"/><path class="cls-1" d="M34.51,62a4.08,4.08,0,0,1,.88.52L34.78,62c1.14.92,1.88,2.23,3,3.15S40.6,67,41.93,68l-.61-.47a7.57,7.57,0,0,1,1.28,1.25l-.47-.61.15.21a3.24,3.24,0,0,0,1.79,1.38,3,3,0,0,0,2.31-.3c1.27-.82,2.06-2.74,1.08-4.11a12.11,12.11,0,0,0-3.24-3.06c-.9-.61-1.85-1.14-2.72-1.81l.61.47c-1.63-1.28-2.59-3.32-4.57-4.17a3.25,3.25,0,0,0-2.31-.3,3,3,0,0,0-2.09,3.69A2.89,2.89,0,0,0,34.51,62Z"/><path class="cls-1" d="M35.73,40.72C40.39,44,45.81,46,50.6,49.14c2.36,1.53,4.48,3.29,7.08,4.42,2.15.93,4.6,1.66,6.26,3.3,2.76,2.7,7-1.54,4.25-4.25-2-2-4.56-3-7.14-4.09A43.23,43.23,0,0,1,54,44.2C49.12,41,43.54,38.94,38.76,35.54a3,3,0,0,0-4.11,1.07,3.08,3.08,0,0,0,1.08,4.11Z"/><path class="cls-1" d="M55.88,49.43c4-1.59,8.21-2.42,12-4.42A3,3,0,0,0,69,40.9a3.07,3.07,0,0,0-4.1-1.07c-.47.25-1,.47-1.44.69-.64.3.63-.24,0,0l-.75.29c-.91.35-1.83.65-2.76.94-1.89.6-3.79,1.15-5.63,1.89A3.24,3.24,0,0,0,52.49,45a3,3,0,0,0-.3,2.31c.45,1.4,2.13,2.72,3.69,2.09Z"/><path class="cls-1" d="M48.53,48.88,52,62.77a3,3,0,0,0,5.79-1.6l-3.5-13.89a3,3,0,0,0-3.69-2.09,3.05,3.05,0,0,0-2.09,3.69Z"/><path class="cls-1" d="M38.86,37.67c3-.19,5.55-1.42,8.16-2.74q3.54-1.77,6.91-3.87a94.38,94.38,0,0,0,12.91-9.69,3,3,0,0,0-4.24-4.24,84.73,84.73,0,0,1-11.33,8.52c-2,1.25-4,2.42-6.1,3.5-1.92,1-4.1,2.38-6.31,2.52a3.08,3.08,0,0,0-3,3,3,3,0,0,0,3,3Z"/><path class="cls-1" d="M54.17,27.63c0-.15.1-1.24,0-.53a7.2,7.2,0,0,1,.16-.78,16.13,16.13,0,0,1,.56-1.79c.43-1.2.87-2.39,1.18-3.62a48.74,48.74,0,0,0,1.07-8.17,3,3,0,0,0-3-3,3.07,3.07,0,0,0-3,3c-.09,1.29-.2,2.57-.34,3.85,0,.36,0,.36,0,0,0,.18-.05.36-.08.55s-.09.54-.14.81c-.12.63-.26,1.25-.43,1.87-.7,2.62-2,5-2,7.79a3,3,0,0,0,6,0Z"/><path class="cls-1" d="M53.1,32.31c.58,0,1.16,0,1.74,0,.25,0,.49,0,.74.06l.49.05c-.39-.05-.41-.06-.06,0,1.06.18,2.12.39,3.16.66,2.18.57,4.31,1.33,6.43,2.08a3,3,0,0,0,3.69-2.09,3.07,3.07,0,0,0-2.09-3.69c-4.55-1.62-9.21-3.18-14.1-3.1a3,3,0,1,0,0,6Z"/><path class="cls-1" d="M38.08,17.35A91.22,91.22,0,0,0,48.66,9.69a3,3,0,0,0,.88-2.12,3,3,0,0,0-3-3,3.42,3.42,0,0,0-2.12.88c-.77.64-1.54,1.26-2.32,1.88-.32.24,0,0,.16-.13l-.3.23-.59.44c-.42.32-.85.63-1.28.94q-2.46,1.77-5,3.36a3,3,0,1,0,3,5.18Z"/><path class="cls-1" d="M34.8,13.56a28.47,28.47,0,0,1-5.73-3.44l.61.47a28.34,28.34,0,0,1-4-3.81,3,3,0,0,0-4.25,0,3.08,3.08,0,0,0,0,4.24,30.26,30.26,0,0,0,10.35,7.72,3.25,3.25,0,0,0,2.31.3,3.05,3.05,0,0,0,1.79-1.38c.69-1.31.45-3.41-1.07-4.1Z"/><path class="cls-1" d="M33.41,32.64C24,27.76,14.42,23,5.15,17.75c-3.36-1.9-6.39,3.28-3,5.18,9.26,5.24,18.79,10,28.26,14.89a3.07,3.07,0,0,0,4.1-1.08,3,3,0,0,0-1.08-4.1Z"/><path class="cls-1" d="M19,24.17a27.68,27.68,0,0,0-1.15-5.48,32.19,32.19,0,0,1-1.21-4.83l.1.8-.06-.53A3.22,3.22,0,0,0,15.82,12a3,3,0,0,0-2.12-.88c-1.49.06-3.17,1.33-3,3a29.23,29.23,0,0,0,1.15,5.39,33.57,33.57,0,0,1,1.2,4.74l-.11-.8c0,.24.06.47.08.71a3.29,3.29,0,0,0,.88,2.12,3.06,3.06,0,0,0,2.12.88c1.5-.07,3.16-1.33,3-3Z"/><path class="cls-1" d="M14,24A20.51,20.51,0,0,0,7.5,27.25c-.9.63-1.8,1.27-2.74,1.85-.48.3-1,.58-1.46.83-.27.14-.54.25-.8.38.1,0,.6-.24.22-.1l-.5.17A3.05,3.05,0,0,0,.13,34.07a3,3,0,0,0,3.69,2.1,25.64,25.64,0,0,0,6.42-3.54c.9-.62,1.8-1.25,2.75-1.8.49-.27,1-.48,1.49-.76-.2.12-.6.24-.15.07l.41-.15c.28-.09.56-.17.85-.24a3,3,0,0,0,2.09-3.69A3.07,3.07,0,0,0,14,24Z"/><path class="cls-1" d="M32.68,36.42a15.93,15.93,0,0,0-7.91,3.33c-2.34,1.7-4.65,3.45-7,5.11a79.77,79.77,0,0,1-14.9,8.53,3.1,3.1,0,0,0-2.1,3.69c.39,1.42,2.18,2.72,3.69,2.1a83.46,83.46,0,0,0,15.22-8.37c2.3-1.57,4.54-3.21,6.77-4.87,1.8-1.33,3.93-3.28,6.25-3.52a3.09,3.09,0,0,0,3-3,3,3,0,0,0-3-3Z"/><path class="cls-1" d="M15,44.59a2.77,2.77,0,0,1-.41,0c-.27,0-.28,0,0,0s.26,0,0,0l-.4-.11c-.42-.13-.83-.28-1.24-.43l-2.86-1-5.62-2A3,3,0,0,0,.7,43.19a3.07,3.07,0,0,0,2.09,3.69l5.83,2,2.87,1a8.76,8.76,0,0,0,3.46.69,3.06,3.06,0,0,0,3-3,3,3,0,0,0-3-3Z"/><path class="cls-1" d="M13.3,50.74,13,63.25a3,3,0,0,0,6,0l.34-12.51a3,3,0,0,0-6,0Z"/></g></g></svg>
